<?xml version="1.0" encoding="UTF-8" standalone="no"?>
<!-- Created with Inkscape (http://www.inkscape.org/) -->

<svg
   xmlns:dc="http://purl.org/dc/elements/1.1/"
   xmlns:cc="http://creativecommons.org/ns#"
   xmlns:rdf="http://www.w3.org/1999/02/22-rdf-syntax-ns#"
   xmlns:svg="http://www.w3.org/2000/svg"
   xmlns="http://www.w3.org/2000/svg"
   xmlns:sodipodi="http://sodipodi.sourceforge.net/DTD/sodipodi-0.dtd"
   xmlns:inkscape="http://www.inkscape.org/namespaces/inkscape"
   width="297mm"
   height="210mm"
   viewBox="0 0 1052.3622 744.09448"
   id="svg4200"
   version="1.1"
   inkscape:version="0.91 r13725"
   sodipodi:docname="kopimi-t-shirts.svg">
  <defs
     id="defs4202" />
  <sodipodi:namedview
     id="base"
     pagecolor="#ffffff"
     bordercolor="#666666"
     borderopacity="1.0"
     inkscape:pageopacity="0.0"
     inkscape:pageshadow="2"
     inkscape:zoom="0.35"
     inkscape:cx="424.37081"
     inkscape:cy="405.71429"
     inkscape:document-units="px"
     inkscape:current-layer="layer1"
     showgrid="false"
     inkscape:window-width="1301"
     inkscape:window-height="744"
     inkscape:window-x="65"
     inkscape:window-y="24"
     inkscape:window-maximized="1" />
  <metadata
     id="metadata4205">
    <rdf:RDF>
      <cc:Work
         rdf:about="">
        <dc:format>image/svg+xml</dc:format>
        <dc:type
           rdf:resource="http://purl.org/dc/dcmitype/StillImage" />
        <dc:title />
      </cc:Work>
    </rdf:RDF>
  </metadata>
  <g
     inkscape:label="Layer 1"
     inkscape:groupmode="layer"
     id="layer1"
     transform="translate(0,-308.26772)">
    <g
       style="stroke:#ffffff;stroke-width:1.30280006"
       id="g4810"
       transform="matrix(0.89767873,0,0,0.89767873,368.09233,109.29287)">
      <path
         id="path4800"
         d="m 441.08,720.52 -93.24,66.61 -417.03,-295.1 0.004,-251.03 93.239,-65.58 149.6,104.51 0,-210.05 93.24,-66.6 94.27,66.604 0,210.05 67.62,-47.13 79.93,56.36 80.94,-57.39 94.26,66.61 0,251.03 -94.26,65.58 -80.94,-57.38 -67.63,48.15 z"
         inkscape:connector-curvature="0" />
      <path
         id="path4802"
         d="M -43.573,241 24.053,289.16 92.703,241 24.053,192.84 Z m 80.948,57.38 67.625,48.15 68.65,-48.15 -67.62,-48.17 z m 79.925,57.37 68.64,48.16 68.66,-48.16 -68.66,-48.15 z M 266.89,21.72 198.24,69.88 266.89,118.036 335.54,69.88 Z m 0,114.76 -68.65,48.16 68.65,48.16 67.63,-49.18 z m 0,113.74 -68.65,48.16 68.65,48.15 67.63,-48.15 z m -68.65,162.91 68.65,47.14 67.63,-48.16 -67.63,-47.14 z m 80.95,56.35 68.65,48.16 67.62,-48.16 -67.62,-48.15 z m 149.59,-219.26 -68.65,48.16 67.63,48.15 68.65,-48.15 z m 160.87,0 -67.63,48.16 67.63,48.15 68.65,-48.15 z"
         inkscape:connector-curvature="0"
         style="fill:#ffffff" />
    </g>
    <text
       xml:space="preserve"
       style="font-style:normal;font-variant:normal;font-weight:normal;font-stretch:normal;font-size:100.46873474px;line-height:125%;font-family:Arial;-inkscape-font-specification:Arial;letter-spacing:0px;word-spacing:0px;fill:#000000;fill-opacity:1;stroke:none;stroke-width:1px;stroke-linecap:butt;stroke-linejoin:miter;stroke-opacity:1"
       x="566.12677"
       y="366.79468"
       id="text4879-7"
       sodipodi:linespacing="125%"
       transform="matrix(0.81571469,0.57845444,-0.57845444,0.81571469,0,0)"
       inkscape:transform-center-x="121.98453"
       inkscape:transform-center-y="101.12287"><tspan
         sodipodi:role="line"
         id="tspan4881-5"
         x="566.12677"
         y="366.79468"
         style="font-style:normal;font-variant:normal;font-weight:normal;font-stretch:normal;font-family:Arial;-inkscape-font-specification:Arial">COPY ME</tspan></text>
  </g>
</svg>
