<?xml version="1.0" encoding="UTF-8" standalone="no"?>
<!-- Created with Inkscape (http://www.inkscape.org/) -->

<svg
   xmlns:dc="http://purl.org/dc/elements/1.1/"
   xmlns:cc="http://creativecommons.org/ns#"
   xmlns:rdf="http://www.w3.org/1999/02/22-rdf-syntax-ns#"
   xmlns:svg="http://www.w3.org/2000/svg"
   xmlns="http://www.w3.org/2000/svg"
   xmlns:sodipodi="http://sodipodi.sourceforge.net/DTD/sodipodi-0.dtd"
   xmlns:inkscape="http://www.inkscape.org/namespaces/inkscape"
   width="744.09448819"
   height="1052.3622047"
   id="svg2"
   version="1.1"
   inkscape:version="0.91 r13725"
   sodipodi:docname="caesium_2.svg">
  <defs
     id="defs4" />
  <sodipodi:namedview
     id="base"
     pagecolor="#ffffff"
     bordercolor="#666666"
     borderopacity="1.0"
     inkscape:pageopacity="0.0"
     inkscape:pageshadow="2"
     inkscape:zoom="0.49497475"
     inkscape:cx="-341.28347"
     inkscape:cy="597.38766"
     inkscape:document-units="px"
     inkscape:current-layer="layer1"
     showgrid="false"
     inkscape:window-width="1855"
     inkscape:window-height="1056"
     inkscape:window-x="65"
     inkscape:window-y="24"
     inkscape:window-maximized="1"
     showguides="true"
     inkscape:guide-bbox="true">
    <sodipodi:guide
       orientation="1,0"
       position="-240.4163,1046.518"
       id="guide2992" />
    <sodipodi:guide
       orientation="1,0"
       position="563.66512,628.31488"
       id="guide2994" />
    <sodipodi:guide
       position="989.94949,472.75139"
       orientation="0,1"
       id="guide4181" />
    <sodipodi:guide
       position="996.0104,848.52813"
       orientation="0,1"
       id="guide4183" />
  </sodipodi:namedview>
  <metadata
     id="metadata7">
    <rdf:RDF>
      <cc:Work
         rdf:about="">
        <dc:format>image/svg+xml</dc:format>
        <dc:type
           rdf:resource="http://purl.org/dc/dcmitype/StillImage" />
        <dc:title></dc:title>
      </cc:Work>
    </rdf:RDF>
  </metadata>
  <g
     inkscape:label="Layer 1"
     inkscape:groupmode="layer"
     id="layer1">
    <path
       style="fill:#000000;fill-opacity:1;fill-rule:nonzero;stroke:#000000;stroke-width:0.98961794;stroke-linecap:round;stroke-linejoin:round;stroke-miterlimit:4;stroke-dasharray:none;stroke-dashoffset:0;stroke-opacity:1"
       d="M 67.708984 93.75 L 67.708984 697.5332 L 671.49219 697.5332 L 671.49219 93.75 L 67.708984 93.75 z M 182.69141 160.45898 C 187.15537 160.45898 190.98137 161.00444 194.16992 162.09766 C 197.35847 163.19087 199.95475 164.73991 201.95898 166.74414 C 204.05432 168.74837 205.60335 171.11657 206.60547 173.84961 C 207.60758 176.49155 208.10937 179.40716 208.10938 182.5957 C 208.10938 187.05967 206.92332 190.84005 204.55469 193.9375 C 202.27715 197.03495 199.31788 199.4051 195.67383 201.04492 C 200.04669 202.32034 203.82708 204.82539 207.01562 208.56055 C 210.20417 212.2046 211.79883 217.07785 211.79883 223.18164 C 211.79883 226.82569 211.16018 230.24309 209.88477 233.43164 C 208.70045 236.52909 206.83404 239.21661 204.2832 241.49414 C 201.82347 243.77167 198.58854 245.54685 194.58008 246.82227 C 190.66272 248.09768 185.97194 248.73633 180.50586 248.73633 C 178.41053 248.73633 176.22285 248.55386 173.94531 248.18945 C 171.75888 247.91615 169.71 247.50559 167.79688 246.95898 C 165.88375 246.50348 164.15224 246.04926 162.60352 245.59375 C 161.14589 245.04714 160.09865 244.63659 159.46094 244.36328 L 161.64648 234.66016 C 163.10411 235.38897 165.42669 236.2557 168.61523 237.25781 C 171.80378 238.25993 175.72297 238.75977 180.36914 238.75977 C 187.56615 238.75977 192.66748 237.34758 195.67383 234.52344 C 198.77127 231.60819 200.32031 227.73657 200.32031 222.9082 C 200.32031 219.81076 199.68167 217.21447 198.40625 215.11914 C 197.13083 213.02381 195.44494 211.33792 193.34961 210.0625 C 191.25428 208.78708 188.84046 207.87669 186.10742 207.33008 C 183.37438 206.78347 180.50439 206.50977 177.49805 206.50977 L 174.62891 206.50977 L 174.62891 197.35547 L 178.5918 197.35547 C 180.59603 197.35547 182.6449 197.173 184.74023 196.80859 C 186.92667 196.35309 188.88626 195.62321 190.61719 194.62109 C 192.43921 193.52788 193.89702 192.07007 194.99023 190.24805 C 196.08345 188.42602 196.62891 186.10344 196.62891 183.2793 C 196.62891 178.63313 195.17306 175.35453 192.25781 173.44141 C 189.43367 171.43718 186.10751 170.43359 182.28125 170.43359 C 178.36389 170.43359 175.03968 171.02662 172.30664 172.21094 C 169.5736 173.30415 167.29468 174.44264 165.47266 175.62695 L 161.09961 167.01758 C 163.01274 165.65106 165.88273 164.23887 169.70898 162.78125 C 173.62634 161.23253 177.95414 160.45898 182.69141 160.45898 z M 119.01172 162.37109 L 126.9375 162.37109 L 126.9375 237.39453 L 142.92578 237.39453 L 142.92578 246.95898 L 97.419922 246.95898 L 97.419922 237.39453 L 115.73242 237.39453 L 115.73242 178.08594 C 114.73031 178.99695 113.50059 179.95492 112.04297 180.95703 C 110.67645 181.86804 109.12741 182.77844 107.39648 183.68945 C 105.75666 184.60047 104.02515 185.46524 102.20312 186.28516 C 100.3811 187.10507 98.603973 187.78933 96.873047 188.33594 L 93.320312 179.86328 C 97.966481 178.04125 102.47674 175.76429 106.84961 173.03125 C 111.22247 170.20711 115.27656 166.65286 119.01172 162.37109 z M 228.33398 162.37109 L 281.90039 162.37109 L 281.90039 171.80078 C 279.16735 174.98933 276.20613 179.2715 273.01758 184.64648 C 269.82903 190.02146 266.77852 196.07881 263.86328 202.82031 C 261.03914 209.47071 258.57971 216.62288 256.48438 224.27539 C 254.38904 231.8368 253.06809 239.39757 252.52148 246.95898 L 240.9043 246.95898 C 241.3598 240.49079 242.50024 233.65794 244.32227 226.46094 C 246.23539 219.17283 248.51236 212.15947 251.1543 205.41797 C 253.79624 198.58537 256.71184 192.29798 259.90039 186.55859 C 263.08894 180.72811 266.23068 175.94609 269.32812 172.21094 L 228.33398 172.21094 L 228.33398 162.37109 z M 397.11328 196.23438 C 412.85447 196.23438 427.52253 198.38078 441.11719 202.67383 C 454.71185 206.60912 465.80257 211.61935 474.38867 217.70117 L 459.89844 257.94727 C 451.31234 252.2232 442.01126 247.57364 431.99414 243.99609 C 422.33478 240.41855 411.06665 238.62891 398.1875 238.62891 C 369.56716 238.62891 348.81665 250.61445 335.9375 274.58398 C 323.05835 298.19576 316.61914 335.04332 316.61914 385.12891 C 316.61914 435.57225 323.41511 474.38881 337.00977 501.57812 C 350.60442 528.76744 372.78587 542.36133 403.55273 542.36133 C 418.22066 542.36133 430.02685 540.57364 438.9707 536.99609 C 448.27231 533.41855 457.21663 528.76704 465.80273 523.04297 L 479.21875 561.14453 C 470.9904 567.58411 460.07708 573.12849 446.48242 577.7793 C 433.24552 582.4301 417.86394 584.75586 400.33398 584.75586 C 356.68797 584.75586 323.23644 568.47751 299.98242 535.92188 C 276.7284 503.36624 265.10156 453.1022 265.10156 385.12891 C 265.10156 350.42675 268.32214 321.09062 274.76172 297.12109 C 281.55905 273.15156 290.86013 253.65458 302.66602 238.62891 C 314.4719 223.60323 328.4245 212.87122 344.52344 206.43164 C 360.62238 199.63431 378.15231 196.23437 397.11328 196.23438 z M 579.43359 287.99805 C 589.80847 287.99805 599.64566 289.42898 608.94727 292.29102 C 618.24887 294.79529 625.94162 297.65912 632.02344 300.87891 L 621.82617 337.90625 C 615.3866 334.32871 608.94739 331.64424 602.50781 329.85547 C 596.06824 328.0667 589.09292 327.17383 581.58008 327.17383 C 570.13194 327.17383 561.00827 330.57181 554.21094 337.36914 C 547.41361 343.80872 544.01562 353.28915 544.01562 365.81055 C 544.01562 372.96563 545.26721 379.22548 547.77148 384.5918 C 550.27576 389.60036 553.49634 394.25187 557.43164 398.54492 C 561.72469 402.48022 566.37425 406.23691 571.38281 409.81445 C 576.74913 413.392 582.29546 416.78998 588.01953 420.00977 C 594.81686 423.94506 601.43542 428.23787 607.875 432.88867 C 614.67233 437.53948 620.57543 443.08582 625.58398 449.52539 C 630.9503 455.60721 635.2431 462.94124 638.46289 471.52734 C 641.68268 479.75569 643.29297 489.77224 643.29297 501.57812 C 643.29297 526.26316 635.95894 546.11886 621.29102 561.14453 C 606.98085 576.17021 585.87162 583.68359 557.9668 583.68359 C 543.65663 583.68359 530.77821 581.71459 519.33008 577.7793 C 507.88194 573.844 499.29633 570.26666 493.57227 567.04688 L 503.23047 528.94727 C 508.59678 531.8093 515.75341 535.02793 524.69727 538.60547 C 533.99887 542.18301 544.19478 543.97266 555.28516 543.97266 C 568.87982 543.97266 579.07572 540.21596 585.87305 532.70312 C 593.02813 524.83253 596.60547 514.63663 596.60547 502.11523 C 596.60547 494.24464 595.17453 487.62608 592.3125 482.25977 C 589.45047 476.5357 585.69377 471.52743 581.04297 467.23438 C 576.39216 462.94132 571.02518 459.18463 564.94336 455.96484 C 558.86154 452.3873 552.78104 448.63061 546.69922 444.69531 C 540.6174 441.11777 534.7143 437.00432 528.99023 432.35352 C 523.26617 427.34496 518.07854 421.79862 513.42773 415.7168 C 509.13468 409.27722 505.55735 402.12255 502.69531 394.25195 C 500.19103 386.02361 498.9375 376.54317 498.9375 365.81055 C 498.9375 342.55652 506.09413 323.77501 520.4043 309.46484 C 535.07222 295.15468 554.74855 287.99805 579.43359 287.99805 z M 150.59961 532.4043 L 191.32227 532.4043 L 191.32227 541.9707 L 160.43945 541.9707 C 160.34835 543.24612 160.2115 544.93201 160.0293 547.02734 C 159.9382 549.03157 159.80134 551.17169 159.61914 553.44922 C 159.43694 555.72675 159.25447 557.91248 159.07227 560.00781 C 158.89006 562.10314 158.75321 563.78903 158.66211 565.06445 C 170.86969 565.51996 179.75336 568.20748 185.31055 573.12695 C 190.86773 578.04643 193.64648 584.65118 193.64648 592.94141 C 193.64648 596.67656 193.05346 600.13958 191.86914 603.32812 C 190.68482 606.51667 188.81646 609.24786 186.26562 611.52539 C 183.80589 613.80292 180.61853 615.58005 176.70117 616.85547 C 172.87492 618.13089 168.31903 618.76953 163.03516 618.76953 C 160.84872 618.76953 158.66299 618.58706 156.47656 618.22266 C 154.38123 617.94935 152.37602 617.58441 150.46289 617.12891 C 148.54976 616.6734 146.86582 616.21723 145.4082 615.76172 C 143.95058 615.21511 142.90138 614.76089 142.26367 614.39648 L 144.45117 604.69336 C 145.90879 605.42217 148.14014 606.2889 151.14648 607.29102 C 154.24393 608.29313 158.11555 608.79297 162.76172 608.79297 C 166.40577 608.79297 169.45823 608.38241 171.91797 607.5625 C 174.37771 606.74259 176.3373 605.64972 177.79492 604.2832 C 179.34364 602.82558 180.43651 601.18726 181.07422 599.36523 C 181.80303 597.54321 182.16797 595.62923 182.16797 593.625 C 182.16797 590.52755 181.62056 587.79442 180.52734 585.42578 C 179.52523 582.96604 177.70249 580.91717 175.06055 579.27734 C 172.50971 577.63752 168.95741 576.40585 164.40234 575.58594 C 159.93838 574.67492 154.28963 574.2207 147.45703 574.2207 C 148.00364 570.21224 148.4142 566.47748 148.6875 563.01562 C 149.05191 559.46267 149.32561 556.04527 149.50781 552.76562 C 149.78112 549.39488 149.96359 546.07066 150.05469 542.79102 C 150.23689 539.51137 150.41741 536.04835 150.59961 532.4043 z M 218.92578 532.4043 L 259.64844 532.4043 L 259.64844 541.9707 L 228.76562 541.9707 C 228.67452 543.24612 228.53767 544.93201 228.35547 547.02734 C 228.26437 549.03157 228.12752 551.17169 227.94531 553.44922 C 227.76311 555.72675 227.58064 557.91248 227.39844 560.00781 C 227.21623 562.10314 227.07938 563.78903 226.98828 565.06445 C 239.19586 565.51996 248.07954 568.20748 253.63672 573.12695 C 259.1939 578.04643 261.97266 584.65118 261.97266 592.94141 C 261.97266 596.67656 261.37963 600.13958 260.19531 603.32812 C 259.01099 606.51667 257.14263 609.24786 254.5918 611.52539 C 252.13206 613.80292 248.9447 615.58005 245.02734 616.85547 C 241.20109 618.13089 236.64521 618.76953 231.36133 618.76953 C 229.1749 618.76953 226.98917 618.58706 224.80273 618.22266 C 222.7074 617.94935 220.70219 617.58441 218.78906 617.12891 C 216.87593 616.6734 215.192 616.21723 213.73438 615.76172 C 212.27675 615.21511 211.22755 614.76089 210.58984 614.39648 L 212.77734 604.69336 C 214.23497 605.42217 216.46631 606.2889 219.47266 607.29102 C 222.5701 608.29313 226.44172 608.79297 231.08789 608.79297 C 234.73194 608.79297 237.7844 608.38241 240.24414 607.5625 C 242.70388 606.74259 244.66347 605.64972 246.12109 604.2832 C 247.66982 602.82558 248.76268 601.18726 249.40039 599.36523 C 250.1292 597.54321 250.49219 595.62923 250.49219 593.625 C 250.49219 590.52755 249.94673 587.79442 248.85352 585.42578 C 247.8514 582.96604 246.02866 580.91717 243.38672 579.27734 C 240.83588 577.63752 237.28358 576.40585 232.72852 575.58594 C 228.26455 574.67492 222.6158 574.2207 215.7832 574.2207 C 216.32981 570.21224 216.74037 566.47748 217.01367 563.01562 C 217.37808 559.46267 217.65178 556.04527 217.83398 552.76562 C 218.10729 549.39488 218.2878 546.07066 218.37891 542.79102 C 218.56111 539.51137 218.74358 536.04835 218.92578 532.4043 z "
       id="rect2996" />
    <g
       style="font-style:normal;font-variant:normal;font-weight:normal;font-stretch:normal;font-size:181.77436829px;line-height:125%;font-family:'Ubuntu Mono';-inkscape-font-specification:'Ubuntu Mono';letter-spacing:0px;word-spacing:0px;fill:#000000;fill-opacity:1;stroke:none"
       id="text3001">
      <path
         d="m 93.592089,822.70279 q 5.666087,0 10.052731,-0.36556 4.56943,-0.36555 7.49386,-0.91388 l 0,-25.22323 q -2.92443,-0.91388 -7.1283,-1.46222 -4.021095,-0.54833 -8.590521,-0.54833 -4.203872,0 -8.224966,0.73111 -4.021095,0.54833 -7.128304,2.19333 -3.107209,1.64499 -5.117757,4.38664 -2.010547,2.55888 -2.010547,6.57998 0,8.22496 5.483311,11.51495 5.666087,3.10721 15.170493,3.10721 z m -1.462216,-76.03524 q 9.504407,0 15.901597,2.3761 6.57998,2.3761 10.60107,6.57997 4.0211,4.20387 5.66609,10.23551 1.64499,6.03165 1.64499,13.15995 l 0,53.00534 q -5.30053,0.91388 -14.07383,2.19332 -8.59052,1.27944 -17.72937,1.27944 -6.945527,0 -13.5255,-1.27944 -6.579973,-1.09666 -11.697729,-4.02109 -5.117757,-3.10721 -8.224966,-8.40775 -3.10721,-5.30053 -3.10721,-13.5255 0,-7.31108 3.10721,-12.24606 3.289986,-5.11775 8.224966,-8.22496 5.117756,-3.10721 11.514952,-4.38665 6.579973,-1.46222 13.159946,-1.46222 8.956071,0 17.546591,2.01055 l 0,-4.20387 q 0,-3.83832 -0.91388,-7.31108 -0.73111,-3.65554 -3.10721,-6.57998 -2.19333,-2.92443 -6.21442,-4.56942 -3.838318,-1.82777 -10.052737,-1.82777 -7.859412,0 -13.708276,1.09666 -5.848865,1.09666 -8.956075,2.19333 l -1.82777,-12.42884 q 3.10721,-1.46222 10.235514,-2.55888 7.31108,-1.09666 15.536047,-1.09666 z"
         style="font-size:182.77702332px"
         id="path4147" />
      <path
         d="m 181.87339,786.87849 q 4.93498,3.65554 11.1494,9.32163 6.21442,5.48331 12.24606,11.88051 6.21442,6.39719 11.69773,13.15994 5.48331,6.57998 8.7733,12.24606 l -17.91215,0 q -3.47277,-5.66608 -8.59052,-11.51495 -5.11776,-6.03164 -10.96662,-11.51495 -5.66609,-5.48331 -11.51496,-10.05274 -5.66608,-4.56942 -10.23551,-7.67663 l 0,40.75927 -15.17049,0 0,-84.80854 15.17049,0 0,35.45875 q 10.05274,-8.7733 20.10547,-17.36382 10.05274,-8.7733 18.09493,-18.09493 l 17.72937,0 q -7.85941,9.32163 -19.00881,19.19159 -10.96662,9.86996 -21.56769,19.00881 z"
         style="font-size:182.77702332px"
         id="path4149" />
      <path
         d="m 310.54842,748.67809 0,12.61162 -27.59934,0 0,72.19692 -14.98771,0 0,-72.19692 -27.59933,0 0,-12.61162 70.18638,0 z"
         style="font-size:182.77702332px"
         id="path4151" />
      <path
         d="m 354.04934,791.44792 q -2.92443,0 -5.66609,0.36555 -2.55888,0.18278 -4.7522,1.09666 l 0,29.06155 q 1.46222,0.36555 4.56942,0.73111 3.10721,0.18278 5.48332,0.18278 6.03164,0 9.68718,-3.65554 3.83831,-3.83832 3.83831,-12.24607 0,-8.22496 -4.20387,-11.8805 -4.20387,-3.65554 -8.95607,-3.65554 z m -24.6749,-42.76983 14.25661,0 0,32.35154 q 2.01055,-0.54833 5.30053,-1.09666 3.47277,-0.73111 7.12831,-0.73111 5.11775,0 9.68718,1.64499 4.7522,1.46222 8.22496,4.7522 3.65555,3.28999 5.66609,8.59052 2.19333,5.30054 2.19333,12.61162 0,15.35327 -8.04219,21.93324 -7.85941,6.57997 -20.47103,6.57997 -6.39719,0 -12.24606,-0.91388 -5.66609,-0.73111 -11.69773,-2.74166 l 0,-82.98077 z m 74.93858,84.80854 -14.25661,0 0,-84.80854 14.25661,0 0,84.80854 z"
         style="font-size:182.77702332px"
         id="path4153" />
      <path
         d="m 421.85962,849.38823 q 1.645,0.91389 4.56943,1.46222 3.10721,0.54833 5.66609,0.54833 8.95607,0 13.89105,-4.02109 5.11776,-3.83832 9.32163,-12.79439 -10.23552,-19.37437 -19.19159,-41.49039 -8.95607,-22.2988 -14.80494,-44.41482 l 16.44993,0 q 1.82777,7.31109 4.20388,15.90161 2.55887,8.40774 5.66608,17.36381 3.10721,8.95608 6.57998,18.09493 3.65554,8.95607 7.67663,17.18104 2.92443,-8.40774 5.48331,-16.63271 2.55888,-8.22497 4.7522,-16.44993 2.19333,-8.40775 4.38665,-16.99827 2.19333,-8.77329 4.56943,-18.46048 l 15.71882,0 q -5.84886,23.76102 -13.15994,46.05981 -7.12831,22.2988 -15.35327,41.30761 -3.10721,7.31108 -6.76275,12.61162 -3.47277,5.30053 -7.67664,8.77329 -4.20387,3.47277 -9.5044,5.11776 -5.30054,1.64499 -12.06329,1.64499 -3.47276,0 -7.67663,-0.91388 -4.0211,-0.91389 -5.48331,-1.645 l 2.74165,-12.24606 z m 39.66262,-114.41841 q -10.23552,0 -16.63271,-5.11776 -6.3972,-5.30053 -7.85941,-14.62216 l 11.51495,-3.10721 q 1.46221,5.30053 4.56942,8.59052 3.10721,3.10721 8.40775,3.10721 5.30053,0 8.40774,-3.10721 3.10721,-3.28999 4.56943,-8.59052 l 11.33217,3.10721 q -1.46222,9.32163 -7.85941,14.62216 -6.21442,5.11776 -16.44993,5.11776 z"
         style="font-size:182.77702332px"
         id="path4155" />
      <path
         d="m 582.33786,833.48663 -15.1705,0 0,-37.46929 -35.09318,0 0,37.46929 -15.1705,0 0,-84.80854 15.1705,0 0,34.54486 35.09318,0 0,-34.54486 15.1705,0 0,84.80854 z"
         style="font-size:182.77702332px"
         id="path4157" />
      <path
         d="m 628.21487,791.44792 q -2.92444,0 -5.66609,0.36555 -2.55888,0.18278 -4.7522,1.09666 l 0,29.06155 q 1.46221,0.36555 4.56942,0.73111 3.10721,0.18278 5.48331,0.18278 6.03164,0 9.68718,-3.65554 3.83832,-3.83832 3.83832,-12.24607 0,-8.22496 -4.20387,-11.8805 -4.20387,-3.65554 -8.95607,-3.65554 z m -24.6749,-42.76983 14.25661,0 0,32.35154 q 2.01054,-0.54833 5.30053,-1.09666 3.47276,-0.73111 7.1283,-0.73111 5.11776,0 9.68719,1.64499 4.7522,1.46222 8.22496,4.7522 3.65554,3.28999 5.66609,8.59052 2.19332,5.30054 2.19332,12.61162 0,15.35327 -8.04218,21.93324 -7.85942,6.57997 -20.47103,6.57997 -6.3972,0 -12.24606,-0.91388 -5.66609,-0.73111 -11.69773,-2.74166 l 0,-82.98077 z m 74.93858,84.80854 -14.25661,0 0,-84.80854 14.25661,0 0,84.80854 z"
         style="font-size:182.77702332px"
         id="path4159" />
    </g>
  </g>
</svg>
