<?xml version="1.0" encoding="UTF-8" standalone="no"?>
<!-- Created with Inkscape (http://www.inkscape.org/) -->

<svg
   xmlns:dc="http://purl.org/dc/elements/1.1/"
   xmlns:cc="http://creativecommons.org/ns#"
   xmlns:rdf="http://www.w3.org/1999/02/22-rdf-syntax-ns#"
   xmlns:svg="http://www.w3.org/2000/svg"
   xmlns="http://www.w3.org/2000/svg"
   xmlns:sodipodi="http://sodipodi.sourceforge.net/DTD/sodipodi-0.dtd"
   xmlns:inkscape="http://www.inkscape.org/namespaces/inkscape"
   width="744.09448819"
   height="1052.3622047"
   id="svg2"
   version="1.1"
   inkscape:version="0.48.4 r9939"
   sodipodi:docname="uran_2.svg">
  <defs
     id="defs4" />
  <sodipodi:namedview
     id="base"
     pagecolor="#ffffff"
     bordercolor="#666666"
     borderopacity="1.0"
     inkscape:pageopacity="0.0"
     inkscape:pageshadow="2"
     inkscape:zoom="0.49497475"
     inkscape:cx="78.173766"
     inkscape:cy="597.38766"
     inkscape:document-units="px"
     inkscape:current-layer="layer1"
     showgrid="false"
     inkscape:window-width="1301"
     inkscape:window-height="744"
     inkscape:window-x="65"
     inkscape:window-y="24"
     inkscape:window-maximized="1"
     showguides="true"
     inkscape:guide-bbox="true">
    <sodipodi:guide
       orientation="1,0"
       position="-240.4163,1046.518"
       id="guide2992" />
    <sodipodi:guide
       orientation="1,0"
       position="563.66512,628.31488"
       id="guide2994" />
  </sodipodi:namedview>
  <metadata
     id="metadata7">
    <rdf:RDF>
      <cc:Work
         rdf:about="">
        <dc:format>image/svg+xml</dc:format>
        <dc:type
           rdf:resource="http://purl.org/dc/dcmitype/StillImage" />
        <dc:title />
      </cc:Work>
    </rdf:RDF>
  </metadata>
  <g
     inkscape:label="Layer 1"
     inkscape:groupmode="layer"
     id="layer1">
    <path
       style="fill:#000000;fill-opacity:1;fill-rule:nonzero;stroke:#000000;stroke-width:0.98961800000000000;stroke-linecap:round;stroke-linejoin:round;stroke-miterlimit:4;stroke-opacity:1;stroke-dasharray:none;stroke-dashoffset:0"
       d="M 94.125 110.21875 L 94.125 676 L 659.9375 676 L 659.9375 110.21875 L 94.125 110.21875 z M 151.96875 172.71875 C 160.24978 172.71883 166.3541 174.6271 170.28125 178.46875 C 174.29368 182.22518 176.31245 187.6642 176.3125 194.75 C 176.31245 197.48196 175.73478 200.1264 174.625 202.6875 C 173.60049 205.2487 172.19901 207.77426 170.40625 210.25 C 168.69877 212.72583 166.75087 215.14088 164.53125 217.53125 C 162.31154 219.9217 160.02375 222.28874 157.71875 224.59375 C 156.43814 225.87436 154.9574 227.39472 153.25 229.1875 C 151.54253 230.98033 149.91167 232.80934 148.375 234.6875 C 146.83828 236.5657 145.55569 238.42596 144.53125 240.21875 C 143.50677 242.01157 142.99998 243.53193 143 244.8125 L 179.5 244.8125 L 179.5 253.78125 L 131.46875 253.78125 C 131.38337 253.35439 131.34374 252.92686 131.34375 252.5 L 131.34375 251.09375 C 131.34374 247.50814 131.96103 244.16715 133.15625 241.09375 C 134.35144 238.02038 135.87181 235.13817 137.75 232.40625 C 139.62816 229.67437 141.72619 227.10919 144.03125 224.71875 C 146.42164 222.243 148.75743 219.83632 151.0625 217.53125 C 152.94065 215.65311 154.76128 213.8241 156.46875 212.03125 C 158.26152 210.23848 159.78188 208.4491 161.0625 206.65625 C 162.42841 204.86349 163.48161 203.03448 164.25 201.15625 C 165.10368 199.19275 165.53121 197.17398 165.53125 195.125 C 165.53121 192.82002 165.17455 190.87213 164.40625 189.25 C 163.72323 187.628 162.71804 186.30578 161.4375 185.28125 C 160.24226 184.17149 158.84078 183.35605 157.21875 182.84375 C 155.59665 182.33159 153.8469 182.06257 151.96875 182.0625 C 149.74905 182.06257 147.69066 182.37122 145.8125 182.96875 C 144.01967 183.56642 142.42005 184.27135 140.96875 185.125 C 139.60278 185.97879 138.39945 186.83385 137.375 187.6875 C 136.35052 188.45591 135.57472 189.11283 135.0625 189.625 L 129.8125 182.1875 C 130.49547 181.41923 131.50904 180.48491 132.875 179.375 C 134.24094 178.26524 135.87181 177.25167 137.75 176.3125 C 139.71354 175.28812 141.89082 174.43305 144.28125 173.75 C 146.67164 173.06711 149.23682 172.71883 151.96875 172.71875 z M 215.875 172.71875 C 220.05819 172.71883 223.63695 173.22562 226.625 174.25 C 229.61297 175.27454 232.05927 176.71565 233.9375 178.59375 C 235.901 180.472 237.34211 182.72017 238.28125 185.28125 C 239.22029 187.7571 239.68745 190.4808 239.6875 193.46875 C 239.68745 197.65203 238.59462 201.19116 236.375 204.09375 C 234.24066 206.99644 231.44608 209.21335 228.03125 210.75 C 232.12905 211.94525 235.66819 214.28104 238.65625 217.78125 C 241.64421 221.19616 243.15619 225.78011 243.15625 231.5 C 243.15619 234.91489 242.5389 238.10575 241.34375 241.09375 C 240.23386 243.9964 238.48411 246.52196 236.09375 248.65625 C 233.78866 250.79055 230.75632 252.46105 227 253.65625 C 223.32897 254.85146 218.93478 255.4375 213.8125 255.4375 C 211.84892 255.4375 209.82177 255.27899 207.6875 254.9375 C 205.63856 254.68138 203.69904 254.29348 201.90625 253.78125 C 200.11343 253.35439 198.51381 252.92686 197.0625 252.5 C 195.69654 251.98777 194.69134 251.59987 194.09375 251.34375 L 196.15625 242.25 C 197.52219 242.93299 199.69947 243.74842 202.6875 244.6875 C 205.6755 245.6266 209.33351 246.09376 213.6875 246.09375 C 220.43184 246.09376 225.21394 244.77154 228.03125 242.125 C 230.93385 239.39311 232.4062 235.77473 232.40625 231.25 C 232.4062 228.34738 231.78891 225.90108 230.59375 223.9375 C 229.3985 221.97398 227.83851 220.38274 225.875 219.1875 C 223.91141 217.99233 221.62362 217.16852 219.0625 216.65625 C 216.50131 216.14406 213.81724 215.87504 211 215.875 L 208.3125 215.875 L 208.3125 207.28125 L 212.03125 207.28125 C 213.9094 207.2813 215.81767 207.12278 217.78125 206.78125 C 219.83014 206.35444 221.6904 205.65789 223.3125 204.71875 C 225.0199 203.69434 226.38175 202.33249 227.40625 200.625 C 228.43067 198.91762 228.93746 196.74033 228.9375 194.09375 C 228.93746 189.73985 227.57561 186.66788 224.84375 184.875 C 222.19719 182.99689 219.08559 182.06257 215.5 182.0625 C 211.82898 182.06257 208.68613 182.60899 206.125 183.71875 C 203.56383 184.74328 201.45742 185.82773 199.75 186.9375 L 195.625 178.875 C 197.4178 177.5945 200.13312 176.27228 203.71875 174.90625 C 207.38972 173.45501 211.43564 172.71883 215.875 172.71875 z M 266.84375 174.5 L 305 174.5 L 305 183.46875 L 276.0625 183.46875 C 275.9771 184.66403 275.85822 186.25526 275.6875 188.21875 C 275.6021 190.09699 275.45197 192.08452 275.28125 194.21875 C 275.11048 196.3531 274.95197 198.4115 274.78125 200.375 C 274.61048 202.3386 274.4916 203.92984 274.40625 205.125 C 285.84604 205.55191 294.16727 208.04621 299.375 212.65625 C 304.58263 217.26637 307.18744 223.48119 307.1875 231.25 C 307.18744 234.75027 306.60978 237.98075 305.5 240.96875 C 304.39011 243.95678 302.64036 246.52196 300.25 248.65625 C 297.94491 250.79055 294.98345 252.46105 291.3125 253.65625 C 287.72684 254.85146 283.45154 255.4375 278.5 255.4375 C 276.45105 255.4375 274.39265 255.27899 272.34375 254.9375 C 270.38018 254.68138 268.51154 254.33311 266.71875 253.90625 C 264.92593 253.47939 263.33469 253.05186 261.96875 252.625 C 260.60279 252.11277 259.62884 251.68524 259.03125 251.34375 L 261.0625 242.25 C 262.42844 242.93299 264.52646 243.74842 267.34375 244.6875 C 270.24637 245.6266 273.89601 246.09376 278.25 246.09375 C 281.66484 246.09376 284.50743 245.70585 286.8125 244.9375 C 289.1175 244.16916 290.94651 243.15559 292.3125 241.875 C 293.76378 240.50906 294.8086 238.95745 295.40625 237.25 C 296.08918 235.54258 296.4062 233.7532 296.40625 231.875 C 296.4062 228.97238 295.89942 226.4072 294.875 224.1875 C 293.93587 221.88249 292.22574 219.97423 289.75 218.4375 C 287.35955 216.90084 284.04981 215.73713 279.78125 214.96875 C 275.598 214.11507 270.30912 213.68754 263.90625 213.6875 C 264.41847 209.93118 264.77512 206.43168 265.03125 203.1875 C 265.37272 199.85805 265.64174 196.66719 265.8125 193.59375 C 266.0686 190.43505 266.22711 187.32345 266.3125 184.25 C 266.48323 181.17669 266.67299 177.91495 266.84375 174.5 z M 327.8125 206.03125 L 391.84375 206.03125 L 391.84375 393.3125 C 391.84363 436.92556 398.72737 468.14642 412.5 486.96875 C 426.27235 505.79123 449.4674 515.2188 482.0625 515.21875 C 488.94854 515.2188 496.0607 514.99038 503.40625 514.53125 C 510.75135 514.07222 517.63509 513.61538 524.0625 513.15625 C 530.48941 512.23813 536.23107 511.55289 541.28125 511.09375 C 546.78998 510.17564 550.67306 509.23072 552.96875 508.3125 L 552.96875 206.03125 L 617.03125 206.03125 L 617.03125 553.78125 C 602.34025 557.45392 582.83112 561.337 558.5 565.46875 C 534.6274 569.6005 506.83278 571.68749 475.15625 571.6875 C 447.61107 571.68749 424.44727 567.77317 405.625 559.96875 C 386.80247 551.70526 371.63324 540.22194 360.15625 525.53125 C 348.67909 510.84063 340.42485 493.64691 335.375 473.90625 C 330.32503 453.70669 327.81245 431.42531 327.8125 407.09375 L 327.8125 206.03125 z M 232.40625 515.71875 C 241.11414 515.71883 247.68562 518.71155 252.125 524.6875 C 256.56428 530.6636 258.78119 538.86594 258.78125 549.28125 C 258.78119 565.07508 254.93341 576.97506 247.25 585 C 239.56649 592.93959 228.01478 596.94588 212.5625 597.03125 L 212.15625 588.09375 C 221.71788 588.09376 229.41344 586.19387 235.21875 582.4375 C 241.10937 578.59578 244.99678 572.02431 246.875 562.71875 C 244.82603 563.65787 242.56949 564.43368 240.09375 565.03125 C 237.61793 565.54351 235.01312 565.81253 232.28125 565.8125 C 227.75651 565.81253 223.94836 565.15561 220.875 563.875 C 217.8016 562.50908 215.31567 560.7197 213.4375 558.5 C 211.55931 556.195 210.19746 553.59019 209.34375 550.6875 C 208.49002 547.78491 208.06249 544.71293 208.0625 541.46875 C 208.06249 538.56616 208.52965 535.61308 209.46875 532.625 C 210.40783 529.55168 211.88019 526.78835 213.84375 524.3125 C 215.80729 521.83679 218.3016 519.77839 221.375 518.15625 C 224.44836 516.53426 228.13763 515.71883 232.40625 515.71875 z M 295.03125 515.71875 C 303.31228 515.71883 309.4166 517.65835 313.34375 521.5 C 317.35618 525.25643 319.3437 530.6642 319.34375 537.75 C 319.3437 540.48196 318.79728 543.1264 317.6875 545.6875 C 316.66299 548.2487 315.26151 550.77426 313.46875 553.25 C 311.76127 555.72583 309.78212 558.17213 307.5625 560.5625 C 305.34279 562.95295 303.08625 565.28874 300.78125 567.59375 C 299.50064 568.87436 298.0199 570.42597 296.3125 572.21875 C 294.60503 574.01158 292.97417 575.84059 291.4375 577.71875 C 289.90078 579.59695 288.61819 581.42596 287.59375 583.21875 C 286.56927 585.01157 286.06248 586.53193 286.0625 587.8125 L 322.5625 587.8125 L 322.5625 596.78125 L 274.53125 596.78125 C 274.44587 596.35439 274.40624 595.92686 274.40625 595.5 L 274.40625 594.09375 C 274.40624 590.50814 274.99228 587.1984 276.1875 584.125 C 277.38269 581.05163 278.93431 578.13817 280.8125 575.40625 C 282.69066 572.67437 284.78869 570.10919 287.09375 567.71875 C 289.48414 565.243 291.81993 562.86757 294.125 560.5625 C 296.00315 558.68436 297.79253 556.8241 299.5 555.03125 C 301.29277 553.23848 302.84438 551.4491 304.125 549.65625 C 305.49091 547.86349 306.54411 546.03448 307.3125 544.15625 C 308.16618 542.19275 308.59371 540.17398 308.59375 538.125 C 308.59371 535.82002 308.2058 533.87213 307.4375 532.25 C 306.75448 530.628 305.78054 529.30578 304.5 528.28125 C 303.30476 527.17149 301.90328 526.35605 300.28125 525.84375 C 298.65915 525.33159 296.9094 525.09382 295.03125 525.09375 C 292.81155 525.09382 290.75316 525.37122 288.875 525.96875 C 287.08217 526.56642 285.4513 527.3026 284 528.15625 C 282.63403 529.01004 281.4307 529.8651 280.40625 530.71875 C 279.38177 531.48716 278.63722 532.11283 278.125 532.625 L 272.875 525.21875 C 273.55797 524.45048 274.57154 523.48491 275.9375 522.375 C 277.30344 521.26524 278.93431 520.25167 280.8125 519.3125 C 282.77604 518.28812 284.95332 517.43305 287.34375 516.75 C 289.73414 516.06711 292.29932 515.71883 295.03125 515.71875 z M 232.53125 524.6875 C 229.97007 524.68757 227.83241 525.23399 226.125 526.34375 C 224.41754 527.36828 223.01606 528.72175 221.90625 530.34375 C 220.7964 531.88051 219.98096 533.63026 219.46875 535.59375 C 219.04187 537.55736 218.81248 539.426 218.8125 541.21875 C 218.81248 546.42648 219.97619 550.39315 222.28125 553.125 C 224.67164 555.77157 228.40053 557.09379 233.4375 557.09375 C 236.16937 557.09379 238.66367 556.82477 240.96875 556.3125 C 243.35912 555.80031 245.68654 555.09538 247.90625 554.15625 C 247.99158 553.30257 248.0312 552.48714 248.03125 551.71875 C 248.0312 550.95045 248.0312 550.13502 248.03125 549.28125 C 248.0312 545.9518 247.76218 542.80057 247.25 539.8125 C 246.8231 536.82454 246.00766 534.21973 244.8125 532 C 243.70262 529.7804 242.14263 528.03065 240.09375 526.75 C 238.13016 525.38412 235.6046 524.68757 232.53125 524.6875 z "
       id="rect2996" />
    <g
       style="font-size:149.64091492px;font-style:normal;font-variant:normal;font-weight:normal;font-stretch:normal;line-height:125%;letter-spacing:0px;word-spacing:0px;fill:#000000;fill-opacity:1;stroke:none;font-family:Ubuntu Mono;-inkscape-font-specification:Ubuntu Mono"
       id="text3001">
      <path
         d="m 114.27565,780.71868 c 3.1096,1e-5 5.86814,-0.1003 8.27565,-0.30093 2.50772,-0.20062 4.56409,-0.45139 6.16912,-0.75234 l 0,-20.76435 c -1.60503,-0.50152 -3.56109,-0.90277 -5.86819,-1.20373 -2.20688,-0.3009 -4.56419,-0.45137 -7.07192,-0.4514 -2.30718,3e-5 -4.56418,0.20066 -6.77098,0.60187 -2.20687,0.30096 -4.16293,0.90283 -5.86819,1.80559 -1.70531,0.90283 -3.10966,2.10656 -4.213054,3.61119 -1.103442,1.40438 -1.655151,3.20998 -1.65513,5.41679 -2.1e-5,4.51401 1.504641,7.6738 4.513994,9.47938 3.1096,1.7053 7.2725,2.55794 12.4887,2.55793 m -1.20373,-62.59399 c 5.21612,7e-5 9.57964,0.65209 13.09057,1.95606 3.61114,1.30411 6.52015,3.1097 8.72705,5.41679 2.20678,2.30721 3.76159,5.11591 4.66445,8.42611 0.90274,3.31031 1.35414,6.9215 1.3542,10.83358 l 0,43.63523 c -2.90908,0.50156 -6.77104,1.10342 -11.58591,1.8056 -4.71466,0.70217 -9.57973,1.05326 -14.59523,1.05326 -3.81185,0 -7.52335,-0.35109 -11.13451,-1.05326 -3.611214,-0.60187 -6.821159,-1.70529 -9.629843,-3.31026 -2.80872,-1.70528 -5.065712,-4.01243 -6.770984,-6.92145 -1.705295,-2.90901 -2.557937,-6.62051 -2.557928,-11.13451 -9e-6,-4.01241 0.852633,-7.37282 2.557928,-10.08124 1.805582,-2.80868 4.062575,-5.06567 6.770984,-6.77099 2.808684,-1.70525 5.968474,-2.90897 9.479383,-3.61119 3.61116,-0.80245 7.22234,-1.20369 10.83357,-1.20373 4.91519,4e-5 9.73011,0.55175 14.44477,1.65513 l 0,-3.46073 c -5e-5,-2.10648 -0.25083,-4.1127 -0.75233,-6.01865 -0.4013,-2.00617 -1.25394,-3.81176 -2.55793,-5.41679 -1.20378,-1.60492 -2.90906,-2.8588 -5.11586,-3.76166 -2.10657,-1.00304 -4.86511,-1.5046 -8.27564,-1.50466 -4.3134,6e-5 -8.07506,0.30099 -11.28498,0.9028 -3.209968,0.60192 -5.667582,1.20379 -7.372848,1.80559 l -1.504663,-10.23171 c 1.705267,-0.80241 4.513969,-1.50459 8.426111,-2.10652 4.01241,-0.6018 8.27562,-0.90273 12.78964,-0.9028"
         style="font-size:150.46632385px"
         id="path2988" />
      <path
         d="m 186.95089,751.22728 c 2.70835,2.00625 5.76783,4.56418 9.17844,7.67378 3.41052,3.00936 6.77093,6.26946 10.08124,9.78031 3.41052,3.5109 6.62046,7.12209 9.62985,10.83358 3.00926,3.6112 5.41672,6.97161 7.22238,10.08124 l -14.7457,0 c -1.90596,-3.10963 -4.26326,-6.26942 -7.07191,-9.47938 -2.80876,-3.31024 -5.81808,-6.47003 -9.02798,-9.47938 -3.10968,-3.0093 -6.26947,-5.76785 -9.47938,-8.27564 -3.10967,-2.50775 -5.91837,-4.61427 -8.42612,-6.31959 l 0,33.55399 -12.4887,0 0,-69.81637 12.4887,0 0,29.19046 c 5.51707,-4.81487 11.03417,-9.57964 16.5513,-14.2943 5.51705,-4.81486 10.48244,-9.78024 14.89617,-14.89616 l 14.59523,0 c -4.31343,5.11592 -9.52959,10.38223 -15.6485,15.79896 -6.0187,5.41684 -11.93704,10.633 -17.75502,15.6485"
         style="font-size:150.46632385px"
         id="path2990" />
      <path
         d="m 292.87918,719.77982 0,10.38217 -22.72042,0 0,59.4342 -12.33824,0 0,-59.4342 -22.72041,0 0,-10.38217 57.77907,0"
         style="font-size:150.46632385px"
         id="path2992" />
      <path
         d="m 328.69017,754.98894 c -1.605,3e-5 -3.15982,0.10034 -4.66446,0.30093 -1.40437,0.10034 -2.70841,0.40128 -3.91212,0.9028 l 0,23.92414 c 0.80247,0.20063 2.05635,0.40126 3.76166,0.60187 1.70526,0.10032 3.20992,0.15047 4.51399,0.15046 3.31023,10e-6 5.96846,-1.00309 7.97471,-3.00932 2.10649,-2.10652 3.15976,-5.46693 3.1598,-10.08125 -4e-5,-4.51396 -1.15362,-7.77406 -3.46073,-9.78031 -2.30718,-2.00618 -4.7648,-3.00929 -7.37285,-3.00932 m -20.31295,-35.20912 11.73637,0 0,26.63254 c 1.1034,-0.30089 2.55791,-0.60183 4.36352,-0.9028 1.90588,-0.4012 3.86195,-0.60182 5.86819,-0.60187 2.80867,5e-5 5.46691,0.45145 7.97471,1.3542 2.60805,0.80253 4.86504,2.10657 6.77099,3.91212 2.00617,1.80564 3.56099,4.16294 4.66446,7.07192 1.20368,2.90905 1.80554,6.36977 1.80559,10.38218 -5e-5,8.42613 -2.20689,14.44477 -6.62052,18.05596 -4.3134,3.61119 -9.93081,5.41678 -16.85223,5.41678 -3.5109,0 -6.87131,-0.25077 -10.08124,-0.75233 -3.10965,-0.40124 -6.31959,-1.15357 -9.62984,-2.25699 l 0,-68.31171 m 61.69119,69.81637 -11.73637,0 0,-69.81637 11.73637,0 0,69.81637"
         style="font-size:150.46632385px"
         id="path2994" />
      <path
         d="m 384.51317,802.68676 c 0.90279,0.50154 2.15667,0.90279 3.76166,1.20373 1.70527,0.30092 3.26009,0.45139 4.66445,0.4514 4.91521,-1e-5 8.72702,-1.10343 11.43544,-3.31026 2.80868,-2.10654 5.3666,-5.61741 7.67379,-10.53264 -5.61744,-10.63294 -10.88376,-22.01822 -15.79897,-34.15586 -4.91525,-12.23788 -8.97783,-24.42564 -12.18777,-36.56331 l 13.54197,0 c 1.00309,4.0125 2.15666,8.37602 3.46072,13.09057 1.40433,4.61435 2.95915,9.37911 4.66446,14.2943 1.70525,4.91527 3.51085,9.88065 5.41679,14.89616 2.00618,4.91526 4.11271,9.62987 6.31958,14.14384 1.60494,-4.61428 3.1096,-9.17842 4.51399,-13.69244 1.40431,-4.51396 2.70835,-9.02794 3.91213,-13.54197 1.20368,-4.61425 2.40741,-9.2787 3.61119,-13.99336 1.20368,-4.81487 2.45756,-9.88056 3.76166,-15.1971 l 12.9401,0 c -3.21001,13.04047 -6.8212,25.67963 -10.83357,37.91751 -3.91218,12.23795 -8.12524,23.57307 -12.63918,34.00539 -1.70532,4.01243 -3.56107,7.47315 -5.56725,10.38218 -1.90594,2.909 -4.01247,5.31646 -6.31958,7.22238 -2.30719,1.90588 -4.91527,3.31024 -7.82425,4.21306 -2.90904,0.90277 -6.2193,1.35417 -9.93078,1.35419 -1.90592,-2e-5 -4.01245,-0.2508 -6.31959,-0.75233 -2.20684,-0.50158 -3.71151,-0.95297 -4.51399,-1.35419 l 2.257,-10.08125 m 32.65119,-94.19192 c -5.61744,8e-5 -10.18158,-1.40427 -13.69243,-4.21305 -3.51091,-2.90893 -5.66759,-6.92136 -6.47006,-12.03731 l 9.47938,-2.55793 c 0.80246,2.90911 2.05634,5.26642 3.76166,7.07192 1.70525,1.70538 4.0124,2.55802 6.92145,2.55793 2.90897,9e-5 5.21612,-0.85255 6.92145,-2.55793 1.70524,-1.8055 2.95912,-4.16281 3.76166,-7.07192 l 9.32891,2.55793 c -0.80254,5.11595 -2.95923,9.12838 -6.47005,12.03731 -3.41062,2.80878 -7.92461,4.21313 -13.54197,4.21305"
         style="font-size:150.46632385px"
         id="path2996" />
      <path
         d="m 516.62259,789.59619 -12.4887,0 0,-30.84559 -28.88954,0 0,30.84559 -12.4887,0 0,-69.81637 12.4887,0 0,28.43813 28.88954,0 0,-28.43813 12.4887,0 0,69.81637"
         style="font-size:150.46632385px"
         id="path2998" />
      <path
         d="m 565.67464,780.71868 c 3.10959,1e-5 5.86814,-0.1003 8.27565,-0.30093 2.50772,-0.20062 4.56409,-0.45139 6.16911,-0.75234 l 0,-20.76435 c -1.60502,-0.50152 -3.56108,-0.90277 -5.86818,-1.20373 -2.20689,-0.3009 -4.56419,-0.45137 -7.07192,-0.4514 -2.30719,3e-5 -4.56418,0.20066 -6.77098,0.60187 -2.20687,0.30096 -4.16293,0.90283 -5.86819,1.80559 -1.70531,0.90283 -3.10966,2.10656 -4.21306,3.61119 -1.10344,1.40438 -1.65515,3.20998 -1.65513,5.41679 -2e-5,4.51401 1.50464,7.6738 4.51399,9.47938 3.10961,1.7053 7.27251,2.55794 12.48871,2.55793 m -1.20373,-62.59399 c 5.21612,7e-5 9.57964,0.65209 13.09057,1.95606 3.61114,1.30411 6.52015,3.1097 8.72704,5.41679 2.20678,2.30721 3.7616,5.11591 4.66446,8.42611 0.90273,3.31031 1.35413,6.9215 1.3542,10.83358 l 0,43.63523 c -2.90908,0.50156 -6.77105,1.10342 -11.58591,1.8056 -4.71466,0.70217 -9.57973,1.05326 -14.59523,1.05326 -3.81185,0 -7.52335,-0.35109 -11.13451,-1.05326 -3.61122,-0.60187 -6.82116,-1.70529 -9.62985,-3.31026 -2.80872,-1.70528 -5.06571,-4.01243 -6.77098,-6.92145 -1.7053,-2.90901 -2.55794,-6.62051 -2.55793,-11.13451 -10e-6,-4.01241 0.85263,-7.37282 2.55793,-10.08124 1.80558,-2.80868 4.06257,-5.06567 6.77098,-6.77099 2.80869,-1.70525 5.96848,-2.90897 9.47938,-3.61119 3.61116,-0.80245 7.22235,-1.20369 10.83358,-1.20373 4.91519,4e-5 9.73011,0.55175 14.44476,1.65513 l 0,-3.46073 c -5e-5,-2.10648 -0.25082,-4.1127 -0.75233,-6.01865 -0.40129,-2.00617 -1.25393,-3.81176 -2.55792,-5.41679 -1.20378,-1.60492 -2.90907,-2.8588 -5.11586,-3.76166 -2.10657,-1.00304 -4.86512,-1.5046 -8.27565,-1.50466 -4.3134,6e-5 -8.07505,0.30099 -11.28497,0.9028 -3.20997,0.60192 -5.66759,1.20379 -7.37285,1.80559 l -1.50466,-10.23171 c 1.70526,-0.80241 4.51396,-1.50459 8.42611,-2.10652 4.01241,-0.6018 8.27561,-0.90273 12.78964,-0.9028"
         style="font-size:150.46632385px"
         id="path3000" />
      <path
         d="m 644.06758,762.51225 c -1.40439,3e-5 -2.75858,3e-5 -4.06259,0 -1.20376,-0.10028 -2.35734,-0.20059 -3.46072,-0.30093 -2.90905,4.31339 -5.66759,8.92769 -8.27565,13.8429 -2.60811,4.81493 -4.96541,9.32892 -7.07192,13.54197 l -12.63917,0 c 1.10341,-2.60808 2.3573,-5.26631 3.76166,-7.97471 1.40434,-2.8087 2.85885,-5.46693 4.36352,-7.97472 1.50465,-2.60806 3.00931,-5.06568 4.51399,-7.37285 1.50465,-2.40743 2.95915,-4.51396 4.36353,-6.31958 -5.01557,-1.80557 -8.42613,-4.36349 -10.23171,-7.67379 -1.7053,-3.41053 -2.55794,-7.02171 -2.55793,-10.83357 -10e-6,-3.91207 0.70216,-7.32264 2.10653,-10.23171 1.50465,-2.90896 3.56102,-5.31642 6.16912,-7.22239 2.60806,-2.00615 5.66754,-3.51081 9.17844,-4.51399 3.61116,-1.00303 7.52328,-1.50459 11.73638,-1.50466 5.91829,7e-5 10.88368,0.25085 14.89616,0.75233 4.01238,0.50163 7.42295,1.15365 10.23171,1.95607 l 0,68.91357 -12.4887,0 0,-27.08394 -10.53265,0 m 10.53265,-33.55399 c -1.00316,-0.20056 -2.60813,-0.35102 -4.81492,-0.4514 -2.10658,-0.20056 -4.6645,-0.30087 -7.67379,-0.30093 -5.11589,6e-5 -9.22863,1.05333 -12.33824,3.15979 -3.10966,2.10659 -4.66447,5.41684 -4.66445,9.93078 -2e-5,4.51403 1.60495,7.62367 4.81492,9.32891 3.20992,1.70533 7.37282,2.55797 12.48871,2.55793 l 12.18777,0 0,-24.22508"
         style="font-size:150.46632385px"
         id="path3002" />
    </g>
  </g>
</svg>
