<?xml version="1.0" encoding="UTF-8" standalone="no"?>
<!-- Created with Inkscape (http://www.inkscape.org/) -->

<svg
   xmlns:dc="http://purl.org/dc/elements/1.1/"
   xmlns:cc="http://creativecommons.org/ns#"
   xmlns:rdf="http://www.w3.org/1999/02/22-rdf-syntax-ns#"
   xmlns:svg="http://www.w3.org/2000/svg"
   xmlns="http://www.w3.org/2000/svg"
   xmlns:sodipodi="http://sodipodi.sourceforge.net/DTD/sodipodi-0.dtd"
   xmlns:inkscape="http://www.inkscape.org/namespaces/inkscape"
   width="210mm"
   height="297mm"
   viewBox="0 0 744.09448819 1052.3622047"
   id="svg4295"
   version="1.1"
   inkscape:version="0.91 r13725"
   sodipodi:docname="falanster.by.svg">
  <defs
     id="defs4297" />
  <sodipodi:namedview
     id="base"
     pagecolor="#ffffff"
     bordercolor="#666666"
     borderopacity="1.0"
     inkscape:pageopacity="0.0"
     inkscape:pageshadow="2"
     inkscape:zoom="0.35"
     inkscape:cx="325"
     inkscape:cy="748.57143"
     inkscape:document-units="px"
     inkscape:current-layer="text4843"
     showgrid="false"
     inkscape:window-width="1301"
     inkscape:window-height="744"
     inkscape:window-x="65"
     inkscape:window-y="24"
     inkscape:window-maximized="1" />
  <metadata
     id="metadata4300">
    <rdf:RDF>
      <cc:Work
         rdf:about="">
        <dc:format>image/svg+xml</dc:format>
        <dc:type
           rdf:resource="http://purl.org/dc/dcmitype/StillImage" />
        <dc:title></dc:title>
      </cc:Work>
    </rdf:RDF>
  </metadata>
  <g
     inkscape:label="Layer 1"
     inkscape:groupmode="layer"
     id="layer1">
    <g
       style="font-style:normal;font-variant:normal;font-weight:normal;font-stretch:normal;font-size:233.63670349px;line-height:125%;font-family:Arial;-inkscape-font-specification:Arial;letter-spacing:0px;word-spacing:0px;fill:#000000;fill-opacity:1;stroke:none;stroke-width:1px;stroke-linecap:butt;stroke-linejoin:miter;stroke-opacity:1"
       id="text4843">
      <path
         d="m 57.355065,211.41623 0,-92.2865 -22.896397,0 0,-16.12093 22.896397,0 0,-9.812743 q 0,-12.616382 3.50455,-20.793666 3.504551,-8.410922 9.111832,-13.550929 5.840917,-5.140008 13.317292,-7.242738 7.710011,-2.10273 16.120932,-2.10273 8.410919,0 16.821839,1.869093 8.64456,1.869094 16.12094,4.439098 l -3.50455,16.588206 q -5.14001,-2.570004 -12.85002,-4.439098 -7.71001,-1.869093 -15.65366,-1.869093 -4.906373,0 -9.34547,1.40182 -4.205461,1.168183 -7.476375,4.439097 -3.270913,3.037277 -5.140007,8.410922 -1.869094,5.140007 -1.869094,13.083655 l 0,9.579106 43.690066,0 0,16.12093 -43.690066,0 0,92.2865 -19.158209,0 z"
         style="font-style:normal;font-variant:normal;font-weight:normal;font-stretch:normal;font-family:'Ubuntu Mono';-inkscape-font-specification:'Ubuntu Mono'"
         id="path4850" />
      <path
         d="m 196.13527,197.63166 q 7.24273,0 12.85002,-0.46727 5.84091,-0.46727 9.5791,-1.16818 l 0,-32.24187 q -3.73819,-1.16818 -9.11183,-1.86909 -5.14001,-0.70091 -10.98093,-0.70091 -5.37364,0 -10.51365,0.93454 -5.14001,0.70091 -9.11183,2.80365 -3.97182,2.10273 -6.54183,5.60728 -2.57,3.27091 -2.57,8.41092 0,10.51365 7.0091,14.71911 7.24274,3.97182 19.39185,3.97182 z m -1.8691,-97.19286 q 12.14911,0 20.3264,3.03727 8.41092,3.03728 13.55092,8.41092 5.14001,5.37365 7.24274,13.08366 2.10273,7.71001 2.10273,16.82184 l 0,67.75465 q -6.77546,1.16818 -17.99002,2.80364 -10.98093,1.63545 -22.66276,1.63545 -8.8782,0 -17.28912,-1.63545 -8.41092,-1.40182 -14.95275,-5.14001 -6.54183,-3.97183 -10.51365,-10.74729 -3.97182,-6.77546 -3.97182,-17.28912 0,-9.34546 3.97182,-15.65365 4.20546,-6.54183 10.51365,-10.51366 6.54183,-3.97182 14.71911,-5.60728 8.41093,-1.86909 16.82185,-1.86909 11.44819,0 22.42912,2.57 l 0,-5.37364 q 0,-4.90637 -1.16818,-9.34547 -0.93455,-4.67273 -3.97183,-8.41092 -2.80364,-3.73819 -7.94365,-5.84092 -4.90637,-2.33637 -12.85001,-2.33637 -10.04638,0 -17.52276,1.40182 -7.47637,1.40182 -11.4482,2.80364 l -2.33636,-15.88729 q 3.97182,-1.86909 13.08365,-3.27091 9.34547,-1.40182 19.85912,-1.40182 z"
         style="font-style:normal;font-variant:normal;font-weight:normal;font-stretch:normal;font-family:'Ubuntu Mono';-inkscape-font-specification:'Ubuntu Mono'"
         id="path4852" />
      <path
         d="m 332.34546,213.98623 q -10.28001,0 -17.05547,-2.80364 -6.77547,-2.80364 -10.74729,-8.41092 -3.97183,-5.60728 -5.60728,-13.78456 -1.63546,-8.41093 -1.63546,-19.39185 l 0,-102.566514 -31.30732,0 0,-16.354569 50.46553,0 0,118.921083 q 0,8.17728 0.93455,13.31729 1.16818,5.14001 3.27091,8.41092 2.33637,3.03728 5.60728,4.20546 3.27091,1.16819 7.71001,1.16819 6.77547,0 12.61638,-1.63546 5.84092,-1.63546 9.11183,-3.50455 l 2.80365,16.35457 q -1.40182,0.70091 -3.97183,1.86909 -2.57,0.93455 -6.07455,1.8691 -3.50455,0.93454 -7.71001,1.63545 -3.97183,0.70091 -8.41093,0.70091 z"
         style="font-style:normal;font-variant:normal;font-weight:normal;font-stretch:normal;font-family:'Ubuntu Mono';-inkscape-font-specification:'Ubuntu Mono'"
         id="path4854" />
      <path
         d="m 429.77196,197.63166 q 7.24274,0 12.85002,-0.46727 5.84092,-0.46727 9.57911,-1.16818 l 0,-32.24187 q -3.73819,-1.16818 -9.11184,-1.86909 -5.14,-0.70091 -10.98092,-0.70091 -5.37364,0 -10.51365,0.93454 -5.14001,0.70091 -9.11183,2.80365 -3.97183,2.10273 -6.54183,5.60728 -2.57001,3.27091 -2.57001,8.41092 0,10.51365 7.00911,14.71911 7.24273,3.97182 19.39184,3.97182 z m -1.86909,-97.19286 q 12.14911,0 20.32639,3.03727 8.41092,3.03728 13.55093,8.41092 5.14001,5.37365 7.24274,13.08366 2.10273,7.71001 2.10273,16.82184 l 0,67.75465 q -6.77547,1.16818 -17.99003,2.80364 -10.98092,1.63545 -22.66276,1.63545 -8.87819,0 -17.28911,-1.63545 -8.41092,-1.40182 -14.95275,-5.14001 -6.54183,-3.97183 -10.51365,-10.74729 -3.97183,-6.77546 -3.97183,-17.28912 0,-9.34546 3.97183,-15.65365 4.20546,-6.54183 10.51365,-10.51366 6.54183,-3.97182 14.71911,-5.60728 8.41092,-1.86909 16.82184,-1.86909 11.4482,0 22.42913,2.57 l 0,-5.37364 q 0,-4.90637 -1.16819,-9.34547 -0.93454,-4.67273 -3.97182,-8.41092 -2.80364,-3.73819 -7.94365,-5.84092 -4.90637,-2.33637 -12.85002,-2.33637 -10.04638,0 -17.52275,1.40182 -7.47638,1.40182 -11.4482,2.80364 l -2.33637,-15.88729 q 3.97183,-1.86909 13.08366,-3.27091 9.34547,-1.40182 19.85912,-1.40182 z"
         style="font-style:normal;font-variant:normal;font-weight:normal;font-stretch:normal;font-family:'Ubuntu Mono';-inkscape-font-specification:'Ubuntu Mono'"
         id="path4856" />
      <path
         d="m 503.60117,106.04608 q 10.51365,-2.57001 20.79366,-3.97183 10.51366,-1.40182 19.62549,-1.40182 21.72821,0 32.70914,11.21456 11.21456,11.21457 11.21456,35.98006 l 0,63.54918 -19.15821,0 0,-60.04463 q 0,-10.51366 -1.8691,-17.05548 -1.86909,-6.54183 -5.37364,-10.04638 -3.27091,-3.73819 -8.17728,-5.14001 -4.67274,-1.40182 -10.28002,-1.40182 -4.67273,0 -10.04638,0.70091 -5.14,0.46727 -10.04638,1.40182 l 0,91.58559 -19.39184,0 0,-105.37015 z"
         style="font-style:normal;font-variant:normal;font-weight:normal;font-stretch:normal;font-family:'Ubuntu Mono';-inkscape-font-specification:'Ubuntu Mono'"
         id="path4858" />
      <path
         d="m 685.83777,184.31437 q 0,-5.84092 -4.90637,-9.5791 -4.67273,-3.73819 -11.91547,-6.54183 -7.0091,-2.80364 -15.42002,-5.37365 -8.41092,-2.80364 -15.65366,-6.77546 -7.0091,-3.97182 -11.91547,-9.81274 -4.67274,-5.84092 -4.67274,-15.18639 0,-13.08365 10.51366,-21.72821 10.74728,-8.87819 33.41004,-8.87819 8.8782,0 18.22367,1.40182 9.5791,1.16818 16.35457,3.27091 l -3.50455,17.28912 q -1.8691,-0.93455 -5.14001,-1.8691 -3.27092,-1.16818 -7.47638,-1.86909 -4.20546,-0.93455 -9.11183,-1.40182 -4.67273,-0.46728 -9.11183,-0.46728 -25.23276,0 -25.23276,13.78457 0,4.90637 4.67273,8.41092 4.90637,3.27092 12.14911,6.07456 7.24274,2.80364 15.65366,5.84091 8.41092,2.80364 15.65366,7.0091 7.24274,4.20546 11.91547,10.28002 4.90637,5.84092 4.90637,14.95275 0,14.71911 -11.4482,22.8964 -11.4482,7.94364 -36.21369,7.94364 -11.21456,0 -20.56003,-1.86909 -9.34547,-1.86909 -17.75639,-5.60728 l 3.73819,-17.52275 q 8.17729,3.73818 17.05548,6.30819 9.11183,2.33636 19.39185,2.33636 26.40094,0 26.40094,-13.31729 z"
         style="font-style:normal;font-variant:normal;font-weight:normal;font-stretch:normal;font-family:'Ubuntu Mono';-inkscape-font-specification:'Ubuntu Mono'"
         id="path4860" />
      <path
         d="m 79.370417,315.05468 45.792793,0 0,16.12093 -45.792793,0 0,50.46553 q 0,8.17728 1.168184,13.31729 1.168183,5.14001 3.738187,8.41092 2.803641,3.03728 7.009101,4.20546 4.205461,1.16819 10.280011,1.16819 8.41092,0 13.55093,-1.40182 5.14001,-1.40182 9.81274,-3.73819 l 2.80364,16.35457 q -3.27091,1.40182 -10.51365,3.73819 -7.0091,2.33636 -17.522749,2.33636 -12.149109,0 -19.85912,-2.80364 -7.710012,-2.80364 -12.149109,-8.41092 -4.205461,-5.60728 -5.840917,-13.78456 -1.635457,-8.41093 -1.635457,-19.39185 l 0,-50.46553 -22.896397,0 0,-16.12093 22.896397,0 0,-30.37277 19.158209,-3.27092 0,33.64369 z"
         style="font-style:normal;font-variant:normal;font-weight:normal;font-stretch:normal;font-family:'Ubuntu Mono';-inkscape-font-specification:'Ubuntu Mono'"
         id="path4862"
         inkscape:connector-curvature="0" />
      <path
         d="m 199.92695,312.48467 q 21.96185,0 33.87733,13.78457 11.91547,13.55093 11.91547,41.3537 l 0,6.77546 -77.56739,0 q 1.16819,16.82184 10.98093,25.70004 10.04637,8.64456 28.0364,8.64456 10.28002,0 17.52275,-1.63546 7.24274,-1.63546 10.98093,-3.50455 l 2.57,16.35457 q -3.50455,1.86909 -12.61638,3.97182 -9.11183,2.10273 -20.56003,2.10273 -14.0182,0 -24.76549,-4.20546 -10.51365,-4.4391 -17.52275,-11.91547 -7.0091,-7.47637 -10.51365,-17.75639 -3.50455,-10.51365 -3.50455,-22.66276 0,-14.48548 4.43909,-25.23276 4.4391,-10.74729 11.68184,-17.75639 7.24274,-7.0091 16.35457,-10.51365 9.11183,-3.50456 18.69093,-3.50456 z m 26.16731,46.26007 q 0,-13.78456 -7.24273,-21.72821 -7.24274,-8.17729 -19.15821,-8.17729 -6.77547,0 -12.38275,2.57001 -5.37364,2.57 -9.34547,6.77546 -3.97182,4.20546 -6.30819,9.57911 -2.33636,5.37364 -3.03727,10.98092 l 57.47462,0 z"
         style="font-style:normal;font-variant:normal;font-weight:normal;font-stretch:normal;font-family:'Ubuntu Mono';-inkscape-font-specification:'Ubuntu Mono'"
         id="path4864"
         inkscape:connector-curvature="0" />
      <path
         d="m 281.23253,423.46211 0,-102.56651 q 23.83094,-8.17729 48.12916,-8.17729 7.47637,0 14.25184,0.70091 6.77546,0.46727 14.95274,2.33637 l -3.50455,17.05548 q -7.47637,-2.10273 -13.31729,-2.57001 -5.60728,-0.70091 -12.38274,-0.70091 -14.25184,0 -28.97095,3.97183 l 0,89.95013 -19.15821,0 z"
         style="font-style:normal;font-variant:normal;font-weight:normal;font-stretch:normal;font-family:'Ubuntu Mono';-inkscape-font-specification:'Ubuntu Mono'"
         id="path4866"
         inkscape:connector-curvature="0" />
      <path
         d="m 448.75003,408.50936 q 0,7.0091 -4.67273,12.38274 -4.67273,5.37365 -12.38274,5.37365 -7.94365,0 -12.61639,-5.37365 -4.67273,-5.37364 -4.67273,-12.38274 0,-7.24274 4.67273,-12.61638 4.67274,-5.37365 12.61639,-5.37365 7.71001,0 12.38274,5.37365 4.67273,5.37364 4.67273,12.61638 z"
         style="font-style:normal;font-variant:normal;font-weight:normal;font-stretch:normal;font-family:'Ubuntu Mono';-inkscape-font-specification:'Ubuntu Mono'"
         id="path4868"
         inkscape:connector-curvature="0" />
      <path
         d="m 525.85015,319.0265 q 3.50456,-2.10273 10.04638,-4.20546 6.77547,-2.33637 14.95275,-2.33637 10.98093,0 19.62549,4.20547 8.64455,4.20546 14.48547,11.68183 6.07455,7.47637 9.11183,17.99003 3.27092,10.28001 3.27092,22.89639 0,13.08366 -3.73819,23.59731 -3.73819,10.51365 -10.51365,17.99003 -6.77547,7.24273 -16.35457,11.21456 -9.57911,3.97182 -21.26094,3.97182 -12.85002,0 -22.8964,-1.86909 -10.04638,-1.86909 -16.12093,-3.73819 l 0,-155.60204 19.39184,-3.27092 0,57.47463 z m 0,87.61377 q 4.4391,1.16818 8.8782,1.86909 4.4391,0.46727 8.41092,0.46727 16.12093,0 25.23276,-9.81274 9.11184,-10.04638 9.11184,-29.9055 0,-8.41092 -1.63546,-15.65366 -1.63546,-7.47637 -5.14001,-12.61638 -3.50455,-5.37364 -9.11183,-8.41092 -5.37364,-3.03728 -13.08366,-3.03728 -6.77546,0 -13.08365,2.80364 -6.30819,2.57001 -9.57911,5.60729 l 0,68.68919 z"
         style="font-style:normal;font-variant:normal;font-weight:normal;font-stretch:normal;font-family:'Ubuntu Mono';-inkscape-font-specification:'Ubuntu Mono'"
         id="path4870"
         inkscape:connector-curvature="0" />
      <path
         d="m 618.6039,443.7885 q 2.10273,1.16819 5.84092,1.8691 3.97182,0.70091 7.24274,0.70091 11.4482,0 17.75639,-5.14001 6.54183,-4.90637 11.91547,-16.35457 -13.08366,-24.76549 -24.53185,-53.03553 -11.4482,-28.50368 -18.92458,-56.77372 l 21.02731,0 q 2.33636,9.34547 5.37364,20.32639 3.27091,10.74729 7.24274,22.19549 3.97182,11.4482 8.41092,23.13003 4.67273,11.4482 9.81274,21.96185 3.73819,-10.74729 7.0091,-21.26094 3.27092,-10.51365 6.07456,-21.0273 2.80364,-10.74729 5.60728,-21.72821 2.80364,-11.21457 5.84092,-23.59731 l 20.09275,0 q -7.47637,30.37277 -16.82184,58.87645 -9.11183,28.50368 -19.62548,52.80189 -3.97183,9.34547 -8.64456,16.12094 -4.4391,6.77546 -9.81274,11.21456 -5.37365,4.43909 -12.14911,6.54182 -6.77547,2.10273 -15.42002,2.10273 -4.4391,0 -9.81275,-1.16818 -5.14,-1.16818 -7.0091,-2.10273 l 3.50455,-15.65366 z"
         style="font-style:normal;font-variant:normal;font-weight:normal;font-stretch:normal;font-family:'Ubuntu Mono';-inkscape-font-specification:'Ubuntu Mono'"
         id="path4872"
         inkscape:connector-curvature="0" />
      <path
         inkscape:connector-curvature="0"
         d="m 60.071117,730.52605 0,-92.28651 -22.8964,0 0,-16.12093 22.8964,0 0,-9.81274 q 0,-12.61638 3.50455,-20.79367 3.50455,-8.41092 9.11183,-13.55092 5.84092,-5.14001 13.31729,-7.24274 7.71001,-2.10273 16.120933,-2.10273 8.41092,0 16.82184,1.86909 8.64456,1.86909 16.12094,4.4391 l -3.50455,16.5882 q -5.14001,-2.57 -12.85002,-4.43909 -7.71001,-1.8691 -15.65366,-1.8691 -4.906373,0 -9.345473,1.40182 -4.20546,1.16819 -7.47637,4.4391 -3.27092,3.03728 -5.14001,8.41092 -1.86909,5.14001 -1.86909,13.08366 l 0,9.5791 43.690063,0 0,16.12093 -43.690063,0 0,92.28651 -19.15821,0 z"
         style="font-style:normal;font-variant:normal;font-weight:normal;font-stretch:normal;font-size:233.63670349px;line-height:125%;font-family:'Ubuntu Mono';-inkscape-font-specification:'Ubuntu Mono';letter-spacing:0px;word-spacing:0px;fill:#000000;fill-opacity:1;stroke:none;stroke-width:1px;stroke-linecap:butt;stroke-linejoin:miter;stroke-opacity:1"
         id="path4850-9" />
      <path
         inkscape:connector-curvature="0"
         d="m 198.85132,716.74148 q 7.24273,0 12.85002,-0.46727 5.84091,-0.46727 9.5791,-1.16818 l 0,-32.24187 q -3.73819,-1.16818 -9.11183,-1.86909 -5.14001,-0.70091 -10.98093,-0.70091 -5.37364,0 -10.51365,0.93454 -5.14001,0.70091 -9.11183,2.80365 -3.97182,2.10273 -6.54183,5.60728 -2.57,3.27091 -2.57,8.41092 0,10.51365 7.0091,14.71911 7.24274,3.97182 19.39185,3.97182 z m -1.8691,-97.19287 q 12.14911,0 20.3264,3.03727 8.41092,3.03728 13.55092,8.41092 5.14001,5.37365 7.24274,13.08366 2.10273,7.71001 2.10273,16.82184 l 0,67.75466 q -6.77546,1.16818 -17.99002,2.80364 -10.98093,1.63545 -22.66276,1.63545 -8.8782,0 -17.28912,-1.63545 -8.41092,-1.40182 -14.95275,-5.14001 -6.54183,-3.97183 -10.51365,-10.74729 -3.97182,-6.77546 -3.97182,-17.28912 0,-9.34546 3.97182,-15.65365 4.20546,-6.54183 10.51365,-10.51366 6.54183,-3.97183 14.71911,-5.60729 8.41093,-1.86909 16.82185,-1.86909 11.44819,0 22.42912,2.57 l 0,-5.37364 q 0,-4.90637 -1.16818,-9.34547 -0.93455,-4.67273 -3.97183,-8.41092 -2.80364,-3.73819 -7.94365,-5.84092 -4.90637,-2.33637 -12.85001,-2.33637 -10.04638,0 -17.52276,1.40182 -7.47637,1.40182 -11.4482,2.80364 l -2.33636,-15.88729 q 3.97182,-1.86909 13.08365,-3.27091 9.34547,-1.40182 19.85912,-1.40182 z"
         style="font-style:normal;font-variant:normal;font-weight:normal;font-stretch:normal;font-size:233.63670349px;line-height:125%;font-family:'Ubuntu Mono';-inkscape-font-specification:'Ubuntu Mono';letter-spacing:0px;word-spacing:0px;fill:#000000;fill-opacity:1;stroke:none;stroke-width:1px;stroke-linecap:butt;stroke-linejoin:miter;stroke-opacity:1"
         id="path4852-4" />
      <path
         inkscape:connector-curvature="0"
         d="m 335.06151,733.09605 q -10.28001,0 -17.05547,-2.80364 -6.77547,-2.80364 -10.74729,-8.41092 -3.97183,-5.60728 -5.60728,-13.78456 -1.63546,-8.41093 -1.63546,-19.39185 l 0,-102.56652 -31.30732,0 0,-16.35457 50.46553,0 0,118.92109 q 0,8.17728 0.93455,13.31729 1.16818,5.14001 3.27091,8.41092 2.33637,3.03728 5.60728,4.20546 3.27091,1.16819 7.71001,1.16819 6.77547,0 12.61638,-1.63546 5.84092,-1.63546 9.11183,-3.50455 l 2.80365,16.35457 q -1.40182,0.70091 -3.97183,1.86909 -2.57,0.93455 -6.07455,1.8691 -3.50455,0.93454 -7.71001,1.63545 -3.97183,0.70091 -8.41093,0.70091 z"
         style="font-style:normal;font-variant:normal;font-weight:normal;font-stretch:normal;font-size:233.63670349px;line-height:125%;font-family:'Ubuntu Mono';-inkscape-font-specification:'Ubuntu Mono';letter-spacing:0px;word-spacing:0px;fill:#000000;fill-opacity:1;stroke:none;stroke-width:1px;stroke-linecap:butt;stroke-linejoin:miter;stroke-opacity:1"
         id="path4854-9" />
      <path
         inkscape:connector-curvature="0"
         d="m 432.48801,716.74148 q 7.24274,0 12.85002,-0.46727 5.84092,-0.46727 9.57911,-1.16818 l 0,-32.24187 q -3.73819,-1.16818 -9.11184,-1.86909 -5.14,-0.70091 -10.98092,-0.70091 -5.37364,0 -10.51365,0.93454 -5.14001,0.70091 -9.11183,2.80365 -3.97183,2.10273 -6.54183,5.60728 -2.57001,3.27091 -2.57001,8.41092 0,10.51365 7.00911,14.71911 7.24273,3.97182 19.39184,3.97182 z m -1.86909,-97.19287 q 12.14911,0 20.32639,3.03727 8.41092,3.03728 13.55093,8.41092 5.14001,5.37365 7.24274,13.08366 2.10273,7.71001 2.10273,16.82184 l 0,67.75466 q -6.77547,1.16818 -17.99003,2.80364 -10.98092,1.63545 -22.66276,1.63545 -8.87819,0 -17.28911,-1.63545 -8.41092,-1.40182 -14.95275,-5.14001 -6.54183,-3.97183 -10.51365,-10.74729 -3.97183,-6.77546 -3.97183,-17.28912 0,-9.34546 3.97183,-15.65365 4.20546,-6.54183 10.51365,-10.51366 6.54183,-3.97183 14.71911,-5.60729 8.41092,-1.86909 16.82184,-1.86909 11.4482,0 22.42913,2.57 l 0,-5.37364 q 0,-4.90637 -1.16819,-9.34547 -0.93454,-4.67273 -3.97182,-8.41092 -2.80364,-3.73819 -7.94365,-5.84092 -4.90637,-2.33637 -12.85002,-2.33637 -10.04638,0 -17.52275,1.40182 -7.47638,1.40182 -11.4482,2.80364 l -2.33637,-15.88729 q 3.97183,-1.86909 13.08366,-3.27091 9.34547,-1.40182 19.85912,-1.40182 z"
         style="font-style:normal;font-variant:normal;font-weight:normal;font-stretch:normal;font-size:233.63670349px;line-height:125%;font-family:'Ubuntu Mono';-inkscape-font-specification:'Ubuntu Mono';letter-spacing:0px;word-spacing:0px;fill:#000000;fill-opacity:1;stroke:none;stroke-width:1px;stroke-linecap:butt;stroke-linejoin:miter;stroke-opacity:1"
         id="path4856-9" />
      <path
         inkscape:connector-curvature="0"
         d="m 506.31722,625.15589 q 10.51365,-2.57001 20.79366,-3.97183 10.51366,-1.40182 19.62549,-1.40182 21.72821,0 32.70914,11.21456 11.21456,11.21457 11.21456,35.98006 l 0,63.54919 -19.15821,0 0,-60.04463 q 0,-10.51367 -1.8691,-17.05549 -1.86909,-6.54183 -5.37364,-10.04638 -3.27091,-3.73819 -8.17728,-5.14001 -4.67274,-1.40182 -10.28002,-1.40182 -4.67273,0 -10.04638,0.70091 -5.14,0.46727 -10.04638,1.40182 l 0,91.5856 -19.39184,0 0,-105.37016 z"
         style="font-style:normal;font-variant:normal;font-weight:normal;font-stretch:normal;font-size:233.63670349px;line-height:125%;font-family:'Ubuntu Mono';-inkscape-font-specification:'Ubuntu Mono';letter-spacing:0px;word-spacing:0px;fill:#000000;fill-opacity:1;stroke:none;stroke-width:1px;stroke-linecap:butt;stroke-linejoin:miter;stroke-opacity:1"
         id="path4858-1" />
      <path
         inkscape:connector-curvature="0"
         d="m 688.55382,703.42419 q 0,-5.84092 -4.90637,-9.5791 -4.67273,-3.73819 -11.91547,-6.54183 -7.0091,-2.80364 -15.42002,-5.37365 -8.41092,-2.80364 -15.65366,-6.77546 -7.0091,-3.97182 -11.91547,-9.81275 -4.67274,-5.84092 -4.67274,-15.18639 0,-13.08365 10.51366,-21.72821 10.74728,-8.87819 33.41004,-8.87819 8.8782,0 18.22367,1.40182 9.5791,1.16818 16.35457,3.27091 l -3.50455,17.28912 q -1.8691,-0.93455 -5.14001,-1.8691 -3.27092,-1.16818 -7.47638,-1.86909 -4.20546,-0.93455 -9.11183,-1.40182 -4.67273,-0.46728 -9.11183,-0.46728 -25.23276,0 -25.23276,13.78457 0,4.90637 4.67273,8.41092 4.90637,3.27092 12.14911,6.07456 7.24274,2.80364 15.65366,5.84092 8.41092,2.80364 15.65366,7.0091 7.24274,4.20546 11.91547,10.28002 4.90637,5.84092 4.90637,14.95275 0,14.71911 -11.4482,22.8964 -11.4482,7.94364 -36.21369,7.94364 -11.21456,0 -20.56003,-1.86909 -9.34547,-1.86909 -17.75639,-5.60728 l 3.73819,-17.52275 q 8.17729,3.73818 17.05548,6.30819 9.11183,2.33636 19.39185,2.33636 26.40094,0 26.40094,-13.31729 z"
         style="font-style:normal;font-variant:normal;font-weight:normal;font-stretch:normal;font-size:233.63670349px;line-height:125%;font-family:'Ubuntu Mono';-inkscape-font-specification:'Ubuntu Mono';letter-spacing:0px;word-spacing:0px;fill:#000000;fill-opacity:1;stroke:none;stroke-width:1px;stroke-linecap:butt;stroke-linejoin:miter;stroke-opacity:1"
         id="path4860-9" />
      <path
         d="m 82.086467,834.1645 45.792793,0 0,16.12093 -45.792793,0 0,50.46553 q 0,8.17728 1.16818,13.31729 1.16819,5.14001 3.73819,8.41095 2.80364,3.0372 7.0091,4.2054 4.20546,1.1682 10.280013,1.1682 8.41092,0 13.55093,-1.4018 5.14001,-1.4018 9.81274,-3.7382 l 2.80364,16.3546 q -3.27091,1.4018 -10.51365,3.7382 -7.0091,2.3363 -17.52275,2.3363 -12.149113,0 -19.859123,-2.8036 -7.71001,-2.8037 -12.14911,-8.4109 -4.20546,-5.6073 -5.84091,-13.7846 -1.63546,-8.41092 -1.63546,-19.39184 l 0,-50.46553 -22.8964,0 0,-16.12093 22.8964,0 0,-30.37277 19.15821,-3.27092 0,33.64369 z"
         style="font-style:normal;font-variant:normal;font-weight:normal;font-stretch:normal;font-size:233.63670349px;line-height:125%;font-family:'Ubuntu Mono';-inkscape-font-specification:'Ubuntu Mono';letter-spacing:0px;word-spacing:0px;fill:#000000;fill-opacity:1;stroke:none;stroke-width:1px;stroke-linecap:butt;stroke-linejoin:miter;stroke-opacity:1"
         id="path4862-4"
         inkscape:connector-curvature="0" />
      <path
         d="m 202.643,831.59449 q 21.96185,0 33.87733,13.78457 11.91547,13.55093 11.91547,41.3537 l 0,6.77546 -77.56739,0 q 1.16819,16.82184 10.98093,25.70004 10.04637,8.64454 28.0364,8.64454 10.28002,0 17.52275,-1.6354 7.24274,-1.6355 10.98093,-3.5046 l 2.57,16.3546 q -3.50455,1.8691 -12.61638,3.9718 -9.11183,2.1027 -20.56003,2.1027 -14.0182,0 -24.76549,-4.2054 -10.51365,-4.4391 -17.52275,-11.9155 -7.0091,-7.4764 -10.51365,-17.75639 -3.50455,-10.51365 -3.50455,-22.66276 0,-14.48548 4.43909,-25.23276 4.4391,-10.74729 11.68184,-17.75639 7.24274,-7.0091 16.35457,-10.51365 9.11183,-3.50456 18.69093,-3.50456 z m 26.16731,46.26007 q 0,-13.78456 -7.24273,-21.72821 -7.24274,-8.17729 -19.15821,-8.17729 -6.77547,0 -12.38275,2.57001 -5.37364,2.57 -9.34547,6.77546 -3.97182,4.20546 -6.30819,9.57911 -2.33636,5.37364 -3.03727,10.98092 l 57.47462,0 z"
         style="font-style:normal;font-variant:normal;font-weight:normal;font-stretch:normal;font-size:233.63670349px;line-height:125%;font-family:'Ubuntu Mono';-inkscape-font-specification:'Ubuntu Mono';letter-spacing:0px;word-spacing:0px;fill:#000000;fill-opacity:1;stroke:none;stroke-width:1px;stroke-linecap:butt;stroke-linejoin:miter;stroke-opacity:1"
         id="path4864-2"
         inkscape:connector-curvature="0" />
      <path
         d="m 283.94858,942.5719 0,-102.56648 q 23.83094,-8.17729 48.12916,-8.17729 7.47637,0 14.25184,0.70091 6.77546,0.46727 14.95274,2.33637 l -3.50455,17.05548 q -7.47637,-2.10273 -13.31729,-2.57001 -5.60728,-0.70091 -12.38274,-0.70091 -14.25184,0 -28.97095,3.97183 l 0,89.9501 -19.15821,0 z"
         style="font-style:normal;font-variant:normal;font-weight:normal;font-stretch:normal;font-size:233.63670349px;line-height:125%;font-family:'Ubuntu Mono';-inkscape-font-specification:'Ubuntu Mono';letter-spacing:0px;word-spacing:0px;fill:#000000;fill-opacity:1;stroke:none;stroke-width:1px;stroke-linecap:butt;stroke-linejoin:miter;stroke-opacity:1"
         id="path4866-0"
         inkscape:connector-curvature="0" />
      <path
         d="m 451.46608,927.6192 q 0,7.0091 -4.67273,12.3827 -4.67273,5.3737 -12.38274,5.3737 -7.94365,0 -12.61639,-5.3737 -4.67273,-5.3736 -4.67273,-12.3827 0,-7.2428 4.67273,-12.6164 4.67274,-5.37365 12.61639,-5.37365 7.71001,0 12.38274,5.37365 4.67273,5.3736 4.67273,12.6164 z"
         style="font-style:normal;font-variant:normal;font-weight:normal;font-stretch:normal;font-size:233.63670349px;line-height:125%;font-family:'Ubuntu Mono';-inkscape-font-specification:'Ubuntu Mono';letter-spacing:0px;word-spacing:0px;fill:#000000;fill-opacity:1;stroke:none;stroke-width:1px;stroke-linecap:butt;stroke-linejoin:miter;stroke-opacity:1"
         id="path4868-6"
         inkscape:connector-curvature="0" />
      <path
         d="m 528.5662,838.13632 q 3.50456,-2.10273 10.04638,-4.20546 6.77547,-2.33637 14.95275,-2.33637 10.98093,0 19.62549,4.20547 8.64455,4.20546 14.48547,11.68183 6.07455,7.47637 9.11183,17.99003 3.27092,10.28001 3.27092,22.89639 0,13.08366 -3.73819,23.59731 -3.73819,10.51368 -10.51365,17.98998 -6.77547,7.2428 -16.35457,11.2146 -9.57911,3.9718 -21.26094,3.9718 -12.85002,0 -22.8964,-1.8691 -10.04638,-1.8691 -16.12093,-3.7382 l 0,-155.60199 19.39184,-3.27092 0,57.47463 z m 0,87.61378 q 4.4391,1.1682 8.8782,1.8691 4.4391,0.4672 8.41092,0.4672 16.12093,0 25.23276,-9.81269 9.11184,-10.04638 9.11184,-29.9055 0,-8.41092 -1.63546,-15.65366 -1.63546,-7.47637 -5.14001,-12.61638 -3.50455,-5.37364 -9.11183,-8.41092 -5.37364,-3.03728 -13.08366,-3.03728 -6.77546,0 -13.08365,2.80364 -6.30819,2.57001 -9.57911,5.60729 l 0,68.6892 z"
         style="font-style:normal;font-variant:normal;font-weight:normal;font-stretch:normal;font-size:233.63670349px;line-height:125%;font-family:'Ubuntu Mono';-inkscape-font-specification:'Ubuntu Mono';letter-spacing:0px;word-spacing:0px;fill:#000000;fill-opacity:1;stroke:none;stroke-width:1px;stroke-linecap:butt;stroke-linejoin:miter;stroke-opacity:1"
         id="path4870-5"
         inkscape:connector-curvature="0" />
      <path
         d="m 621.31995,962.8983 q 2.10273,1.1682 5.84092,1.8691 3.97182,0.7009 7.24274,0.7009 11.4482,0 17.75639,-5.14 6.54183,-4.9064 11.91547,-16.3546 -13.08366,-24.76544 -24.53185,-53.03548 -11.4482,-28.50368 -18.92458,-56.77372 l 21.02731,0 q 2.33636,9.34547 5.37364,20.32639 3.27091,10.74729 7.24274,22.19549 3.97182,11.4482 8.41092,23.13003 4.67273,11.4482 9.81274,21.96189 3.73819,-10.74733 7.0091,-21.26098 3.27092,-10.51365 6.07456,-21.0273 2.80364,-10.74729 5.60728,-21.72821 2.80364,-11.21457 5.84092,-23.59731 l 20.09275,0 q -7.47637,30.37277 -16.82184,58.87645 -9.11183,28.50365 -19.62548,52.80185 -3.97183,9.3455 -8.64456,16.121 -4.4391,6.7754 -9.81274,11.2145 -5.37365,4.4391 -12.14911,6.5419 -6.77547,2.1027 -15.42002,2.1027 -4.4391,0 -9.81275,-1.1682 -5.14,-1.1682 -7.0091,-2.1027 l 3.50455,-15.6537 z"
         style="font-style:normal;font-variant:normal;font-weight:normal;font-stretch:normal;font-size:233.63670349px;line-height:125%;font-family:'Ubuntu Mono';-inkscape-font-specification:'Ubuntu Mono';letter-spacing:0px;word-spacing:0px;fill:#000000;fill-opacity:1;stroke:none;stroke-width:1px;stroke-linecap:butt;stroke-linejoin:miter;stroke-opacity:1"
         id="path4872-9"
         inkscape:connector-curvature="0" />
    </g>
  </g>
</svg>
