<?xml version="1.0" encoding="UTF-8" standalone="no"?>
<!-- Created with Inkscape (http://www.inkscape.org/) -->

<svg
   xmlns:dc="http://purl.org/dc/elements/1.1/"
   xmlns:cc="http://creativecommons.org/ns#"
   xmlns:rdf="http://www.w3.org/1999/02/22-rdf-syntax-ns#"
   xmlns:svg="http://www.w3.org/2000/svg"
   xmlns="http://www.w3.org/2000/svg"
   xmlns:sodipodi="http://sodipodi.sourceforge.net/DTD/sodipodi-0.dtd"
   xmlns:inkscape="http://www.inkscape.org/namespaces/inkscape"
   width="600.11255"
   height="141.19815"
   id="svg2"
   version="1.1"
   inkscape:version="0.91 r13725"
   sodipodi:docname="logo_2018_trans_curves.svg"
   inkscape:export-filename="/home/jedi/Dropbox/falanster/design/logo/logo_2018/logo_2018.png"
   inkscape:export-xdpi="300"
   inkscape:export-ydpi="300">
  <defs
     id="defs4" />
  <sodipodi:namedview
     id="base"
     pagecolor="#ffffff"
     bordercolor="#666666"
     borderopacity="1.0"
     inkscape:pageopacity="0.0"
     inkscape:pageshadow="2"
     inkscape:zoom="1.4"
     inkscape:cx="274.24991"
     inkscape:cy="23.696103"
     inkscape:document-units="px"
     inkscape:current-layer="layer1"
     showgrid="false"
     showguides="true"
     inkscape:guide-bbox="true"
     fit-margin-top="0"
     fit-margin-left="0"
     fit-margin-right="0"
     fit-margin-bottom="0"
     inkscape:window-width="1855"
     inkscape:window-height="1056"
     inkscape:window-x="65"
     inkscape:window-y="24"
     inkscape:window-maximized="1">
    <sodipodi:guide
       orientation="1,0"
       position="2461.4699,649.14543"
       id="guide2997" />
  </sodipodi:namedview>
  <metadata
     id="metadata7">
    <rdf:RDF>
      <cc:Work
         rdf:about="">
        <dc:format>image/svg+xml</dc:format>
        <dc:type
           rdf:resource="http://purl.org/dc/dcmitype/StillImage" />
        <dc:title></dc:title>
      </cc:Work>
    </rdf:RDF>
  </metadata>
  <g
     inkscape:label="Layer 1"
     inkscape:groupmode="layer"
     id="layer1"
     transform="translate(701.46996,-497.45235)">
    <g
       style="font-style:normal;font-variant:normal;font-weight:600;font-stretch:normal;font-size:129.33372498px;line-height:125%;font-family:a_AlternaBrk;-inkscape-font-specification:'a_AlternaBrk Semi-Bold';letter-spacing:0px;word-spacing:0px;fill:#ff6600;fill-opacity:1;stroke:none"
       id="text2989">
      <path
         d="m -645.08046,528.23378 -1.42267,1.164 0,29.10009 7.88936,0 8.27736,-16.42538 -12.28671,-13.58005 -2.45734,-0.25866 z m -18.62405,-28.71209 -2.58668,-0.12933 21.4694,1.94 0,10.60537 6.33735,-1.94001 21.8574,8.53603 4.39735,24.70274 -6.98402,26.77208 -18.10672,5.30268 -10.7347,0.64667 3.23334,13.83871 -22.50407,0 0,-13.83871 -8.27736,-0.51733 -17.33072,-8.53603 -8.53602,-23.92674 7.11335,-22.50407 20.95207,-9.70003 6.20801,0 3.49202,-11.25203 z m 0,28.97075 0,0.38801 -8.66536,-1.03467 -11.51071,16.81338 10.86404,16.16672 8.66536,-3.49202 -1.16401,-12.2867 1.81068,-16.55472 z"
         style=""
         id="path4164" />
      <path
         d="m -584.1855,558.49787 -0.12933,-1.29334 14.09738,0 1.552,-23.4094 -8.53603,-21.72807 -4.65601,22.50407 -2.32801,23.92674 z m 0.25867,31.94543 0.25867,-1.94001 -18.49472,1.16401 -2.32801,-18.10673 3.88001,-22.50406 1.94001,-21.4694 6.07868,-14.35605 7.11336,-15.13204 19.14139,0 8.27736,16.68405 4.26801,12.93337 1.94,22.89207 1.42268,21.4694 0,16.94272 -16.42539,2.97467 0,-17.71872 -15.26138,-3.10401 -1.81067,19.27073 z"
         style=""
         id="path4166" />
      <path
         d="m -502.96088,591.08997 0,-0.90534 0,-16.55472 1.42267,-13.70937 -2.32801,-15.39071 2.71601,-13.70938 -1.42267,-16.55472 -8.53603,13.58005 -5.94935,16.81338 0,47.46548 -20.82273,-3.36268 -1.42267,-10.3467 0,-31.16943 6.72536,-22.2454 10.86403,-12.54537 12.80404,-11.5107 27.41875,-3.10401 -1.81067,16.94272 0,14.48538 -1.81068,15.52004 3.36268,14.22671 -2.58667,14.74405 1.29333,16.29605 -19.91739,1.03467 z"
         style=""
         id="path4168" />
      <path
         d="m -451.6942,558.49787 -0.12934,-1.29334 14.09738,0 1.55201,-23.4094 -8.53603,-21.72807 -4.65601,22.50407 -2.32801,23.92674 z m 0.25867,31.94543 0.25866,-1.94001 -18.49472,1.16401 -2.32801,-18.10673 3.88002,-22.50406 1.94,-21.4694 6.07869,-14.35605 7.11335,-15.13204 19.14139,0 8.27736,16.68405 4.26801,12.93337 1.94001,22.89207 1.42267,21.4694 0,16.94272 -16.42538,2.97467 0,-17.71872 -15.26138,-3.10401 -1.81067,19.27073 z"
         style=""
         id="path4170" />
      <path
         d="m -404.35201,591.08997 0.388,-2.45734 0.77601,-12.41604 -1.55201,-17.46005 -1.03467,-14.87338 2.32801,-14.87338 -0.90534,-14.48538 0,-16.81338 20.82273,1.164 -2.32801,16.16672 2.71601,17.58938 13.70938,-1.68133 0,-32.85077 20.30539,0 0,18.36539 -1.29333,11.76937 -1.42268,18.36539 0,27.28941 3.23335,18.10672 -19.78806,0 0,-17.20138 -1.16401,-12.02804 0,-14.48538 -16.94271,0 3.36267,13.32138 -2.58667,13.45071 1.29334,15.00271 -19.9174,1.03467 z"
         style=""
         id="path4172" />
      <path
         d="m -281.96995,536.12313 0,-0.90533 -19.40006,-1.68134 0.90533,-10.08803 -9.95869,-8.92403 -5.04402,9.05336 -1.42267,12.67471 0,28.71208 8.66536,8.4067 7.88936,-5.94935 -1.55201,-18.88273 18.49472,3.23334 0,8.66536 -5.43201,23.15074 -18.88273,9.5707 -21.46939,-6.85469 -5.69069,-27.03075 -1.81067,-14.22671 0,-16.68405 4.39735,-23.4094 24.5734,-7.50136 18.75339,6.20802 7.50136,24.96141 -0.51733,7.50135 z"
         style=""
         id="path4174" />
      <path
         d="m -264.44626,516.85241 -0.12933,-2.32801 -13.06271,1.94001 -1.03467,-18.36539 17.07205,0 15.77872,3.23334 14.09737,-3.36267 -1.42267,19.78806 -13.45071,-2.19868 0,14.09738 2.97468,17.84805 0,26.25475 -1.55201,16.68405 -19.91739,0 -1.42267,-15.13205 3.36268,-15.77871 -2.58668,-15.13205 1.29334,-13.70937 0,-13.83871 z"
         style=""
         id="path4176" />
      <path
         d="m -221.97728,556.55786 0.25866,1.81067 19.27073,-1.03467 -1.29334,7.37203 8.7947,9.18269 5.43201,-8.14802 0,-14.48538 -15.52004,-2.71601 0,-14.09737 19.01205,-1.68134 -3.49201,-9.1827 -7.88936,-6.98402 -6.46668,6.46669 1.552,2.71601 -20.95206,0 6.07869,-20.17607 21.21073,-7.63068 19.65872,6.07868 9.82937,23.15074 -1.81068,17.97738 0,13.83871 -6.98402,25.60808 -20.43473,5.56135 -21.8574,-6.59602 -6.98402,-22.37473 2.58668,-4.65602 z"
         style=""
         id="path4178" />
      <path
         d="m -135.50154,549.57384 -0.25867,-0.64667 7.37203,0 7.50135,-16.55471 -8.27736,-16.81339 -7.63069,-0.388 1.29334,17.20139 0,17.20138 z m -17.46005,39.05879 -1.55201,-0.12934 0.90534,-13.96804 -2.32801,-15.52005 2.71601,-13.96804 -1.42267,-16.81338 0,-30.13476 26.25475,0 17.20138,6.33735 8.14803,7.11336 1.68133,22.37473 -6.07868,22.6334 -18.88273,7.88936 -7.88935,2.19867 0,25.09075 -18.75339,-3.10401 z"
         style=""
         id="path4180" />
    </g>
    <g
       style="font-style:normal;font-variant:normal;font-weight:normal;font-stretch:normal;font-size:38.829216px;line-height:125%;font-family:'Ubuntu Mono';-inkscape-font-specification:'Ubuntu Mono';letter-spacing:0px;word-spacing:0px;fill:#333333;fill-opacity:1;stroke:none"
       id="text2993">
      <path
         d="m -328.17998,632.1272 0,-15.33754 -3.80527,0 0,-2.67922 3.80527,0 0,-1.63083 q 0,-2.09677 0.58243,-3.4558 0.58244,-1.39785 1.51434,-2.25209 0.97073,-0.85424 2.21327,-1.20371 1.28136,-0.34946 2.67921,-0.34946 1.39786,0 2.79571,0.31063 1.43668,0.31064 2.67921,0.73776 l -0.58243,2.75687 q -0.85425,-0.42712 -2.13561,-0.73775 -1.28137,-0.31064 -2.60156,-0.31064 -0.81541,0 -1.55317,0.23298 -0.69892,0.19415 -1.24253,0.73776 -0.54361,0.50478 -0.85424,1.39785 -0.31064,0.85424 -0.31064,2.17443 l 0,1.592 7.26106,0 0,2.67922 -7.26106,0 0,15.33754 -3.18399,0 z"
         style=""
         id="path4139" />
      <path
         d="m -305.11543,629.83627 q 1.20371,0 2.13561,-0.0777 0.97073,-0.0777 1.59199,-0.19415 l 0,-5.35843 q -0.62126,-0.19415 -1.51433,-0.31064 -0.85425,-0.11648 -1.82498,-0.11648 -0.89307,0 -1.74731,0.15531 -0.85425,0.11649 -1.51434,0.46595 -0.6601,0.34947 -1.08722,0.9319 -0.42712,0.54361 -0.42712,1.39786 0,1.74731 1.16488,2.44624 1.2037,0.66009 3.22282,0.66009 z m -0.31063,-16.15295 q 2.01912,0 3.37814,0.50478 1.39785,0.50478 2.25209,1.39785 0.85425,0.89307 1.20371,2.17444 0.34946,1.28136 0.34946,2.7957 l 0,11.26047 q -1.12605,0.19415 -2.98985,0.46595 -1.82497,0.27181 -3.76643,0.27181 -1.47551,0 -2.87336,-0.27181 -1.39786,-0.23297 -2.48507,-0.85424 -1.08722,-0.6601 -1.74732,-1.78614 -0.6601,-1.12605 -0.6601,-2.87336 0,-1.55317 0.6601,-2.60156 0.69893,-1.08722 1.74732,-1.74732 1.08721,-0.66009 2.44624,-0.9319 1.39785,-0.31063 2.7957,-0.31063 1.90263,0 3.7276,0.42712 l 0,-0.89307 q 0,-0.81542 -0.19414,-1.55317 -0.15532,-0.77659 -0.6601,-1.39785 -0.46595,-0.62127 -1.32019,-0.97073 -0.81541,-0.3883 -2.13561,-0.3883 -1.66965,0 -2.91219,0.23298 -1.24253,0.23298 -1.90263,0.46595 l -0.38829,-2.64039 q 0.66009,-0.31063 2.17443,-0.54361 1.55317,-0.23297 3.30049,-0.23297 z"
         style=""
         id="path4141" />
      <path
         d="m -282.478,632.55432 q -1.70848,0 -2.83453,-0.46595 -1.12605,-0.46595 -1.78614,-1.39785 -0.6601,-0.9319 -0.9319,-2.29093 -0.27181,-1.39785 -0.27181,-3.22282 l 0,-17.04603 -5.20311,0 0,-2.71804 8.38711,0 0,19.76407 q 0,1.35902 0.15531,2.21326 0.19415,0.85425 0.54361,1.39785 0.38829,0.50478 0.9319,0.69893 0.54361,0.19415 1.28137,0.19415 1.12604,0 2.09678,-0.27181 0.97073,-0.2718 1.51433,-0.58244 l 0.46596,2.71805 q -0.23298,0.11649 -0.6601,0.31063 -0.42712,0.15532 -1.00956,0.31064 -0.58244,0.15531 -1.28137,0.2718 -0.66009,0.11649 -1.39785,0.11649 z"
         style=""
         id="path4143" />
      <path
         d="m -266.28621,629.83627 q 1.2037,0 2.1356,-0.0777 0.97073,-0.0777 1.592,-0.19415 l 0,-5.35843 q -0.62127,-0.19415 -1.51434,-0.31064 -0.85424,-0.11648 -1.82497,-0.11648 -0.89307,0 -1.74732,0.15531 -0.85424,0.11649 -1.51434,0.46595 -0.66009,0.34947 -1.08721,0.9319 -0.42713,0.54361 -0.42713,1.39786 0,1.74731 1.16488,2.44624 1.20371,0.66009 3.22283,0.66009 z m -0.31064,-16.15295 q 2.01912,0 3.37814,0.50478 1.39786,0.50478 2.2521,1.39785 0.85424,0.89307 1.2037,2.17444 0.34947,1.28136 0.34947,2.7957 l 0,11.26047 q -1.12605,0.19415 -2.98985,0.46595 -1.82498,0.27181 -3.76644,0.27181 -1.47551,0 -2.87336,-0.27181 -1.39785,-0.23297 -2.48507,-0.85424 -1.08722,-0.6601 -1.74731,-1.78614 -0.6601,-1.12605 -0.6601,-2.87336 0,-1.55317 0.6601,-2.60156 0.69892,-1.08722 1.74731,-1.74732 1.08722,-0.66009 2.44624,-0.9319 1.39785,-0.31063 2.79571,-0.31063 1.90263,0 3.7276,0.42712 l 0,-0.89307 q 0,-0.81542 -0.19415,-1.55317 -0.15531,-0.77659 -0.66009,-1.39785 -0.46595,-0.62127 -1.3202,-0.97073 -0.81541,-0.3883 -2.1356,-0.3883 -1.66966,0 -2.91219,0.23298 -1.24254,0.23298 -1.90263,0.46595 l -0.3883,-2.64039 q 0.6601,-0.31063 2.17444,-0.54361 1.55317,-0.23297 3.30048,-0.23297 z"
         style=""
         id="path4145" />
      <path
         d="m -254.01618,614.61522 q 1.74731,-0.42712 3.4558,-0.6601 1.74731,-0.23297 3.26165,-0.23297 3.61112,0 5.43609,1.8638 1.86381,1.8638 1.86381,5.9797 l 0,10.56155 -3.184,0 0,-9.97911 q 0,-1.74732 -0.31063,-2.83453 -0.31064,-1.08722 -0.89308,-1.66966 -0.54361,-0.62127 -1.35902,-0.85424 -0.77658,-0.23298 -1.70848,-0.23298 -0.77659,0 -1.66966,0.11649 -0.85424,0.0777 -1.66966,0.23297 l 0,15.22106 -3.22282,0 0,-17.51198 z"
         style=""
         id="path4147" />
      <path
         d="m -223.72939,627.62301 q 0,-0.97073 -0.81541,-1.592 -0.77659,-0.62127 -1.98029,-1.08722 -1.16488,-0.46595 -2.56273,-0.89307 -1.39785,-0.46595 -2.60156,-1.12605 -1.16488,-0.66009 -1.98029,-1.63082 -0.77658,-0.97073 -0.77658,-2.5239 0,-2.17444 1.74731,-3.61112 1.78615,-1.47551 5.55258,-1.47551 1.47551,0 3.02868,0.23297 1.592,0.19415 2.71804,0.54361 l -0.58243,2.87337 q -0.31064,-0.15532 -0.85425,-0.31064 -0.54361,-0.19414 -1.24253,-0.31063 -0.69893,-0.15532 -1.51434,-0.23298 -0.77659,-0.0777 -1.51434,-0.0777 -4.19356,0 -4.19356,2.29093 0,0.81541 0.77659,1.39785 0.81541,0.54361 2.01912,1.00956 1.2037,0.46595 2.60155,0.97073 1.39786,0.46595 2.60156,1.16488 1.20371,0.69892 1.98029,1.70848 0.81542,0.97073 0.81542,2.48507 0,2.44624 -1.90264,3.80527 -1.90263,1.32019 -6.01852,1.32019 -1.86381,0 -3.41698,-0.31064 -1.55316,-0.31063 -2.95102,-0.9319 l 0.62127,-2.91219 q 1.35902,0.62127 2.83453,1.04839 1.51434,0.38829 3.22283,0.38829 4.3877,0 4.3877,-2.21326 z"
         style=""
         id="path4149" />
      <path
         d="m -208.50834,614.11044 7.61053,0 0,2.67922 -7.61053,0 0,8.38711 q 0,1.35902 0.19415,2.21326 0.19414,0.85425 0.62126,1.39785 0.46595,0.50478 1.16488,0.69893 0.69893,0.19415 1.70848,0.19415 1.39786,0 2.2521,-0.23298 0.85424,-0.23297 1.63083,-0.62127 l 0.46595,2.71805 q -0.54361,0.23297 -1.74732,0.62127 -1.16487,0.38829 -2.91219,0.38829 -2.01912,0 -3.30048,-0.46595 -1.28137,-0.46595 -2.01912,-1.39785 -0.69893,-0.9319 -0.97073,-2.29093 -0.27181,-1.39785 -0.27181,-3.22282 l 0,-8.38711 -3.80526,0 0,-2.67922 3.80526,0 0,-5.0478 3.184,-0.54361 0,5.59141 z"
         style=""
         id="path4151" />
      <path
         d="m -188.47247,613.68332 q 3.64995,0 5.63024,2.29092 1.98029,2.2521 1.98029,6.87277 l 0,1.12605 -12.8913,0 q 0.19414,2.79571 1.82497,4.27122 1.66966,1.43668 4.65951,1.43668 1.70848,0 2.91219,-0.27181 1.2037,-0.2718 1.82497,-0.58244 l 0.42712,2.71805 q -0.58244,0.31063 -2.09678,0.6601 -1.51433,0.34946 -3.41697,0.34946 -2.32975,0 -4.11589,-0.69893 -1.74732,-0.73775 -2.91219,-1.98029 -1.16488,-1.24253 -1.74732,-2.95102 -0.58244,-1.74731 -0.58244,-3.76643 0,-2.40741 0.73776,-4.19356 0.73775,-1.78614 1.94146,-2.95102 1.2037,-1.16487 2.71804,-1.74731 1.51434,-0.58244 3.10634,-0.58244 z m 4.34887,7.68818 q 0,-2.29092 -1.2037,-3.61111 -1.20371,-1.35903 -3.184,-1.35903 -1.12605,0 -2.05795,0.42713 -0.89307,0.42712 -1.55317,1.12604 -0.66009,0.69893 -1.04838,1.592 -0.3883,0.89307 -0.50478,1.82497 l 9.55198,0 z"
         style=""
         id="path4153" />
      <path
         d="m -174.9599,632.1272 0,-17.04603 q 3.96058,-1.35902 7.99882,-1.35902 1.24254,0 2.36858,0.11649 1.12605,0.0776 2.48507,0.38829 l -0.58244,2.83453 q -1.24253,-0.34946 -2.21326,-0.42712 -0.9319,-0.11649 -2.05795,-0.11649 -2.36858,0 -4.81482,0.6601 l 0,14.94925 -3.184,0 z"
         style=""
         id="path4155" />
      <path
         d="m -147.11935,629.64213 q 0,1.16487 -0.77658,2.05795 -0.77658,0.89307 -2.05795,0.89307 -1.32019,0 -2.09678,-0.89307 -0.77658,-0.89308 -0.77658,-2.05795 0,-1.20371 0.77658,-2.09678 0.77659,-0.89307 2.09678,-0.89307 1.28137,0 2.05795,0.89307 0.77658,0.89307 0.77658,2.09678 z"
         style=""
         id="path4157" />
      <path
         d="m -134.3057,614.77054 q 0.58244,-0.34947 1.66966,-0.69893 1.12604,-0.38829 2.48506,-0.38829 1.82498,0 3.26166,0.69893 1.43668,0.69892 2.40741,1.94146 1.00956,1.24253 1.51434,2.98985 0.54361,1.70848 0.54361,3.80526 0,2.17444 -0.62127,3.92175 -0.62127,1.74731 -1.74731,2.98985 -1.12605,1.20371 -2.71805,1.8638 -1.592,0.6601 -3.53346,0.6601 -2.1356,0 -3.80526,-0.31064 -1.66966,-0.31063 -2.67922,-0.62126 l 0,-25.86026 3.22283,-0.54361 0,9.55199 z m 0,14.56095 q 0.73775,0.19415 1.47551,0.31064 0.73775,0.0777 1.39785,0.0777 2.67922,0 4.19356,-1.63083 1.51434,-1.66966 1.51434,-4.97014 0,-1.39785 -0.27181,-2.60156 -0.2718,-1.24253 -0.85424,-2.09678 -0.58244,-0.89307 -1.51434,-1.39785 -0.89307,-0.50478 -2.17444,-0.50478 -1.12604,0 -2.17443,0.46595 -1.04839,0.42712 -1.592,0.9319 l 0,11.41579 z"
         style=""
         id="path4159" />
      <path
         d="m -118.89051,635.50534 q 0.34946,0.19415 0.97073,0.31063 0.66009,0.11649 1.2037,0.11649 1.90263,0 2.95102,-0.85424 1.08722,-0.81542 1.98029,-2.71805 -2.17443,-4.11589 -4.07706,-8.81423 -1.90264,-4.73716 -3.14517,-9.4355 l 3.49463,0 q 0.38829,1.55317 0.89307,3.37814 0.54361,1.78615 1.20371,3.68878 0.66009,1.90263 1.39785,3.84409 0.77658,1.90263 1.63082,3.64995 0.62127,-1.78615 1.16488,-3.53346 0.54361,-1.74732 1.00956,-3.49463 0.46595,-1.78614 0.9319,-3.61112 0.46595,-1.8638 0.97073,-3.92175 l 3.33931,0 q -1.24253,5.0478 -2.7957,9.78496 -1.51434,4.73717 -3.26165,8.77541 -0.6601,1.55316 -1.43668,2.67921 -0.73776,1.12605 -1.63083,1.8638 -0.89307,0.73776 -2.01912,1.08722 -1.12605,0.34947 -2.56273,0.34947 -0.73775,0 -1.63083,-0.19415 -0.85424,-0.19415 -1.16487,-0.34946 l 0.58244,-2.60156 z"
         style=""
         id="path4161" />
    </g>
  </g>
</svg>
