<?xml version="1.0" encoding="UTF-8" standalone="no"?>
<!-- Created with Inkscape (http://www.inkscape.org/) -->

<svg
   xmlns:dc="http://purl.org/dc/elements/1.1/"
   xmlns:cc="http://creativecommons.org/ns#"
   xmlns:rdf="http://www.w3.org/1999/02/22-rdf-syntax-ns#"
   xmlns:svg="http://www.w3.org/2000/svg"
   xmlns="http://www.w3.org/2000/svg"
   xmlns:sodipodi="http://sodipodi.sourceforge.net/DTD/sodipodi-0.dtd"
   xmlns:inkscape="http://www.inkscape.org/namespaces/inkscape"
   width="210mm"
   height="297mm"
   viewBox="0 0 744.09448 1052.3622"
   id="svg5067"
   version="1.1"
   inkscape:version="0.91 r13725"
   sodipodi:docname="pure-falanster.svg">
  <defs
     id="defs5069" />
  <sodipodi:namedview
     id="base"
     pagecolor="#ffffff"
     bordercolor="#666666"
     borderopacity="1.0"
     inkscape:pageopacity="0.0"
     inkscape:pageshadow="2"
     inkscape:zoom="0.35"
     inkscape:cx="312.95814"
     inkscape:cy="416.61038"
     inkscape:document-units="px"
     inkscape:current-layer="layer1"
     showgrid="false"
     inkscape:window-width="1301"
     inkscape:window-height="744"
     inkscape:window-x="65"
     inkscape:window-y="24"
     inkscape:window-maximized="1" />
  <metadata
     id="metadata5072">
    <rdf:RDF>
      <cc:Work
         rdf:about="">
        <dc:format>image/svg+xml</dc:format>
        <dc:type
           rdf:resource="http://purl.org/dc/dcmitype/StillImage" />
        <dc:title></dc:title>
      </cc:Work>
    </rdf:RDF>
  </metadata>
  <g
     inkscape:label="Layer 1"
     inkscape:groupmode="layer"
     id="layer1"
     transform="translate(0,-3.464567e-6)">
    <path
       style="font-style:normal;font-variant:normal;font-weight:600;font-stretch:normal;font-size:medium;line-height:125%;font-family:a_AlternaBrk;-inkscape-font-specification:'a_AlternaBrk Semi-Bold';letter-spacing:0px;word-spacing:0px;fill:#ff6600;fill-opacity:1;stroke:none"
       id="path4164"
       d="m 159.70543,142.23095 -3.31158,2.70947 0,67.7371 18.36428,0 19.26744,-38.23383 -28.60011,-31.61066 -5.72003,-0.60208 z m -43.35172,-66.833946 -6.02109,-0.30105 49.97493,4.5158 0,24.686416 14.75162,-4.515816 50.87809,19.869556 10.23583,57.50126 -16.25689,62.31813 -42.14753,12.3432 -24.98746,1.50526 7.52634,32.21277 -52.38336,0 0,-32.21277 L 88.656756,252.11557 48.315544,232.246 28.446012,176.55106 45.003955,124.1677 l 48.770729,-22.57903 14.450546,0 8.12848,-26.191666 z m 0,67.436026 0,0.90318 -20.170593,-2.40844 -26.793811,39.13699 25.288533,37.63173 20.170591,-8.12847 -2.7095,-28.60011 4.21478,-38.53488 z"
       inkscape:connector-curvature="0" />
    <path
       style="font-style:normal;font-variant:normal;font-weight:600;font-stretch:normal;font-size:medium;line-height:125%;font-family:a_AlternaBrk;-inkscape-font-specification:'a_AlternaBrk Semi-Bold';letter-spacing:0px;word-spacing:0px;fill:#ff6600;fill-opacity:1;stroke:none"
       id="path4166"
       d="m 301.45235,212.67752 -0.30104,-3.01055 32.81486,0 3.61264,-54.49072 -19.86956,-50.57704 -10.83792,52.38335 -5.41898,55.69496 z m 0.60211,74.36028 0.60212,-4.51582 -43.05068,2.70949 -5.41897,-42.14754 9.0316,-52.38334 4.51582,-49.97492 14.14951,-33.41698 16.55797,-35.223278 44.55596,0 19.26744,38.835928 9.93477,30.10537 4.51578,53.28652 3.31162,49.97493 0,39.43805 -38.23384,6.92422 0,-41.24436 -35.52435,-7.2253 -4.21475,44.85703 z"
       inkscape:connector-curvature="0" />
    <path
       style="font-style:normal;font-variant:normal;font-weight:600;font-stretch:normal;font-size:medium;line-height:125%;font-family:a_AlternaBrk;-inkscape-font-specification:'a_AlternaBrk Semi-Bold';letter-spacing:0px;word-spacing:0px;fill:#ff6600;fill-opacity:1;stroke:none"
       id="path4168"
       d="m 490.52119,288.54306 0,-2.10738 0,-38.53489 3.31159,-31.91168 -5.41898,-35.82539 6.32214,-31.91171 -3.31159,-38.53489 -19.86956,31.61065 -13.84847,39.13699 0,110.48674 -48.46965,-7.82741 -3.31159,-24.0843 0,-72.55397 15.6548,-51.78124 25.28852,-29.20221 29.80432,-26.793776 63.8234,-7.225299 -4.21475,39.438045 0,33.71802 -4.21477,36.12645 7.8274,33.11591 -6.02106,34.32014 3.01052,37.93278 -46.36227,2.40842 z"
       inkscape:connector-curvature="0" />
    <path
       style="font-style:normal;font-variant:normal;font-weight:600;font-stretch:normal;font-size:medium;line-height:125%;font-family:a_AlternaBrk;-inkscape-font-specification:'a_AlternaBrk Semi-Bold';letter-spacing:0px;word-spacing:0px;fill:#ff6600;fill-opacity:1;stroke:none"
       id="path4170"
       d="m 609.85608,212.67752 -0.30106,-3.01055 32.81487,0 3.61265,-54.49072 -19.86956,-50.57704 -10.83793,52.38335 -5.41897,55.69496 z m 0.60212,74.36028 0.60209,-4.51582 -43.05068,2.70949 -5.41898,-42.14754 9.03163,-52.38334 4.5158,-49.97492 14.14954,-33.41698 16.55794,-35.223278 44.55596,0 19.26744,38.835928 9.93475,30.10537 4.5158,53.28652 3.31166,49.97493 0,39.43805 -38.23386,6.92422 0,-41.24436 -35.52434,-7.2253 -4.21475,44.85703 z"
       inkscape:connector-curvature="0" />
    <path
       style="font-style:normal;font-variant:normal;font-weight:600;font-stretch:normal;font-size:medium;line-height:125%;font-family:a_AlternaBrk;-inkscape-font-specification:'a_AlternaBrk Semi-Bold';letter-spacing:0px;word-spacing:0px;fill:#ff6600;fill-opacity:1;stroke:none"
       id="path4172"
       d="m 46.692307,516.25486 0.850341,-5.38527 1.700614,-27.21002 -3.401228,-38.26405 -2.26753,-32.59536 5.101909,-32.5953 -1.984106,-31.74501 0,-36.84686 45.633484,2.55092 -5.101902,35.4297 5.952176,38.54749 30.044415,-3.68467 0,-71.99314 44.49965,0 0,40.24814 -2.83431,25.79281 -3.11787,40.2481 0,59.80532 7.08595,39.68124 -43.36596,0 0,-37.69713 -2.55095,-26.35969 0,-31.74502 -37.130291,0 7.369366,29.19407 -5.668752,29.47748 2.834373,32.87879 -43.649379,2.26746 z"
       inkscape:connector-curvature="0" />
    <path
       style="font-style:normal;font-variant:normal;font-weight:600;font-stretch:normal;font-size:medium;line-height:125%;font-family:a_AlternaBrk;-inkscape-font-specification:'a_AlternaBrk Semi-Bold';letter-spacing:0px;word-spacing:0px;fill:#ff6600;fill-opacity:1;stroke:none"
       id="path4174"
       d="m 314.89517,395.79389 0,-1.98404 -42.51568,-3.68467 1.98404,-22.10813 -21.82463,-19.5572 -11.05409,19.84063 -3.1178,27.7769 0,62.92312 18.99031,18.42346 17.2897,-13.03813 -3.4013,-41.38192 40.53158,7.08595 0,18.99031 -11.90436,50.73533 -41.38186,20.97435 -47.05061,-15.02217 -12.47128,-59.23846 -3.96814,-31.1781 0,-36.56345 9.6369,-51.30218 53.85313,-16.43939 41.09843,13.60501 16.43936,54.70344 -1.1337,16.43934 z"
       inkscape:connector-curvature="0" />
    <path
       style="font-style:normal;font-variant:normal;font-weight:600;font-stretch:normal;font-size:medium;line-height:125%;font-family:a_AlternaBrk;-inkscape-font-specification:'a_AlternaBrk Semi-Bold';letter-spacing:0px;word-spacing:0px;fill:#ff6600;fill-opacity:1;stroke:none"
       id="path4176"
       d="m 353.29865,353.56173 -0.28342,-5.10188 -28.62722,4.25158 -2.26746,-40.24814 37.41371,0 34.57939,7.08594 30.89468,-7.36937 -3.1178,43.36595 -29.47749,-4.81846 0,30.8947 6.5191,39.1144 0,57.53779 -3.4013,36.56343 -43.64938,0 -3.1178,-33.16221 7.36937,-34.57933 -5.66876,-33.1622 2.83438,-30.04437 0,-30.32783 z"
       inkscape:connector-curvature="0" />
    <path
       style="font-style:normal;font-variant:normal;font-weight:600;font-stretch:normal;font-size:medium;line-height:125%;font-family:a_AlternaBrk;-inkscape-font-specification:'a_AlternaBrk Semi-Bold';letter-spacing:0px;word-spacing:0px;fill:#ff6600;fill-opacity:1;stroke:none"
       id="path4178"
       d="m 446.37032,440.57703 0.56685,3.96815 42.2322,-2.26753 -2.83438,16.156 19.2738,20.12401 11.90437,-17.85655 0,-31.74502 -34.01255,-5.95218 0,-30.89468 41.66534,-3.68467 -7.65279,-20.12408 -17.2897,-15.30563 -14.1719,14.17189 3.40123,5.95219 -45.91684,0 13.32155,-44.21627 46.48376,-16.7228 43.08247,13.32156 21.54127,50.73532 -3.96815,39.3978 0,30.32783 -15.30559,56.1206 -44.78315,12.18785 -47.90095,-14.45532 -15.30559,-49.03471 5.66875,-10.20376 z"
       inkscape:connector-curvature="0" />
    <path
       style="font-style:normal;font-variant:normal;font-weight:600;font-stretch:normal;font-size:medium;line-height:125%;font-family:a_AlternaBrk;-inkscape-font-specification:'a_AlternaBrk Semi-Bold';letter-spacing:0px;word-spacing:0px;fill:#ff6600;fill-opacity:1;stroke:none"
       id="path4180"
       d="m 635.88366,425.27144 -0.56685,-1.41719 16.15593,0 16.43936,-36.28001 -18.13997,-36.84689 -16.72285,-0.85031 2.83438,37.6972 0,37.6972 z m -38.26405,85.59815 -3.40123,-0.28349 1.98404,-30.61125 -5.10184,-34.01248 5.95218,-30.61125 -3.11781,-36.84688 0,-66.04095 57.53779,0 37.69723,13.88844 17.85648,15.58907 3.68472,49.03468 -13.32155,49.60155 -41.38189,17.2897 -17.28969,4.81842 0,54.9869 -41.09843,-6.80246 z"
       inkscape:connector-curvature="0" />
    <path
       style="font-style:normal;font-variant:normal;font-weight:600;font-stretch:normal;font-size:medium;line-height:125%;font-family:a_AlternaBrk;-inkscape-font-specification:'a_AlternaBrk Semi-Bold';letter-spacing:0px;word-spacing:0px;fill:#ff6600;fill-opacity:1;stroke:none"
       id="path4164-3"
       d="m 167.26969,627.02801 -3.31158,2.70947 0,67.7371 18.36428,0 19.26744,-38.23383 -28.60011,-31.61066 -5.72003,-0.60208 z m -43.35172,-66.83394 -6.02109,-0.30105 49.97493,4.5158 0,24.68641 14.75162,-4.51581 50.87809,19.86955 10.23583,57.50126 -16.25689,62.31813 -42.14753,12.3432 -24.98746,1.50526 7.52634,32.21277 -52.38336,0 0,-32.21277 -19.267427,-1.20419 -40.34121,-19.86957 -19.86954,-55.69494 16.55795,-52.38336 48.770727,-22.57903 14.45054,0 8.12848,-26.19166 z m 0,67.43602 0,0.90318 -20.17059,-2.40844 -26.793807,39.13699 25.288527,37.63173 20.17059,-8.12847 -2.7095,-28.60011 4.21478,-38.53488 z"
       inkscape:connector-curvature="0" />
    <path
       style="font-style:normal;font-variant:normal;font-weight:600;font-stretch:normal;font-size:medium;line-height:125%;font-family:a_AlternaBrk;-inkscape-font-specification:'a_AlternaBrk Semi-Bold';letter-spacing:0px;word-spacing:0px;fill:#ff6600;fill-opacity:1;stroke:none"
       id="path4166-6"
       d="m 309.01661,697.47458 -0.30104,-3.01055 32.81486,0 3.61264,-54.49072 -19.86956,-50.57704 -10.83792,52.38335 -5.41898,55.69496 z m 0.60211,74.36028 0.60212,-4.51582 -43.05068,2.70949 -5.41897,-42.14754 9.0316,-52.38334 4.51582,-49.97492 14.14951,-33.41698 16.55797,-35.22327 44.55596,0 19.26744,38.83592 9.93477,30.10537 4.51578,53.28652 3.31162,49.97493 0,39.43805 -38.23384,6.92422 0,-41.24436 -35.52435,-7.2253 -4.21475,44.85703 z"
       inkscape:connector-curvature="0" />
    <path
       style="font-style:normal;font-variant:normal;font-weight:600;font-stretch:normal;font-size:medium;line-height:125%;font-family:a_AlternaBrk;-inkscape-font-specification:'a_AlternaBrk Semi-Bold';letter-spacing:0px;word-spacing:0px;fill:#ff6600;fill-opacity:1;stroke:none"
       id="path4168-7"
       d="m 498.08545,773.34012 0,-2.10738 0,-38.53489 3.31159,-31.91168 -5.41898,-35.82539 6.32214,-31.91171 -3.31159,-38.53489 -19.86956,31.61065 -13.84847,39.13699 0,110.48674 -48.46965,-7.82741 -3.31159,-24.0843 0,-72.55397 15.6548,-51.78124 25.28852,-29.20221 29.80432,-26.79377 63.8234,-7.2253 -4.21475,39.43804 0,33.71802 -4.21477,36.12645 7.8274,33.11591 -6.02106,34.32014 3.01052,37.93278 -46.36227,2.40842 z"
       inkscape:connector-curvature="0" />
    <path
       style="font-style:normal;font-variant:normal;font-weight:600;font-stretch:normal;font-size:medium;line-height:125%;font-family:a_AlternaBrk;-inkscape-font-specification:'a_AlternaBrk Semi-Bold';letter-spacing:0px;word-spacing:0px;fill:#ff6600;fill-opacity:1;stroke:none"
       id="path4170-5"
       d="m 617.42034,697.47458 -0.30106,-3.01055 32.81487,0 3.61265,-54.49072 -19.86956,-50.57704 -10.83793,52.38335 -5.41897,55.69496 z m 0.60212,74.36028 0.60209,-4.51582 -43.05068,2.70949 -5.41898,-42.14754 9.03163,-52.38334 4.5158,-49.97492 14.14954,-33.41698 16.55794,-35.22327 44.55596,0 19.26744,38.83592 9.93475,30.10537 4.5158,53.28652 3.31166,49.97493 0,39.43805 -38.23386,6.92422 0,-41.24436 -35.52434,-7.2253 -4.21475,44.85703 z"
       inkscape:connector-curvature="0" />
    <path
       style="font-style:normal;font-variant:normal;font-weight:600;font-stretch:normal;font-size:medium;line-height:125%;font-family:a_AlternaBrk;-inkscape-font-specification:'a_AlternaBrk Semi-Bold';letter-spacing:0px;word-spacing:0px;fill:#ff6600;fill-opacity:1;stroke:none"
       id="path4172-3"
       d="m 54.256573,1001.0519 0.85034,-5.38526 1.70061,-27.21 -3.40122,-38.2641 -2.26753,-32.5953 5.10191,-32.5953 -1.98411,-31.745 0,-36.84689 45.63348,2.55092 -5.1019,35.42967 5.952177,38.5475 30.04441,-3.6847 0,-71.99309 44.49965,0 0,40.24809 -2.83431,25.7929 -3.11787,40.2481 0,59.8053 7.08595,39.68116 -43.36596,0 0,-37.69706 -2.55095,-26.3597 0,-31.745 -37.130287,0 7.369367,29.194 -5.668747,29.4775 2.83437,32.8788 -43.64938,2.26746 z"
       inkscape:connector-curvature="0" />
    <path
       style="font-style:normal;font-variant:normal;font-weight:600;font-stretch:normal;font-size:medium;line-height:125%;font-family:a_AlternaBrk;-inkscape-font-specification:'a_AlternaBrk Semi-Bold';letter-spacing:0px;word-spacing:0px;fill:#ff6600;fill-opacity:1;stroke:none"
       id="path4174-5"
       d="m 322.45943,880.59094 0,-1.984 -42.51568,-3.6847 1.98404,-22.1081 -21.82463,-19.5572 -11.05409,19.8406 -3.1178,27.7769 0,62.9231 18.99031,18.4235 17.2897,-13.0382 -3.4013,-41.3819 40.53158,7.086 0,18.9903 -11.90436,50.7353 -41.38186,20.97436 -47.05061,-15.02216 -12.47128,-59.2385 -3.96814,-31.1781 0,-36.5634 9.6369,-51.3022 53.85313,-16.43938 41.09843,13.60498 16.43936,54.7035 -1.1337,16.4393 z"
       inkscape:connector-curvature="0" />
    <path
       style="font-style:normal;font-variant:normal;font-weight:600;font-stretch:normal;font-size:medium;line-height:125%;font-family:a_AlternaBrk;-inkscape-font-specification:'a_AlternaBrk Semi-Bold';letter-spacing:0px;word-spacing:0px;fill:#ff6600;fill-opacity:1;stroke:none"
       id="path4176-6"
       d="m 360.86291,838.35874 -0.28342,-5.1018 -28.62722,4.2515 -2.26746,-40.24809 37.41371,0 34.57939,7.08589 30.89468,-7.36932 -3.1178,43.36592 -29.47749,-4.8184 0,30.8947 6.5191,39.1144 0,57.5378 -3.4013,36.5634 -43.64938,0 -3.1178,-33.1622 7.36937,-34.5794 -5.66876,-33.1622 2.83438,-30.0443 0,-30.3279 z"
       inkscape:connector-curvature="0" />
    <path
       style="font-style:normal;font-variant:normal;font-weight:600;font-stretch:normal;font-size:medium;line-height:125%;font-family:a_AlternaBrk;-inkscape-font-specification:'a_AlternaBrk Semi-Bold';letter-spacing:0px;word-spacing:0px;fill:#ff6600;fill-opacity:1;stroke:none"
       id="path4178-2"
       d="m 453.93458,925.37404 0.56685,3.9682 42.2322,-2.2675 -2.83438,16.156 19.2738,20.124 11.90437,-17.8566 0,-31.745 -34.01255,-5.9522 0,-30.8947 41.66534,-3.6846 -7.65279,-20.1241 -17.2897,-15.3056 -14.1719,14.1719 3.40123,5.9521 -45.91684,0 13.32155,-44.2162 46.48376,-16.72282 43.08247,13.32152 21.54127,50.7354 -3.96815,39.3978 0,30.3278 -15.30559,56.1206 -44.78315,12.1878 -47.90095,-14.4553 -15.30559,-49.0347 5.66875,-10.2038 z"
       inkscape:connector-curvature="0" />
    <path
       style="font-style:normal;font-variant:normal;font-weight:600;font-stretch:normal;font-size:medium;line-height:125%;font-family:a_AlternaBrk;-inkscape-font-specification:'a_AlternaBrk Semi-Bold';letter-spacing:0px;word-spacing:0px;fill:#ff6600;fill-opacity:1;stroke:none"
       id="path4180-9"
       d="m 643.44792,910.06854 -0.56685,-1.4172 16.15593,0 16.43936,-36.28 -18.13997,-36.8469 -16.72285,-0.8503 2.83438,37.6972 0,37.6972 z m -38.26405,85.5981 -3.40123,-0.2835 1.98404,-30.6112 -5.10184,-34.0125 5.95218,-30.6113 -3.11781,-36.8468 0,-66.04099 57.53779,0 37.69723,13.88839 17.85648,15.5891 3.68472,49.0347 -13.32155,49.6015 -41.38189,17.2897 -17.28969,4.8185 0,54.98686 -41.09843,-6.80246 z"
       inkscape:connector-curvature="0" />
  </g>
</svg>
