<?xml version="1.0" encoding="UTF-8" standalone="no"?>
<!-- Created with Inkscape (http://www.inkscape.org/) -->

<svg
   xmlns:dc="http://purl.org/dc/elements/1.1/"
   xmlns:cc="http://creativecommons.org/ns#"
   xmlns:rdf="http://www.w3.org/1999/02/22-rdf-syntax-ns#"
   xmlns:svg="http://www.w3.org/2000/svg"
   xmlns="http://www.w3.org/2000/svg"
   xmlns:sodipodi="http://sodipodi.sourceforge.net/DTD/sodipodi-0.dtd"
   xmlns:inkscape="http://www.inkscape.org/namespaces/inkscape"
   width="210mm"
   height="297mm"
   viewBox="0 0 744.09448 1052.3622"
   id="svg5067"
   version="1.1"
   inkscape:version="0.91 r13725"
   sodipodi:docname="test2-a3-full.svg">
  <defs
     id="defs5069" />
  <sodipodi:namedview
     id="base"
     pagecolor="#ffffff"
     bordercolor="#666666"
     borderopacity="1.0"
     inkscape:pageopacity="0.0"
     inkscape:pageshadow="2"
     inkscape:zoom="0.35"
     inkscape:cx="312.95814"
     inkscape:cy="416.61038"
     inkscape:document-units="px"
     inkscape:current-layer="layer1"
     showgrid="false"
     inkscape:window-width="1301"
     inkscape:window-height="744"
     inkscape:window-x="65"
     inkscape:window-y="24"
     inkscape:window-maximized="1" />
  <metadata
     id="metadata5072">
    <rdf:RDF>
      <cc:Work
         rdf:about="">
        <dc:format>image/svg+xml</dc:format>
        <dc:type
           rdf:resource="http://purl.org/dc/dcmitype/StillImage" />
        <dc:title></dc:title>
      </cc:Work>
    </rdf:RDF>
  </metadata>
  <g
     inkscape:label="Layer 1"
     inkscape:groupmode="layer"
     id="layer1"
     transform="translate(0,-3.464567e-6)">
    <path
       style="font-style:normal;font-variant:normal;font-weight:600;font-stretch:normal;font-size:medium;line-height:125%;font-family:a_AlternaBrk;-inkscape-font-specification:'a_AlternaBrk Semi-Bold';letter-spacing:0px;word-spacing:0px;fill:#ff6600;fill-opacity:1;stroke:none"
       id="path4164"
       d="m 159.70543,142.23095 -3.31158,2.70947 0,67.7371 18.36428,0 19.26744,-38.23383 -28.60011,-31.61066 -5.72003,-0.60208 z m -43.35172,-66.833946 -6.02109,-0.30105 49.97493,4.5158 0,24.686416 14.75162,-4.515816 50.87809,19.869556 10.23583,57.50126 -16.25689,62.31813 -42.14753,12.3432 -24.98746,1.50526 7.52634,32.21277 -52.38336,0 0,-32.21277 L 88.656756,252.11557 48.315544,232.246 28.446012,176.55106 45.003955,124.1677 l 48.770729,-22.57903 14.450546,0 8.12848,-26.191666 z m 0,67.436026 0,0.90318 -20.170593,-2.40844 -26.793811,39.13699 25.288533,37.63173 20.170591,-8.12847 -2.7095,-28.60011 4.21478,-38.53488 z"
       inkscape:connector-curvature="0" />
    <path
       style="font-style:normal;font-variant:normal;font-weight:600;font-stretch:normal;font-size:medium;line-height:125%;font-family:a_AlternaBrk;-inkscape-font-specification:'a_AlternaBrk Semi-Bold';letter-spacing:0px;word-spacing:0px;fill:#ff6600;fill-opacity:1;stroke:none"
       id="path4166"
       d="m 301.45235,212.67752 -0.30104,-3.01055 32.81486,0 3.61264,-54.49072 -19.86956,-50.57704 -10.83792,52.38335 -5.41898,55.69496 z m 0.60211,74.36028 0.60212,-4.51582 -43.05068,2.70949 -5.41897,-42.14754 9.0316,-52.38334 4.51582,-49.97492 14.14951,-33.41698 16.55797,-35.223278 44.55596,0 19.26744,38.835928 9.93477,30.10537 4.51578,53.28652 3.31162,49.97493 0,39.43805 -38.23384,6.92422 0,-41.24436 -35.52435,-7.2253 -4.21475,44.85703 z"
       inkscape:connector-curvature="0" />
    <path
       style="font-style:normal;font-variant:normal;font-weight:600;font-stretch:normal;font-size:medium;line-height:125%;font-family:a_AlternaBrk;-inkscape-font-specification:'a_AlternaBrk Semi-Bold';letter-spacing:0px;word-spacing:0px;fill:#ff6600;fill-opacity:1;stroke:none"
       id="path4168"
       d="m 490.52119,288.54306 0,-2.10738 0,-38.53489 3.31159,-31.91168 -5.41898,-35.82539 6.32214,-31.91171 -3.31159,-38.53489 -19.86956,31.61065 -13.84847,39.13699 0,110.48674 -48.46965,-7.82741 -3.31159,-24.0843 0,-72.55397 15.6548,-51.78124 25.28852,-29.20221 29.80432,-26.793776 63.8234,-7.225299 -4.21475,39.438045 0,33.71802 -4.21477,36.12645 7.8274,33.11591 -6.02106,34.32014 3.01052,37.93278 -46.36227,2.40842 z"
       inkscape:connector-curvature="0" />
    <path
       style="font-style:normal;font-variant:normal;font-weight:600;font-stretch:normal;font-size:medium;line-height:125%;font-family:a_AlternaBrk;-inkscape-font-specification:'a_AlternaBrk Semi-Bold';letter-spacing:0px;word-spacing:0px;fill:#ff6600;fill-opacity:1;stroke:none"
       id="path4170"
       d="m 609.85608,212.67752 -0.30106,-3.01055 32.81487,0 3.61265,-54.49072 -19.86956,-50.57704 -10.83793,52.38335 -5.41897,55.69496 z m 0.60212,74.36028 0.60209,-4.51582 -43.05068,2.70949 -5.41898,-42.14754 9.03163,-52.38334 4.5158,-49.97492 14.14954,-33.41698 16.55794,-35.223278 44.55596,0 19.26744,38.835928 9.93475,30.10537 4.5158,53.28652 3.31166,49.97493 0,39.43805 -38.23386,6.92422 0,-41.24436 -35.52434,-7.2253 -4.21475,44.85703 z"
       inkscape:connector-curvature="0" />
    <path
       inkscape:connector-curvature="0"
       id="path4967"
       style="font-style:normal;font-variant:normal;font-weight:normal;font-stretch:normal;font-size:medium;line-height:125%;font-family:'Ubuntu Mono';-inkscape-font-specification:'Ubuntu Mono';letter-spacing:0px;word-spacing:0px;fill:#000000;fill-opacity:1;stroke:none;stroke-width:1px;stroke-linecap:butt;stroke-linejoin:miter;stroke-opacity:1"
       d="m 379.12161,405.4777 q 0,-8.85856 2.81226,-15.32677 2.81224,-6.46822 7.73369,-10.68656 4.92144,-4.21842 11.38962,-6.18695 6.60879,-2.1092 14.06126,-2.1092 4.78085,0 9.42106,0.70306 4.78083,0.56241 10.12411,2.24974 l -2.67163,9.98356 q -4.64022,-1.68741 -8.57739,-2.1092 -3.79652,-0.56248 -7.73369,-0.56248 -5.06205,0 -9.56166,1.40614 -4.49961,1.26554 -7.87432,4.21841 -3.23409,2.81221 -5.20266,7.45242 -1.96858,4.49969 -1.96858,10.96783 0,6.18702 1.82796,10.68656 1.82797,4.35901 5.06207,7.31188 3.3747,2.81228 8.01492,4.21842 4.64022,1.40613 10.26474,1.40613 4.49959,0 8.57736,-0.42187 4.21838,-0.56247 9.13982,-2.2498 l 1.68736,9.70229 q -4.92145,1.82793 -9.9835,2.531 -5.06206,0.84367 -10.96779,0.84367 -7.87431,0 -14.48311,-2.10921 -6.46819,-2.2498 -11.24902,-6.46814 -4.64022,-4.21841 -7.31186,-10.54596 -2.53102,-6.46822 -2.53102,-14.90497 z" />
    <path
       inkscape:connector-curvature="0"
       id="path4969"
       style="font-style:normal;font-variant:normal;font-weight:normal;font-stretch:normal;font-size:medium;line-height:125%;font-family:'Ubuntu Mono';-inkscape-font-specification:'Ubuntu Mono';letter-spacing:0px;word-spacing:0px;fill:#000000;fill-opacity:1;stroke:none;stroke-width:1px;stroke-linecap:butt;stroke-linejoin:miter;stroke-opacity:1"
       d="m 478.39415,429.66309 q 4.359,0 7.73371,-0.2812 3.51531,-0.2812 5.76512,-0.70307 l 0,-19.40458 q -2.24981,-0.70306 -5.4839,-1.12487 -3.09347,-0.42187 -6.60879,-0.42187 -3.2341,0 -6.32759,0.56247 -3.09346,0.42187 -5.48387,1.68734 -2.39043,1.26554 -3.93717,3.37474 -1.54673,1.96854 -1.54673,5.06202 0,6.32761 4.21839,8.85862 4.35898,2.3904 11.67083,2.3904 z m -1.12489,-58.49487 q 7.31186,0 12.2333,1.82793 5.06206,1.82794 8.15554,5.06208 3.09348,3.23408 4.35899,7.87429 1.26552,4.64021 1.26552,10.12416 l 0,40.7777 q -4.07778,0.70307 -10.82718,1.68734 -6.6088,0.98426 -13.63942,0.98426 -5.34331,0 -10.40535,-0.98426 -5.06205,-0.84368 -8.99922,-3.09348 -3.93715,-2.39041 -6.32757,-6.46821 -2.39041,-4.07775 -2.39041,-10.40537 0,-5.62448 2.39041,-9.42102 2.53103,-3.93715 6.32757,-6.32755 3.93717,-2.3904 8.8586,-3.37474 5.06207,-1.12486 10.12411,-1.12486 6.89003,0 13.49883,1.54673 l 0,-3.23408 q 0,-2.95294 -0.70307,-5.62455 -0.56245,-2.81226 -2.3904,-5.06207 -1.68737,-2.24981 -4.78084,-3.51535 -2.95287,-1.40606 -7.73371,-1.40606 -6.04634,0 -10.54594,0.84366 -4.4996,0.84367 -6.89003,1.68735 l -1.40613,-9.5617 q 2.39043,-1.12487 7.87433,-1.96854 5.6245,-0.84366 11.95207,-0.84366 z" />
    <path
       inkscape:connector-curvature="0"
       id="path4971"
       style="font-style:normal;font-variant:normal;font-weight:normal;font-stretch:normal;font-size:medium;line-height:125%;font-family:'Ubuntu Mono';-inkscape-font-specification:'Ubuntu Mono';letter-spacing:0px;word-spacing:0px;fill:#000000;fill-opacity:1;stroke:none;stroke-width:1px;stroke-linecap:butt;stroke-linejoin:miter;stroke-opacity:1"
       d="m 572.60466,428.11635 5.4839,0 0,27.98194 -10.9678,0 0,-18.13905 -44.29299,0 0,-65.24428 11.67086,0 0,55.40139 26.57579,0 0,-55.40139 11.53024,0 0,55.40139 z" />
    <path
       inkscape:connector-curvature="0"
       id="path4973"
       style="font-style:normal;font-variant:normal;font-weight:normal;font-stretch:normal;font-size:medium;line-height:125%;font-family:'Ubuntu Mono';-inkscape-font-specification:'Ubuntu Mono';letter-spacing:0px;word-spacing:0px;fill:#000000;fill-opacity:1;stroke:none;stroke-width:1px;stroke-linecap:butt;stroke-linejoin:miter;stroke-opacity:1"
       d="m 608.4609,405.61837 q -2.24981,0 -4.35901,0.2812 -1.96857,0.14067 -3.65592,0.84366 l 0,22.35746 q 1.1249,0.2812 3.51533,0.5624 2.39041,0.14067 4.21836,0.14067 4.64022,0 7.45248,-2.8122 2.95288,-2.95288 2.95288,-9.4211 0,-6.32754 -3.2341,-9.13982 -3.23409,-2.81227 -6.89002,-2.81227 z m -18.98272,-32.90341 10.96779,0 0,24.88845 q 1.54673,-0.42187 4.07777,-0.84366 2.67164,-0.56247 5.4839,-0.56247 3.93716,0 7.45246,1.26554 3.65593,1.12486 6.32758,3.65594 2.81225,2.531 4.359,6.60874 1.68734,4.07782 1.68734,9.7023 0,11.8115 -6.18696,16.8735 -6.04634,5.06208 -15.74861,5.06208 -4.92145,0 -9.42105,-0.70307 -4.359,-0.56247 -8.99922,-2.1092 l 0,-63.83815 z m 57.6512,65.24428 -10.96778,0 0,-65.24428 10.96778,0 0,65.24428 z" />
    <path
       inkscape:connector-curvature="0"
       id="path4975"
       style="font-style:normal;font-variant:normal;font-weight:normal;font-stretch:normal;font-size:medium;line-height:125%;font-family:'Ubuntu Mono';-inkscape-font-specification:'Ubuntu Mono';letter-spacing:0px;word-spacing:0px;fill:#000000;fill-opacity:1;stroke:none;stroke-width:1px;stroke-linecap:butt;stroke-linejoin:miter;stroke-opacity:1"
       d="m 692.26609,412.64898 q -1.96862,0 -3.79655,0 -1.6874,-0.14066 -3.23414,-0.28127 -4.07774,6.04636 -7.73368,12.93637 -3.65592,6.74942 -6.6088,12.65516 l -11.81145,0 q 1.54673,-3.65594 3.51531,-7.45248 1.96857,-3.93715 4.07776,-7.45241 2.10919,-3.65595 4.21838,-6.89009 2.1092,-3.37467 4.07777,-5.90568 -7.03063,-2.53108 -9.56166,-7.17129 -2.39041,-4.7808 -2.39041,-10.12416 0,-5.48388 1.96857,-9.56162 2.1092,-4.07781 5.76512,-6.74941 3.65594,-2.81228 8.57741,-4.21841 5.06201,-1.40607 10.96775,-1.40607 8.29617,0 13.92071,0.703 5.62448,0.70307 9.5616,1.828 l 0,64.40062 -11.6708,0 0,-25.31026 -9.84289,0 z m 9.84289,-31.35667 q -1.40614,-0.2812 -4.49961,-0.42188 -2.95288,-0.28119 -7.17122,-0.28119 -7.17129,0 -11.5303,2.95288 -4.35899,2.95287 -4.35899,9.28042 0,6.32761 4.49959,8.71801 4.49961,2.39042 11.6709,2.39042 l 11.38963,0 0,-22.63866 z" />
    <path
       style="font-style:normal;font-variant:normal;font-weight:600;font-stretch:normal;font-size:medium;line-height:125%;font-family:a_AlternaBrk;-inkscape-font-specification:'a_AlternaBrk Semi-Bold';letter-spacing:0px;word-spacing:0px;fill:#ff6600;fill-opacity:1;stroke:none"
       id="path4172"
       d="m 46.692307,801.96915 0.850341,-5.38527 1.700614,-27.21002 -3.401228,-38.26405 -2.26753,-32.59536 5.101909,-32.5953 -1.984106,-31.74501 0,-36.84686 45.633484,2.55092 -5.101902,35.4297 5.952176,38.54749 30.044415,-3.68467 0,-71.99314 44.49965,0 0,40.24814 -2.83431,25.79281 -3.11787,40.2481 0,59.80532 7.08595,39.68124 -43.36596,0 0,-37.69713 -2.55095,-26.35969 0,-31.74502 -37.130291,0 7.369366,29.19407 -5.668752,29.47748 2.834373,32.87879 -43.649379,2.26746 z"
       inkscape:connector-curvature="0" />
    <path
       style="font-style:normal;font-variant:normal;font-weight:600;font-stretch:normal;font-size:medium;line-height:125%;font-family:a_AlternaBrk;-inkscape-font-specification:'a_AlternaBrk Semi-Bold';letter-spacing:0px;word-spacing:0px;fill:#ff6600;fill-opacity:1;stroke:none"
       id="path4174"
       d="m 314.89517,681.50818 0,-1.98404 -42.51568,-3.68467 1.98404,-22.10813 -21.82463,-19.5572 -11.05409,19.84063 -3.1178,27.7769 0,62.92312 18.99031,18.42346 17.2897,-13.03813 -3.4013,-41.38192 40.53158,7.08595 0,18.99031 -11.90436,50.73533 -41.38186,20.97435 -47.05061,-15.02217 -12.47128,-59.23846 -3.96814,-31.1781 0,-36.56345 9.6369,-51.30218 53.85313,-16.43939 41.09843,13.60501 16.43936,54.70344 -1.1337,16.43934 z"
       inkscape:connector-curvature="0" />
    <path
       style="font-style:normal;font-variant:normal;font-weight:600;font-stretch:normal;font-size:medium;line-height:125%;font-family:a_AlternaBrk;-inkscape-font-specification:'a_AlternaBrk Semi-Bold';letter-spacing:0px;word-spacing:0px;fill:#ff6600;fill-opacity:1;stroke:none"
       id="path4176"
       d="m 353.29865,639.27602 -0.28342,-5.10188 -28.62722,4.25158 -2.26746,-40.24814 37.41371,0 34.57939,7.08594 30.89468,-7.36937 -3.1178,43.36595 -29.47749,-4.81846 0,30.8947 6.5191,39.1144 0,57.53779 -3.4013,36.56343 -43.64938,0 -3.1178,-33.16221 7.36937,-34.57933 -5.66876,-33.1622 2.83438,-30.04437 0,-30.32783 z"
       inkscape:connector-curvature="0" />
    <path
       style="font-style:normal;font-variant:normal;font-weight:600;font-stretch:normal;font-size:medium;line-height:125%;font-family:a_AlternaBrk;-inkscape-font-specification:'a_AlternaBrk Semi-Bold';letter-spacing:0px;word-spacing:0px;fill:#ff6600;fill-opacity:1;stroke:none"
       id="path4178"
       d="m 446.37032,726.29132 0.56685,3.96815 42.2322,-2.26753 -2.83438,16.156 19.2738,20.12401 11.90437,-17.85655 0,-31.74502 -34.01255,-5.95218 0,-30.89468 41.66534,-3.68467 -7.65279,-20.12408 -17.2897,-15.30563 -14.1719,14.17189 3.40123,5.95219 -45.91684,0 13.32155,-44.21627 46.48376,-16.7228 43.08247,13.32156 21.54127,50.73532 -3.96815,39.3978 0,30.32783 -15.30559,56.1206 -44.78315,12.18785 -47.90095,-14.45532 -15.30559,-49.03471 5.66875,-10.20376 z"
       inkscape:connector-curvature="0" />
    <path
       style="font-style:normal;font-variant:normal;font-weight:600;font-stretch:normal;font-size:medium;line-height:125%;font-family:a_AlternaBrk;-inkscape-font-specification:'a_AlternaBrk Semi-Bold';letter-spacing:0px;word-spacing:0px;fill:#ff6600;fill-opacity:1;stroke:none"
       id="path4180"
       d="m 635.88366,710.98573 -0.56685,-1.41719 16.15593,0 16.43936,-36.28001 -18.13997,-36.84689 -16.72285,-0.85031 2.83438,37.6972 0,37.6972 z m -38.26405,85.59815 -3.40123,-0.28349 1.98404,-30.61125 -5.10184,-34.01248 5.95218,-30.61125 -3.11781,-36.84688 0,-66.04095 57.53779,0 37.69723,13.88844 17.85648,15.58907 3.68472,49.03468 -13.32155,49.60155 -41.38189,17.2897 -17.28969,4.81842 0,54.9869 -41.09843,-6.80246 z"
       inkscape:connector-curvature="0" />
    <path
       inkscape:connector-curvature="0"
       id="path4977"
       style="font-style:normal;font-variant:normal;font-weight:normal;font-stretch:normal;font-size:medium;line-height:125%;font-family:'Ubuntu Mono';-inkscape-font-specification:'Ubuntu Mono';letter-spacing:0px;word-spacing:0px;fill:#000000;fill-opacity:1;stroke:none;stroke-width:1px;stroke-linecap:butt;stroke-linejoin:miter;stroke-opacity:1"
       d="m 81.293276,890.35024 q 0,3.97157 -0.264745,8.47263 -0.132439,4.36869 -0.661928,8.86975 -0.397184,4.36868 -1.191487,8.73737 -0.794301,4.23632 -2.118158,7.94308 -2.647714,7.54595 -8.075447,12.97375 -5.4278,5.42774 -15.489032,6.48685 l -1.588602,-9.26693 q 5.824917,-1.05911 9.13456,-4.23632 3.442014,-3.30964 5.427733,-7.94307 1.721041,-3.97157 2.515341,-9.00219 0.926673,-5.03062 1.323857,-10.59079 0.397117,-5.5601 0.397117,-11.12028 0,-5.5601 0,-10.45835 l 36.273425,0 0,61.42644 -10.987909,0 0,-52.29194 -14.694725,0 z" />
    <path
       inkscape:connector-curvature="0"
       id="path4979"
       style="font-style:normal;font-variant:normal;font-weight:normal;font-stretch:normal;font-size:medium;line-height:125%;font-family:'Ubuntu Mono';-inkscape-font-specification:'Ubuntu Mono';letter-spacing:0px;word-spacing:0px;fill:#000000;fill-opacity:1;stroke:none;stroke-width:1px;stroke-linecap:butt;stroke-linejoin:miter;stroke-opacity:1"
       d="m 150.00093,934.96385 q 7.67833,0 11.91465,-2.64764 4.23631,-2.78009 4.23631,-8.86982 0,-2.91246 -1.32385,-5.03061 -1.19149,-2.11816 -3.44202,-3.44202 -2.11816,-1.45623 -5.16299,-2.11816 -2.91246,-0.66186 -6.2221,-0.66186 -3.44201,0 -7.14877,0.26475 -3.57439,0.13244 -6.08966,0.7943 l 0,21.0492 q 1.5886,0.26475 5.5601,0.52949 4.10394,0.13244 7.67833,0.13244 z m -24.22641,-53.74811 10.98798,0 0,23.43204 q 2.11815,-0.39718 6.35447,-0.7943 4.23631,-0.52955 8.07545,-0.52955 5.29536,0 10.06123,1.19148 4.76587,1.05905 8.34026,3.44202 3.57438,2.3829 5.5601,6.22203 2.11816,3.8392 2.11816,9.13456 0,11.12035 -7.67826,15.88615 -7.54596,4.76587 -20.25491,4.76587 -6.22203,0 -12.04701,-0.66193 -5.69255,-0.52955 -11.51747,-1.98578 l 0,-60.10259 z" />
    <path
       inkscape:connector-curvature="0"
       id="path4981"
       style="font-style:normal;font-variant:normal;font-weight:normal;font-stretch:normal;font-size:medium;line-height:125%;font-family:'Ubuntu Mono';-inkscape-font-specification:'Ubuntu Mono';letter-spacing:0px;word-spacing:0px;fill:#000000;fill-opacity:1;stroke:none;stroke-width:1px;stroke-linecap:butt;stroke-linejoin:miter;stroke-opacity:1"
       d="m 239.36061,942.64218 -10.98791,0 0,-27.13886 -25.41789,0 0,27.13886 -10.98791,0 0,-61.42644 10.98791,0 0,25.02065 25.41789,0 0,-25.02065 10.98791,0 0,61.42644 z" />
    <path
       inkscape:connector-curvature="0"
       id="path4983"
       style="font-style:normal;font-variant:normal;font-weight:normal;font-stretch:normal;font-size:medium;line-height:125%;font-family:'Ubuntu Mono';-inkscape-font-specification:'Ubuntu Mono';letter-spacing:0px;word-spacing:0px;fill:#000000;fill-opacity:1;stroke:none;stroke-width:1px;stroke-linecap:butt;stroke-linejoin:miter;stroke-opacity:1"
       d="m 272.5892,912.19374 q -2.11816,0 -4.10394,0.26475 -1.85342,0.13244 -3.44202,0.7943 l 0,21.0492 q 1.05912,0.26475 3.30965,0.52949 2.25053,0.13244 3.9715,0.13244 4.36869,0 7.0164,-2.64765 2.78009,-2.78008 2.78009,-8.86981 0,-5.95729 -3.04483,-8.605 -3.04483,-2.64772 -6.48685,-2.64772 z m -17.87193,-30.978 10.32597,0 0,23.43204 q 1.45623,-0.39718 3.83913,-0.7943 2.51535,-0.52955 5.16306,-0.52955 3.70676,0 7.0164,1.19148 3.44195,1.05905 5.95729,3.44202 2.64771,2.3829 4.10394,6.22203 1.58861,3.8392 1.58861,9.13456 0,11.12035 -5.82492,15.88615 -5.69255,4.76587 -14.82711,4.76587 -4.63343,0 -8.86974,-0.66193 -4.10395,-0.52955 -8.47263,-1.98578 l 0,-60.10259 z m 54.27773,61.42644 -10.32605,0 0,-61.42644 10.32605,0 0,61.42644 z" />
    <path
       inkscape:connector-curvature="0"
       id="path4985"
       style="font-style:normal;font-variant:normal;font-weight:normal;font-stretch:normal;font-size:medium;line-height:125%;font-family:'Ubuntu Mono';-inkscape-font-specification:'Ubuntu Mono';letter-spacing:0px;word-spacing:0px;fill:#000000;fill-opacity:1;stroke:none;stroke-width:1px;stroke-linecap:butt;stroke-linejoin:miter;stroke-opacity:1"
       d="m 351.49046,918.81296 q -1.85335,0 -3.57439,0 -1.5886,-0.13244 -3.04483,-0.26481 -3.8392,5.69254 -7.28115,12.17939 -3.44201,6.35447 -6.2221,11.91464 l -11.12034,0 q 1.45623,-3.44201 3.30964,-7.0164 1.85341,-3.70676 3.83913,-7.01633 1.98579,-3.44202 3.97157,-6.48691 1.98579,-3.17721 3.83914,-5.56011 -6.61922,-2.38297 -9.00212,-6.75166 -2.25053,-4.50106 -2.25053,-9.53167 0,-5.16299 1.85334,-9.00212 1.98579,-3.8392 5.4278,-6.35448 3.44195,-2.64771 8.07545,-3.97157 4.76587,-1.32385 10.32604,-1.32385 7.81064,0 13.10607,0.66192 5.29536,0.66193 9.00212,1.72105 l 0,60.63213 -10.98791,0 0,-23.82922 -9.26693,0 z m 9.26693,-29.52177 q -1.32386,-0.26474 -4.23632,-0.39718 -2.78008,-0.26475 -6.75159,-0.26475 -6.75165,0 -10.85553,2.78009 -4.10394,2.78009 -4.10394,8.73737 0,5.95729 4.23631,8.20782 4.23632,2.25053 10.98791,2.25053 l 10.72316,0 0,-21.31388 z" />
    <path
       inkscape:connector-curvature="0"
       id="path4987"
       style="font-style:normal;font-variant:normal;font-weight:normal;font-stretch:normal;font-size:medium;line-height:125%;font-family:'Ubuntu Mono';-inkscape-font-specification:'Ubuntu Mono';letter-spacing:0px;word-spacing:0px;fill:#000000;fill-opacity:1;stroke:none;stroke-width:1px;stroke-linecap:butt;stroke-linejoin:miter;stroke-opacity:1"
       d="m 461.50215,942.64218 0,-61.42644 44.08413,0 0,9.1345 -33.22859,0 0,52.29194 -10.85554,0 z" />
    <path
       inkscape:connector-curvature="0"
       id="path4989"
       style="font-style:normal;font-variant:normal;font-weight:normal;font-stretch:normal;font-size:medium;line-height:125%;font-family:'Ubuntu Mono';-inkscape-font-specification:'Ubuntu Mono';letter-spacing:0px;word-spacing:0px;fill:#000000;fill-opacity:1;stroke:none;stroke-width:1px;stroke-linecap:butt;stroke-linejoin:miter;stroke-opacity:1"
       d="m 541.19771,871.684 q -3.44195,0 -5.95729,-2.3829 -2.51527,-2.38293 -2.51527,-6.48687 0,-4.10395 2.51527,-6.48685 2.51534,-2.38297 5.95729,-2.38297 3.57446,0 5.95736,2.38297 2.51527,2.3829 2.51527,6.48685 0,4.10394 -2.51527,6.48687 -2.3829,2.3829 -5.95736,2.3829 z m -2.78002,18.66624 -17.73956,0 0,-9.1345 28.5951,0 0,37.72959 q 0,9.13456 2.51527,12.31177 2.51534,3.04489 7.54596,3.04489 3.83913,0 7.0164,-0.92674 3.30958,-0.92667 5.16299,-1.98578 l 1.5886,9.26693 q -0.7943,0.39718 -2.25053,1.05911 -1.45623,0.52956 -3.44201,1.05905 -1.85335,0.52955 -4.23632,0.92674 -2.25053,0.39711 -4.7658,0.39711 -5.82499,0 -9.66412,-1.5886 -3.83913,-1.5886 -6.2221,-4.76587 -2.25053,-3.1772 -3.1772,-7.8107 -0.92668,-4.76581 -0.92668,-10.98791 l 0,-28.59509 z" />
    <path
       inkscape:connector-curvature="0"
       id="path4991"
       style="font-style:normal;font-variant:normal;font-weight:normal;font-stretch:normal;font-size:medium;line-height:125%;font-family:'Ubuntu Mono';-inkscape-font-specification:'Ubuntu Mono';letter-spacing:0px;word-spacing:0px;fill:#000000;fill-opacity:1;stroke:none;stroke-width:1px;stroke-linecap:butt;stroke-linejoin:miter;stroke-opacity:1"
       d="m 611.22922,908.8841 q 3.57439,2.64771 8.07552,6.75159 4.50106,3.97157 8.86974,8.605 4.50106,4.6335 8.47263,9.53175 3.97151,4.7658 6.35448,8.86974 l -12.97369,0 q -2.51534,-4.10394 -6.2221,-8.34019 -3.70676,-4.36875 -7.94308,-8.34026 -4.10394,-3.97157 -8.34026,-7.28114 -4.10394,-3.30964 -7.41352,-5.56017 l 0,29.52176 -10.9879,0 0,-61.42644 10.9879,0 0,25.68257 q 7.28115,-6.3544 14.5623,-12.5765 7.28114,-6.35448 13.10613,-13.10607 l 12.84125,0 q -5.69248,6.75159 -13.76799,13.90037 -7.94308,7.14877 -15.62141,13.76799 z" />
    <path
       inkscape:connector-curvature="0"
       id="path4993"
       style="font-style:normal;font-variant:normal;font-weight:normal;font-stretch:normal;font-size:medium;line-height:125%;font-family:'Ubuntu Mono';-inkscape-font-specification:'Ubuntu Mono';letter-spacing:0px;word-spacing:0px;fill:#000000;fill-opacity:1;stroke:none;stroke-width:1px;stroke-linecap:butt;stroke-linejoin:miter;stroke-opacity:1"
       d="m 673.58247,871.684 q -3.44202,0 -5.95736,-2.3829 -2.51527,-2.38293 -2.51527,-6.48687 0,-4.10395 2.51527,-6.48685 2.51534,-2.38297 5.95736,-2.38297 3.57439,0 5.95729,2.38297 2.51534,2.3829 2.51534,6.48685 0,4.10394 -2.51534,6.48687 -2.3829,2.3829 -5.95729,2.3829 z m -2.78009,18.66624 -17.73956,0 0,-9.1345 28.5951,0 0,37.72959 q 0,9.13456 2.51534,12.31177 2.51531,3.04489 7.54592,3.04489 3.83907,0 7.01634,-0.92674 3.30964,-0.92667 5.16298,-1.98578 l 1.58867,9.26693 q -0.79443,0.39718 -2.25059,1.05911 -1.45617,0.52956 -3.44202,1.05905 -1.85334,0.52955 -4.23631,0.92674 -2.25047,0.39711 -4.76574,0.39711 -5.82492,0 -9.66415,-1.5886 -3.83913,-1.5886 -6.2221,-4.76587 -2.25053,-3.1772 -3.1772,-7.8107 -0.92668,-4.76581 -0.92668,-10.98791 l 0,-28.59509 z" />
  </g>
</svg>
