<?xml version="1.0" encoding="UTF-8" standalone="no"?>
<!-- Created with Inkscape (http://www.inkscape.org/) -->

<svg
   xmlns:dc="http://purl.org/dc/elements/1.1/"
   xmlns:cc="http://creativecommons.org/ns#"
   xmlns:rdf="http://www.w3.org/1999/02/22-rdf-syntax-ns#"
   xmlns:svg="http://www.w3.org/2000/svg"
   xmlns="http://www.w3.org/2000/svg"
   xmlns:sodipodi="http://sodipodi.sourceforge.net/DTD/sodipodi-0.dtd"
   xmlns:inkscape="http://www.inkscape.org/namespaces/inkscape"
   width="210mm"
   height="297mm"
   viewBox="0 0 744.09448 1052.3622"
   id="svg5067"
   version="1.1"
   inkscape:version="0.91 r13725"
   sodipodi:docname="sac-giki-2.svg">
  <defs
     id="defs5069" />
  <sodipodi:namedview
     id="base"
     pagecolor="#ffffff"
     bordercolor="#666666"
     borderopacity="1.0"
     inkscape:pageopacity="0.0"
     inkscape:pageshadow="2"
     inkscape:zoom="0.7"
     inkscape:cx="546.53544"
     inkscape:cy="658.27667"
     inkscape:document-units="px"
     inkscape:current-layer="text4962"
     showgrid="false"
     inkscape:window-width="1301"
     inkscape:window-height="744"
     inkscape:window-x="65"
     inkscape:window-y="24"
     inkscape:window-maximized="1"
     showguides="true"
     inkscape:guide-bbox="true">
    <sodipodi:guide
       position="0,525.71429"
       orientation="0,1"
       id="guide5051" />
  </sodipodi:namedview>
  <metadata
     id="metadata5072">
    <rdf:RDF>
      <cc:Work
         rdf:about="">
        <dc:format>image/svg+xml</dc:format>
        <dc:type
           rdf:resource="http://purl.org/dc/dcmitype/StillImage" />
        <dc:title></dc:title>
      </cc:Work>
    </rdf:RDF>
  </metadata>
  <g
     inkscape:label="Layer 1"
     inkscape:groupmode="layer"
     id="layer1"
     transform="translate(0,-3.464567e-6)">
    <g
       style="font-style:normal;font-variant:normal;font-weight:normal;font-stretch:normal;font-size:170.54968262px;line-height:125%;font-family:Arial;-inkscape-font-specification:Arial;letter-spacing:0px;word-spacing:0px;fill:#000000;fill-opacity:1;stroke:none;stroke-width:1px;stroke-linecap:butt;stroke-linejoin:miter;stroke-opacity:1"
       id="text4962">
      <path
         d="m 81.88175,118.27749 q -10.74463,0 -18.931015,-3.41099 -8.015835,-3.411 -13.643975,-9.55078 -5.45759,-6.13979 -8.186385,-14.49673 -2.728794,-8.52748 -2.728794,-18.76046 0,-10.23298 2.899344,-18.760467 3.069894,-8.527484 8.527484,-14.667273 5.45759,-6.310338 13.302875,-9.721332 8.015836,-3.581543 17.737167,-3.581543 5.969239,0 11.938478,1.023298 5.969239,1.023298 11.426831,3.240444 l -3.58154,13.473425 q -3.581549,-1.705497 -8.35694,-2.728795 -4.604841,-1.023298 -9.891881,-1.023298 -13.302876,0 -20.465962,8.356935 -6.992537,8.356934 -6.992537,24.388606 0,7.16308 1.534947,13.13232 1.705497,5.96924 5.11649,10.23298 3.581544,4.26375 9.039134,6.65144 5.457589,2.21715 13.302875,2.21715 6.310338,0 11.426829,-1.19385 5.116495,-1.19385 8.015835,-2.55824 l 2.21715,13.30287 q -1.3644,0.85275 -3.92265,1.7055 -2.558242,0.6822 -5.798686,1.19385 -3.240444,0.68219 -6.992537,1.02329 -3.581544,0.51165 -6.992537,0.51165 z"
         style="font-style:normal;font-variant:normal;font-weight:normal;font-stretch:normal;font-family:Ubuntu;-inkscape-font-specification:Ubuntu"
         id="path4969"
         inkscape:connector-curvature="0" />
      <path
         d="m 152.63322,104.80407 q 5.62814,0 9.89188,-0.17055 4.4343,-0.3411 7.33364,-1.0233 l 0,-26.4352 q -1.7055,-0.85275 -5.62814,-1.3644 -3.75209,-0.6822 -9.20968,-0.6822 -3.58155,0 -7.67474,0.51165 -3.92264,0.51165 -7.33363,2.21715 -3.24045,1.53494 -5.45759,4.43429 -2.21715,2.72879 -2.21715,7.33364 0,8.52748 5.45759,11.93847 5.45759,3.24045 14.83782,3.24045 z m -1.3644,-79.476155 q 9.55079,0 16.03167,2.558245 6.65144,2.387696 10.57409,6.992537 4.09319,4.434292 5.79868,10.74463 1.7055,6.139789 1.7055,13.643975 l 0,55.428648 q -2.0466,0.3411 -5.79869,1.0233 -3.58154,0.51165 -8.18638,1.0233 -4.60484,0.51164 -10.06243,0.85274 -5.28704,0.51165 -10.57408,0.51165 -7.50419,0 -13.81453,-1.53494 -6.31034,-1.53495 -10.91518,-4.7754 -4.60484,-3.41099 -7.16309,-8.86858 -2.55824,-5.45759 -2.55824,-13.13232 0,-7.33364 2.89934,-12.62068 3.0699,-5.28704 8.18639,-8.52749 5.11649,-3.24044 11.93848,-4.77539 6.82198,-1.53494 14.32617,-1.53494 2.3877,0 4.94594,0.3411 2.55825,0.17055 4.77539,0.68219 2.3877,0.3411 4.09319,0.6822 1.7055,0.3411 2.3877,0.51165 l 0,-4.43429 q 0,-3.922642 -0.85275,-7.674735 -0.85275,-3.922643 -3.06989,-6.821988 -2.21715,-3.069894 -6.13979,-4.775391 -3.75209,-1.876046 -9.89188,-1.876046 -7.84529,0 -13.81453,1.193848 -5.79869,1.023298 -8.69803,2.217145 l -1.87605,-13.132325 q 3.0699,-1.364398 10.23298,-2.558245 7.16309,-1.364398 15.52002,-1.364398 z"
         style="font-style:normal;font-variant:normal;font-weight:normal;font-stretch:normal;font-family:Ubuntu;-inkscape-font-specification:Ubuntu"
         id="path4971"
         inkscape:connector-curvature="0" />
      <path
         d="m 282.3336,103.09857 11.93848,0 0,37.86203 -15.00838,0 0,-24.7297 -67.70822,0 0,-88.685839 15.86112,0 0,75.553509 39.05588,0 0,-75.553509 15.86112,0 0,75.553509 z"
         style="font-style:normal;font-variant:normal;font-weight:normal;font-stretch:normal;font-family:Ubuntu;-inkscape-font-specification:Ubuntu"
         id="path4973"
         inkscape:connector-curvature="0" />
      <path
         d="m 344.06193,72.39963 q -4.60484,0 -9.03914,0.3411 -4.26374,0.17055 -7.67473,1.0233 l 0,30.52839 q 1.0233,0.17055 2.89934,0.3411 2.0466,0.17055 4.26375,0.3411 2.38769,0 4.77539,0.17055 2.38769,0 4.26374,0 10.40353,0 16.03167,-3.92265 5.62814,-3.92264 5.62814,-12.62067 0,-4.26374 -1.87605,-7.33364 -1.70549,-3.06989 -4.77539,-4.94594 -2.89934,-2.0466 -6.65144,-2.89934 -3.75209,-1.0233 -7.84528,-1.0233 z m -32.57499,-44.854569 15.86112,0 0,33.939389 q 2.89934,-0.6822 8.35693,-1.3644 5.62814,-0.682198 10.74463,-0.682198 6.99254,0 13.30288,1.705498 6.31034,1.53495 11.08573,5.11649 4.77539,3.41099 7.50418,9.03913 2.89935,5.45759 2.89935,13.13233 0,8.01583 -2.7288,13.64397 -2.72879,5.62814 -7.67473,9.20969 -4.94594,3.58154 -11.93848,5.11649 -6.99254,1.70549 -15.34947,1.70549 -8.01584,0 -16.20222,-1.0233 -8.18639,-0.85274 -15.86112,-2.72879 l 0,-86.809789 z m 101.98871,88.685839 -15.86112,0 0,-88.685839 15.86112,0 0,88.685839 z"
         style="font-style:normal;font-variant:normal;font-weight:normal;font-stretch:normal;font-family:Ubuntu;-inkscape-font-specification:Ubuntu"
         id="path4975"
         inkscape:connector-curvature="0" />
      <path
         d="m 477.39978,81.77986 q -2.55825,0 -4.94594,0 -2.3877,-0.17055 -4.60484,-0.3411 -5.45759,8.18639 -10.57408,17.56662 -4.94594,9.20968 -8.86859,17.22552 l -16.03167,0 q 2.0466,-4.94594 4.77539,-10.06244 2.7288,-5.28704 5.45759,-10.23298 2.89935,-4.94594 5.79869,-9.38023 2.89935,-4.43429 5.45759,-8.01583 -4.77539,-1.7055 -7.84528,-4.0932 -3.0699,-2.55824 -4.94594,-5.62814 -1.87605,-3.06989 -2.7288,-6.48088 -0.6822,-3.581547 -0.6822,-7.16309 0,-7.504186 2.7288,-13.132326 2.89934,-5.628139 7.84528,-9.209683 4.94594,-3.752093 11.59738,-5.628139 6.82199,-1.876047 14.83782,-1.876047 11.25628,0 19.10157,1.023298 7.84528,1.023298 13.13232,2.387696 l 0,87.491991 -15.69057,0 0,-34.45104 -13.81452,0 z M 491.2143,39.312989 q -1.87604,-0.341099 -6.31033,-0.682199 -4.26375,-0.341099 -9.89189,-0.341099 -9.72133,0 -15.69057,4.093192 -5.96924,3.922643 -5.96924,12.620677 0,8.52748 6.13979,11.76793 6.13979,3.24044 15.86112,3.24044 l 15.86112,0 0,-30.698941 z"
         style="font-style:normal;font-variant:normal;font-weight:normal;font-stretch:normal;font-family:Ubuntu;-inkscape-font-specification:Ubuntu"
         id="path4977"
         inkscape:connector-curvature="0" />
      <path
         d="m 565.20357,40.847936 q 0,5.62814 -0.3411,12.109028 -0.17055,6.310338 -0.85275,12.791226 -0.6822,6.31034 -1.87605,12.62068 -1.19384,6.13979 -3.06989,11.59737 -1.87605,5.45759 -4.77539,10.23299 -2.7288,4.77539 -6.82199,8.52748 -4.09319,3.58154 -9.55078,6.13979 -5.45759,2.38769 -12.79123,3.06989 l -2.21714,-13.30287 q 8.35693,-1.7055 13.13232,-6.31034 4.94594,-4.60484 7.84529,-11.25628 2.55824,-5.79869 3.75209,-13.13233 1.19385,-7.33363 1.7055,-15.178917 0.51165,-8.015835 0.51165,-16.03167 0.17055,-8.015835 0.17055,-15.178922 l 59.01019,0 0,88.685839 -15.86112,0 0,-75.382964 -27.97015,0 z"
         style="font-style:normal;font-variant:normal;font-weight:normal;font-stretch:normal;font-family:Ubuntu;-inkscape-font-specification:Ubuntu"
         id="path4979"
         inkscape:connector-curvature="0" />
      <path
         d="m 669.86245,105.14517 q 10.06243,0 15.86112,-3.92265 5.79869,-3.92264 5.79869,-12.62067 0,-4.26374 -1.7055,-7.33364 -1.7055,-3.06989 -4.77539,-4.94594 -2.89935,-2.0466 -6.82199,-2.89934 -3.92264,-1.0233 -8.35693,-1.0233 -4.60484,0 -9.55078,0.3411 -4.7754,0.17055 -8.18639,1.0233 l 0,30.52839 q 1.0233,0.17055 3.06989,0.3411 2.0466,0.17055 4.4343,0.3411 2.55824,0 5.11649,0.17055 2.72879,0 5.11649,0 z m -33.59829,9.20968 0,-86.809789 15.86112,0 0,33.939389 q 1.3644,-0.3411 3.58154,-0.6822 2.3877,-0.3411 4.94594,-0.6822 2.7288,-0.341099 5.62814,-0.511649 2.89935,-0.170549 5.45759,-0.170549 7.33364,0 13.81453,1.705498 6.48089,1.53495 11.25628,5.11649 4.94594,3.41099 7.84528,9.03913 2.89935,5.45759 2.89935,13.13233 0,8.01583 -2.7288,13.64397 -2.72879,5.62814 -7.84528,9.20969 -5.11649,3.58154 -12.27958,5.11649 -6.99254,1.70549 -15.69057,1.70549 -8.52749,0 -16.71387,-1.0233 -8.18638,-0.85274 -16.03167,-2.72879 z"
         style="font-style:normal;font-variant:normal;font-weight:normal;font-stretch:normal;font-family:Ubuntu;-inkscape-font-specification:Ubuntu"
         id="path4981"
         inkscape:connector-curvature="0" />
      <path
         d="m 118.84883,256.56086 -15.86112,0 0,-39.22643 -40.931925,0 0,39.22643 -15.861121,0 0,-88.68584 15.861121,0 0,36.15654 40.931925,0 0,-36.15654 15.86112,0 0,88.68584 z"
         style="font-style:normal;font-variant:normal;font-weight:normal;font-stretch:normal;font-family:Ubuntu;-inkscape-font-specification:Ubuntu"
         id="path4983"
         inkscape:connector-curvature="0" />
      <path
         d="m 178.70111,212.72959 q -4.60484,0 -9.03913,0.3411 -4.26374,0.17055 -7.67474,1.0233 l 0,30.52839 q 1.0233,0.17055 2.89935,0.3411 2.04659,0.17055 4.26374,0.3411 2.38769,0 4.77539,0.17055 2.3877,0 4.26374,0 10.40353,0 16.03167,-3.92264 5.62814,-3.92265 5.62814,-12.62068 0,-4.26374 -1.87604,-7.33364 -1.7055,-3.06989 -4.7754,-4.94594 -2.89934,-2.04659 -6.65143,-2.89934 -3.7521,-1.0233 -7.84529,-1.0233 z m -32.57499,-44.85457 15.86112,0 0,33.93939 q 2.89935,-0.6822 8.35694,-1.3644 5.62814,-0.6822 10.74463,-0.6822 6.99253,0 13.30287,1.7055 6.31034,1.53495 11.08573,5.11649 4.77539,3.411 7.50419,9.03914 2.89934,5.45759 2.89934,13.13232 0,8.01584 -2.72879,13.64398 -2.7288,5.62814 -7.67474,9.20968 -4.94594,3.58154 -11.93848,5.11649 -6.99253,1.7055 -15.34947,1.7055 -8.01583,0 -16.20222,-1.0233 -8.18638,-0.85275 -15.86112,-2.7288 l 0,-86.80979 z m 101.98871,88.68584 -15.86112,0 0,-88.68584 15.86112,0 0,88.68584 z"
         style="font-style:normal;font-variant:normal;font-weight:normal;font-stretch:normal;font-family:Ubuntu;-inkscape-font-specification:Ubuntu"
         id="path4985"
         inkscape:connector-curvature="0" />
      <path
         d="m 312.03898,222.10982 q -2.55825,0 -4.94594,0 -2.3877,-0.17055 -4.60484,-0.3411 -5.45759,8.18639 -10.57408,17.56662 -4.94595,9.20968 -8.86859,17.22552 l -16.03167,0 q 2.0466,-4.94594 4.77539,-10.06243 2.7288,-5.28704 5.45759,-10.23298 2.89935,-4.94594 5.79869,-9.38024 2.89935,-4.43429 5.45759,-8.01583 -4.77539,-1.7055 -7.84528,-4.09319 -3.0699,-2.55825 -4.94594,-5.62814 -1.87605,-3.0699 -2.7288,-6.48089 -0.6822,-3.58154 -0.6822,-7.16309 0,-7.50418 2.7288,-13.13232 2.89934,-5.62814 7.84528,-9.20969 4.94594,-3.75209 11.59738,-5.62814 6.82199,-1.87604 14.83782,-1.87604 11.25628,0 19.10157,1.0233 7.84528,1.02329 13.13232,2.38769 l 0,87.49199 -15.69057,0 0,-34.45104 -13.81452,0 z m 13.81452,-42.46687 q -1.87604,-0.3411 -6.31034,-0.6822 -4.26374,-0.3411 -9.89188,-0.3411 -9.72133,0 -15.69057,4.0932 -5.96924,3.92264 -5.96924,12.62067 0,8.52749 6.13979,11.76793 6.13979,3.24045 15.86112,3.24045 l 15.86112,0 0,-30.69895 z"
         style="font-style:normal;font-variant:normal;font-weight:normal;font-stretch:normal;font-family:Ubuntu;-inkscape-font-specification:Ubuntu"
         id="path4987"
         inkscape:connector-curvature="0" />
      <path
         d="m 463.19662,181.1779 -39.05587,0 0,75.38296 -15.86112,0 0,-88.68584 54.91699,0 0,13.30288 z"
         style="font-style:normal;font-variant:normal;font-weight:normal;font-stretch:normal;font-family:Ubuntu;-inkscape-font-specification:Ubuntu"
         id="path4989"
         inkscape:connector-curvature="0" />
      <path
         d="m 495.4252,256.56086 -15.86112,0 0,-88.68584 15.86112,0 0,88.68584 z m -8.01584,-104.71751 q -4.26374,0 -7.33363,-2.72879 -2.89935,-2.89935 -2.89935,-7.67474 0,-4.77539 2.89935,-7.50418 3.06989,-2.89935 7.33363,-2.89935 4.26375,0 7.16309,2.89935 3.0699,2.72879 3.0699,7.50418 0,4.77539 -3.0699,7.67474 -2.89934,2.72879 -7.16309,2.72879 z"
         style="font-style:normal;font-variant:normal;font-weight:normal;font-stretch:normal;font-family:Ubuntu;-inkscape-font-specification:Ubuntu"
         id="path4991"
         inkscape:connector-curvature="0" />
      <path
         d="m 555.27214,208.2953 q 5.28704,3.75209 11.42683,9.55078 6.13979,5.62814 11.93848,12.27958 5.96923,6.65144 11.08572,13.64397 5.1165,6.82199 8.69804,12.79123 l -18.76047,0 q -3.75209,-5.79869 -8.86858,-11.76793 -4.94594,-6.13979 -10.40353,-11.76793 -5.45759,-5.62814 -11.08573,-10.40353 -5.62814,-4.77539 -10.57408,-8.01583 l 0,41.95522 -15.86112,0 0,-88.68584 15.86112,0 0,38.03258 q 4.09319,-3.92264 9.38023,-9.03913 5.28704,-5.28704 10.57408,-10.57408 5.45759,-5.45759 10.06243,-10.23298 4.60485,-4.94594 7.50419,-8.18639 l 18.41937,0 q -3.7521,4.0932 -8.86859,9.38024 -4.94594,5.11649 -10.40353,10.57408 -5.28704,5.45759 -10.57408,10.91518 -5.28704,5.28704 -9.55078,9.55078 z"
         style="font-style:normal;font-variant:normal;font-weight:normal;font-stretch:normal;font-family:Ubuntu;-inkscape-font-specification:Ubuntu"
         id="path4993"
         inkscape:connector-curvature="0" />
      <path
         d="m 630.33264,256.56086 -15.86112,0 0,-88.68584 15.86112,0 0,88.68584 z m -8.01583,-104.71751 q -4.26375,0 -7.33364,-2.72879 -2.89935,-2.89935 -2.89935,-7.67474 0,-4.77539 2.89935,-7.50418 3.06989,-2.89935 7.33364,-2.89935 4.26374,0 7.16308,2.89935 3.0699,2.72879 3.0699,7.50418 0,4.77539 -3.0699,7.67474 -2.89934,2.72879 -7.16308,2.72879 z"
         style="font-style:normal;font-variant:normal;font-weight:normal;font-stretch:normal;font-family:Ubuntu;-inkscape-font-specification:Ubuntu"
         id="path4995"
         inkscape:connector-curvature="0" />
      <path
         d="m 80.337567,387.32872 q -10.74463,0 -18.93102,-3.41099 -8.01583,-3.411 -13.64397,-9.55078 -5.45759,-6.13979 -8.18639,-14.49673 -2.72879,-8.52748 -2.72879,-18.76046 0,-10.23298 2.89934,-18.76047 3.0699,-8.52748 8.52749,-14.66727 5.45759,-6.31034 13.30287,-9.72133 8.01584,-3.58155 17.73717,-3.58155 5.96924,0 11.93848,1.0233 5.96924,1.0233 11.426833,3.24044 l -3.581543,13.47343 q -3.58155,-1.7055 -8.35694,-2.7288 -4.60484,-1.02329 -9.89188,-1.02329 -13.30288,0 -20.46596,8.35693 -6.99254,8.35694 -6.99254,24.38861 0,7.16308 1.53495,13.13232 1.70549,5.96924 5.11649,10.23298 3.58154,4.26375 9.03913,6.65144 5.45759,2.21715 13.30287,2.21715 6.31034,0 11.42683,-1.19385 5.1165,-1.19385 8.015843,-2.55824 l 2.21715,13.30287 q -1.3644,0.85275 -3.92265,1.7055 -2.558243,0.6822 -5.798693,1.19385 -3.24044,0.68219 -6.99253,1.02329 -3.58155,0.51165 -6.99254,0.51165 z"
         style="font-style:normal;font-variant:normal;font-weight:normal;font-stretch:normal;font-size:170.54968262px;line-height:125%;font-family:Ubuntu;-inkscape-font-specification:Ubuntu;letter-spacing:0px;word-spacing:0px;fill:#000000;fill-opacity:1;stroke:none;stroke-width:1px;stroke-linecap:butt;stroke-linejoin:miter;stroke-opacity:1"
         id="path4969-9"
         inkscape:connector-curvature="0" />
      <path
         d="m 151.08904,373.8553 q 5.62814,0 9.89188,-0.17055 4.4343,-0.3411 7.33364,-1.0233 l 0,-26.4352 q -1.7055,-0.85275 -5.62814,-1.3644 -3.75209,-0.6822 -9.20968,-0.6822 -3.58155,0 -7.67474,0.51165 -3.92264,0.51165 -7.33363,2.21715 -3.24045,1.53494 -5.45759,4.43429 -2.21715,2.72879 -2.21715,7.33364 0,8.52748 5.45759,11.93847 5.45759,3.24045 14.83782,3.24045 z m -1.3644,-79.47616 q 9.55079,0 16.03167,2.55825 6.65144,2.38769 10.57409,6.99253 4.09319,4.4343 5.79868,10.74463 1.7055,6.13979 1.7055,13.64398 l 0,55.42865 q -2.0466,0.3411 -5.79869,1.0233 -3.58154,0.51165 -8.18638,1.0233 -4.60484,0.51164 -10.06243,0.85274 -5.28704,0.51165 -10.57408,0.51165 -7.50419,0 -13.81453,-1.53494 -6.31034,-1.53495 -10.91518,-4.7754 -4.60484,-3.41099 -7.16309,-8.86858 -2.55824,-5.45759 -2.55824,-13.13232 0,-7.33364 2.89934,-12.62068 3.0699,-5.28704 8.18639,-8.52749 5.11649,-3.24044 11.93848,-4.77539 6.82198,-1.53494 14.32617,-1.53494 2.3877,0 4.94594,0.3411 2.55825,0.17055 4.77539,0.68219 2.3877,0.3411 4.09319,0.6822 1.7055,0.3411 2.3877,0.51165 l 0,-4.43429 q 0,-3.92264 -0.85275,-7.67474 -0.85275,-3.92264 -3.06989,-6.82199 -2.21715,-3.06989 -6.13979,-4.77539 -3.75209,-1.87604 -9.89188,-1.87604 -7.84529,0 -13.81453,1.19385 -5.79869,1.02329 -8.69803,2.21714 l -1.87605,-13.13232 q 3.0699,-1.3644 10.23298,-2.55825 7.16309,-1.3644 15.52002,-1.3644 z"
         style="font-style:normal;font-variant:normal;font-weight:normal;font-stretch:normal;font-size:170.54968262px;line-height:125%;font-family:Ubuntu;-inkscape-font-specification:Ubuntu;letter-spacing:0px;word-spacing:0px;fill:#000000;fill-opacity:1;stroke:none;stroke-width:1px;stroke-linecap:butt;stroke-linejoin:miter;stroke-opacity:1"
         id="path4971-9"
         inkscape:connector-curvature="0" />
      <path
         d="m 280.78942,372.1498 11.93848,0 0,37.86202 -15.00838,0 0,-24.72969 -67.70822,0 0,-88.68584 15.86112,0 0,75.55351 39.05588,0 0,-75.55351 15.86112,0 0,75.55351 z"
         style="font-style:normal;font-variant:normal;font-weight:normal;font-stretch:normal;font-size:170.54968262px;line-height:125%;font-family:Ubuntu;-inkscape-font-specification:Ubuntu;letter-spacing:0px;word-spacing:0px;fill:#000000;fill-opacity:1;stroke:none;stroke-width:1px;stroke-linecap:butt;stroke-linejoin:miter;stroke-opacity:1"
         id="path4973-3"
         inkscape:connector-curvature="0" />
      <path
         d="m 342.51775,341.45086 q -4.60484,0 -9.03914,0.3411 -4.26374,0.17055 -7.67473,1.0233 l 0,30.52839 q 1.0233,0.17055 2.89934,0.3411 2.0466,0.17055 4.26375,0.3411 2.38769,0 4.77539,0.17055 2.38769,0 4.26374,0 10.40353,0 16.03167,-3.92265 5.62814,-3.92264 5.62814,-12.62067 0,-4.26374 -1.87605,-7.33364 -1.70549,-3.06989 -4.77539,-4.94594 -2.89934,-2.0466 -6.65144,-2.89934 -3.75209,-1.0233 -7.84528,-1.0233 z m -32.57499,-44.85457 15.86112,0 0,33.93939 q 2.89934,-0.6822 8.35693,-1.3644 5.62814,-0.6822 10.74463,-0.6822 6.99254,0 13.30288,1.7055 6.31034,1.53495 11.08573,5.11649 4.77539,3.41099 7.50418,9.03913 2.89935,5.45759 2.89935,13.13233 0,8.01583 -2.7288,13.64397 -2.72879,5.62814 -7.67473,9.20969 -4.94594,3.58154 -11.93848,5.11649 -6.99254,1.70549 -15.34947,1.70549 -8.01584,0 -16.20222,-1.0233 -8.18639,-0.85274 -15.86112,-2.72879 l 0,-86.80979 z m 101.98871,88.68584 -15.86112,0 0,-88.68584 15.86112,0 0,88.68584 z"
         style="font-style:normal;font-variant:normal;font-weight:normal;font-stretch:normal;font-size:170.54968262px;line-height:125%;font-family:Ubuntu;-inkscape-font-specification:Ubuntu;letter-spacing:0px;word-spacing:0px;fill:#000000;fill-opacity:1;stroke:none;stroke-width:1px;stroke-linecap:butt;stroke-linejoin:miter;stroke-opacity:1"
         id="path4975-2"
         inkscape:connector-curvature="0" />
      <path
         d="m 475.8556,350.83109 q -2.55825,0 -4.94594,0 -2.3877,-0.17055 -4.60484,-0.3411 -5.45759,8.18639 -10.57408,17.56662 -4.94594,9.20968 -8.86859,17.22552 l -16.03167,0 q 2.0466,-4.94594 4.77539,-10.06244 2.7288,-5.28704 5.45759,-10.23298 2.89935,-4.94594 5.79869,-9.38023 2.89935,-4.43429 5.45759,-8.01583 -4.77539,-1.7055 -7.84528,-4.0932 -3.0699,-2.55824 -4.94594,-5.62814 -1.87605,-3.06989 -2.7288,-6.48088 -0.6822,-3.58155 -0.6822,-7.16309 0,-7.50419 2.7288,-13.13233 2.89934,-5.62814 7.84528,-9.20968 4.94594,-3.75209 11.59738,-5.62814 6.82199,-1.87605 14.83782,-1.87605 11.25628,0 19.10157,1.0233 7.84528,1.0233 13.13232,2.3877 l 0,87.49199 -15.69057,0 0,-34.45104 -13.81452,0 z m 13.81452,-42.46687 q -1.87604,-0.3411 -6.31033,-0.6822 -4.26375,-0.3411 -9.89189,-0.3411 -9.72133,0 -15.69057,4.09319 -5.96924,3.92264 -5.96924,12.62068 0,8.52748 6.13979,11.76793 6.13979,3.24044 15.86112,3.24044 l 15.86112,0 0,-30.69894 z"
         style="font-style:normal;font-variant:normal;font-weight:normal;font-stretch:normal;font-size:170.54968262px;line-height:125%;font-family:Ubuntu;-inkscape-font-specification:Ubuntu;letter-spacing:0px;word-spacing:0px;fill:#000000;fill-opacity:1;stroke:none;stroke-width:1px;stroke-linecap:butt;stroke-linejoin:miter;stroke-opacity:1"
         id="path4977-4"
         inkscape:connector-curvature="0" />
      <path
         d="m 563.65939,309.89916 q 0,5.62814 -0.3411,12.10903 -0.17055,6.31034 -0.85275,12.79123 -0.6822,6.31034 -1.87605,12.62068 -1.19384,6.13979 -3.06989,11.59737 -1.87605,5.45759 -4.77539,10.23299 -2.7288,4.77539 -6.82199,8.52748 -4.09319,3.58154 -9.55078,6.13979 -5.45759,2.38769 -12.79123,3.06989 l -2.21714,-13.30287 q 8.35693,-1.7055 13.13232,-6.31034 4.94594,-4.60484 7.84529,-11.25628 2.55824,-5.79869 3.75209,-13.13233 1.19385,-7.33363 1.7055,-15.17892 0.51165,-8.01583 0.51165,-16.03167 0.17055,-8.01583 0.17055,-15.17892 l 59.01019,0 0,88.68584 -15.86112,0 0,-75.38297 -27.97015,0 z"
         style="font-style:normal;font-variant:normal;font-weight:normal;font-stretch:normal;font-size:170.54968262px;line-height:125%;font-family:Ubuntu;-inkscape-font-specification:Ubuntu;letter-spacing:0px;word-spacing:0px;fill:#000000;fill-opacity:1;stroke:none;stroke-width:1px;stroke-linecap:butt;stroke-linejoin:miter;stroke-opacity:1"
         id="path4979-3"
         inkscape:connector-curvature="0" />
      <path
         d="m 668.31827,374.1964 q 10.06243,0 15.86112,-3.92265 5.79869,-3.92264 5.79869,-12.62067 0,-4.26374 -1.7055,-7.33364 -1.7055,-3.06989 -4.77539,-4.94594 -2.89935,-2.0466 -6.82199,-2.89934 -3.92264,-1.0233 -8.35693,-1.0233 -4.60484,0 -9.55078,0.3411 -4.7754,0.17055 -8.18639,1.0233 l 0,30.52839 q 1.0233,0.17055 3.06989,0.3411 2.0466,0.17055 4.4343,0.3411 2.55824,0 5.11649,0.17055 2.72879,0 5.11649,0 z m -33.59829,9.20968 0,-86.80979 15.86112,0 0,33.93939 q 1.3644,-0.3411 3.58154,-0.6822 2.3877,-0.3411 4.94594,-0.6822 2.7288,-0.3411 5.62814,-0.51165 2.89935,-0.17055 5.45759,-0.17055 7.33364,0 13.81453,1.7055 6.48089,1.53495 11.25628,5.11649 4.94594,3.41099 7.84528,9.03913 2.89935,5.45759 2.89935,13.13233 0,8.01583 -2.7288,13.64397 -2.72879,5.62814 -7.84528,9.20969 -5.11649,3.58154 -12.27958,5.11649 -6.99254,1.70549 -15.69057,1.70549 -8.52749,0 -16.71387,-1.0233 -8.18638,-0.85274 -16.03167,-2.72879 z"
         style="font-style:normal;font-variant:normal;font-weight:normal;font-stretch:normal;font-size:170.54968262px;line-height:125%;font-family:Ubuntu;-inkscape-font-specification:Ubuntu;letter-spacing:0px;word-spacing:0px;fill:#000000;fill-opacity:1;stroke:none;stroke-width:1px;stroke-linecap:butt;stroke-linejoin:miter;stroke-opacity:1"
         id="path4981-7"
         inkscape:connector-curvature="0" />
      <path
         d="m 117.30465,525.61208 -15.86112,0 0,-39.22643 -40.931933,0 0,39.22643 -15.86112,0 0,-88.68584 15.86112,0 0,36.15654 40.931933,0 0,-36.15654 15.86112,0 0,88.68584 z"
         style="font-style:normal;font-variant:normal;font-weight:normal;font-stretch:normal;font-size:170.54968262px;line-height:125%;font-family:Ubuntu;-inkscape-font-specification:Ubuntu;letter-spacing:0px;word-spacing:0px;fill:#000000;fill-opacity:1;stroke:none;stroke-width:1px;stroke-linecap:butt;stroke-linejoin:miter;stroke-opacity:1"
         id="path4983-1"
         inkscape:connector-curvature="0" />
      <path
         d="m 177.15693,481.78081 q -4.60484,0 -9.03913,0.3411 -4.26374,0.17055 -7.67474,1.0233 l 0,30.52839 q 1.0233,0.17055 2.89935,0.3411 2.04659,0.17055 4.26374,0.3411 2.38769,0 4.77539,0.17055 2.3877,0 4.26374,0 10.40353,0 16.03167,-3.92264 5.62814,-3.92265 5.62814,-12.62068 0,-4.26374 -1.87604,-7.33364 -1.7055,-3.06989 -4.7754,-4.94594 -2.89934,-2.04659 -6.65143,-2.89934 -3.7521,-1.0233 -7.84529,-1.0233 z m -32.57499,-44.85457 15.86112,0 0,33.93939 q 2.89935,-0.6822 8.35694,-1.3644 5.62814,-0.6822 10.74463,-0.6822 6.99253,0 13.30287,1.7055 6.31034,1.53495 11.08573,5.11649 4.77539,3.411 7.50419,9.03914 2.89934,5.45759 2.89934,13.13232 0,8.01584 -2.72879,13.64398 -2.7288,5.62814 -7.67474,9.20968 -4.94594,3.58154 -11.93848,5.11649 -6.99253,1.7055 -15.34947,1.7055 -8.01583,0 -16.20222,-1.0233 -8.18638,-0.85275 -15.86112,-2.7288 l 0,-86.80979 z m 101.98871,88.68584 -15.86112,0 0,-88.68584 15.86112,0 0,88.68584 z"
         style="font-style:normal;font-variant:normal;font-weight:normal;font-stretch:normal;font-size:170.54968262px;line-height:125%;font-family:Ubuntu;-inkscape-font-specification:Ubuntu;letter-spacing:0px;word-spacing:0px;fill:#000000;fill-opacity:1;stroke:none;stroke-width:1px;stroke-linecap:butt;stroke-linejoin:miter;stroke-opacity:1"
         id="path4985-2"
         inkscape:connector-curvature="0" />
      <path
         d="m 310.4948,491.16104 q -2.55825,0 -4.94594,0 -2.3877,-0.17055 -4.60484,-0.3411 -5.45759,8.18639 -10.57408,17.56662 -4.94595,9.20968 -8.86859,17.22552 l -16.03167,0 q 2.0466,-4.94594 4.77539,-10.06243 2.7288,-5.28704 5.45759,-10.23298 2.89935,-4.94594 5.79869,-9.38024 2.89935,-4.43429 5.45759,-8.01583 -4.77539,-1.7055 -7.84528,-4.09319 -3.0699,-2.55825 -4.94594,-5.62814 -1.87605,-3.0699 -2.7288,-6.48089 -0.6822,-3.58154 -0.6822,-7.16309 0,-7.50418 2.7288,-13.13232 2.89934,-5.62814 7.84528,-9.20969 4.94594,-3.75209 11.59738,-5.62814 6.82199,-1.87604 14.83782,-1.87604 11.25628,0 19.10157,1.0233 7.84528,1.02329 13.13232,2.38769 l 0,87.49199 -15.69057,0 0,-34.45104 -13.81452,0 z m 13.81452,-42.46687 q -1.87604,-0.3411 -6.31034,-0.6822 -4.26374,-0.3411 -9.89188,-0.3411 -9.72133,0 -15.69057,4.0932 -5.96924,3.92264 -5.96924,12.62067 0,8.52749 6.13979,11.76793 6.13979,3.24045 15.86112,3.24045 l 15.86112,0 0,-30.69895 z"
         style="font-style:normal;font-variant:normal;font-weight:normal;font-stretch:normal;font-size:170.54968262px;line-height:125%;font-family:Ubuntu;-inkscape-font-specification:Ubuntu;letter-spacing:0px;word-spacing:0px;fill:#000000;fill-opacity:1;stroke:none;stroke-width:1px;stroke-linecap:butt;stroke-linejoin:miter;stroke-opacity:1"
         id="path4987-2"
         inkscape:connector-curvature="0" />
      <path
         d="m 461.65244,450.22912 -39.05587,0 0,75.38296 -15.86112,0 0,-88.68584 54.91699,0 0,13.30288 z"
         style="font-style:normal;font-variant:normal;font-weight:normal;font-stretch:normal;font-size:170.54968262px;line-height:125%;font-family:Ubuntu;-inkscape-font-specification:Ubuntu;letter-spacing:0px;word-spacing:0px;fill:#000000;fill-opacity:1;stroke:none;stroke-width:1px;stroke-linecap:butt;stroke-linejoin:miter;stroke-opacity:1"
         id="path4989-0"
         inkscape:connector-curvature="0" />
      <path
         d="m 493.88102,525.61208 -15.86112,0 0,-88.68584 15.86112,0 0,88.68584 z m -8.01584,-104.71751 q -4.26374,0 -7.33363,-2.72879 -2.89935,-2.89935 -2.89935,-7.67474 0,-4.77539 2.89935,-7.50418 3.06989,-2.89935 7.33363,-2.89935 4.26375,0 7.16309,2.89935 3.0699,2.72879 3.0699,7.50418 0,4.77539 -3.0699,7.67474 -2.89934,2.72879 -7.16309,2.72879 z"
         style="font-style:normal;font-variant:normal;font-weight:normal;font-stretch:normal;font-size:170.54968262px;line-height:125%;font-family:Ubuntu;-inkscape-font-specification:Ubuntu;letter-spacing:0px;word-spacing:0px;fill:#000000;fill-opacity:1;stroke:none;stroke-width:1px;stroke-linecap:butt;stroke-linejoin:miter;stroke-opacity:1"
         id="path4991-2"
         inkscape:connector-curvature="0" />
      <path
         d="m 553.72796,477.34652 q 5.28704,3.75209 11.42683,9.55078 6.13979,5.62814 11.93848,12.27958 5.96923,6.65144 11.08572,13.64397 5.1165,6.82199 8.69804,12.79123 l -18.76047,0 q -3.75209,-5.79869 -8.86858,-11.76793 -4.94594,-6.13979 -10.40353,-11.76793 -5.45759,-5.62814 -11.08573,-10.40353 -5.62814,-4.77539 -10.57408,-8.01583 l 0,41.95522 -15.86112,0 0,-88.68584 15.86112,0 0,38.03258 q 4.09319,-3.92264 9.38023,-9.03913 5.28704,-5.28704 10.57408,-10.57408 5.45759,-5.45759 10.06243,-10.23298 4.60485,-4.94594 7.50419,-8.18639 l 18.41937,0 q -3.7521,4.0932 -8.86859,9.38024 -4.94594,5.11649 -10.40353,10.57408 -5.28704,5.45759 -10.57408,10.91518 -5.28704,5.28704 -9.55078,9.55078 z"
         style="font-style:normal;font-variant:normal;font-weight:normal;font-stretch:normal;font-size:170.54968262px;line-height:125%;font-family:Ubuntu;-inkscape-font-specification:Ubuntu;letter-spacing:0px;word-spacing:0px;fill:#000000;fill-opacity:1;stroke:none;stroke-width:1px;stroke-linecap:butt;stroke-linejoin:miter;stroke-opacity:1"
         id="path4993-1"
         inkscape:connector-curvature="0" />
      <path
         d="m 628.78846,525.61208 -15.86112,0 0,-88.68584 15.86112,0 0,88.68584 z m -8.01583,-104.71751 q -4.26375,0 -7.33364,-2.72879 -2.89935,-2.89935 -2.89935,-7.67474 0,-4.77539 2.89935,-7.50418 3.06989,-2.89935 7.33364,-2.89935 4.26374,0 7.16308,2.89935 3.0699,2.72879 3.0699,7.50418 0,4.77539 -3.0699,7.67474 -2.89934,2.72879 -7.16308,2.72879 z"
         style="font-style:normal;font-variant:normal;font-weight:normal;font-stretch:normal;font-size:170.54968262px;line-height:125%;font-family:Ubuntu;-inkscape-font-specification:Ubuntu;letter-spacing:0px;word-spacing:0px;fill:#000000;fill-opacity:1;stroke:none;stroke-width:1px;stroke-linecap:butt;stroke-linejoin:miter;stroke-opacity:1"
         id="path4995-7"
         inkscape:connector-curvature="0" />
    </g>
  </g>
</svg>
