<?xml version="1.0" encoding="UTF-8" standalone="no"?>
<svg
   xmlns:dc="http://purl.org/dc/elements/1.1/"
   xmlns:cc="http://creativecommons.org/ns#"
   xmlns:rdf="http://www.w3.org/1999/02/22-rdf-syntax-ns#"
   xmlns:svg="http://www.w3.org/2000/svg"
   xmlns="http://www.w3.org/2000/svg"
   xmlns:sodipodi="http://sodipodi.sourceforge.net/DTD/sodipodi-0.dtd"
   xmlns:inkscape="http://www.inkscape.org/namespaces/inkscape"
   aria-hidden="true"
   data-prefix="fas"
   data-icon="rocket"
   class="svg-inline--fa fa-rocket fa-w-16"
   role="img"
   viewBox="0 0 1336.8814 881.28815"
   id="svg2"
   version="1.1"
   inkscape:version="0.91 r13725"
   sodipodi:docname="space_ship.svg"
   width="1336.8813"
   height="881.28815"
   inkscape:export-filename="/home/jedi/Pictures/doika/rocket-solid.png"
   inkscape:export-xdpi="83.138206"
   inkscape:export-ydpi="83.138206">
  <metadata
     id="metadata10">
    <rdf:RDF>
      <cc:Work
         rdf:about="">
        <dc:format>image/svg+xml</dc:format>
        <dc:type
           rdf:resource="http://purl.org/dc/dcmitype/StillImage" />
        <dc:title></dc:title>
      </cc:Work>
    </rdf:RDF>
  </metadata>
  <defs
     id="defs8" />
  <sodipodi:namedview
     pagecolor="#ffffff"
     bordercolor="#666666"
     borderopacity="1"
     objecttolerance="10"
     gridtolerance="10"
     guidetolerance="10"
     inkscape:pageopacity="0"
     inkscape:pageshadow="2"
     inkscape:window-width="1301"
     inkscape:window-height="744"
     id="namedview6"
     showgrid="false"
     fit-margin-top="0"
     fit-margin-left="0"
     fit-margin-right="0"
     fit-margin-bottom="0"
     inkscape:zoom="0.4609375"
     inkscape:cx="709.33843"
     inkscape:cy="438.74046"
     inkscape:window-x="65"
     inkscape:window-y="24"
     inkscape:window-maximized="1"
     inkscape:current-layer="svg2" />
  <path
     d="m 334.38848,144.99376 c 2.08202,-3.15858 2.11232,-7.27589 0.0771,-10.46477 C 323.73841,117.67967 313.01019,106.79217 302.32449,95.94782 258.38989,51.360881 208.18874,48.117252 157.06751,59.149465 L 112.70716,14.130466 C 104.95899,6.267262 93.441911,3.4802575 82.994446,6.877421 L 19.277721,27.595882 C 8.959233,30.951097 5.8184419,43.92388 13.43886,51.657451 l 40.4863,41.087417 c -8.041944,2.900182 -16.083236,5.714632 -23.951077,8.272982 -3.998467,1.30011 -6.684703,4.96893 -6.715666,9.172 l -0.402029,54.554 c -0.03096,4.20307 2.600914,7.91105 6.579737,9.26998 7.829293,2.67402 15.785049,5.64923 23.783365,8.66762 l -41.087358,40.48633 c -7.6904083,7.57787 -4.698553,20.63866 5.483592,24.14494 l 63.361907,21.61206 c 10.43886,3.59399 21.996339,0.89123 29.816329,-6.81437 l 45.10546,-44.44548 c 50.91116,11.65543 101.32614,9.15323 145.69708,-34.56856 10.93013,-10.68497 21.81765,-21.41321 32.79198,-38.10261 z M 228.7699,159.5703 c -11.28166,-11.44916 -11.14579,-29.89118 0.30343,-41.17282 11.44917,-11.28167 29.89116,-11.14578 41.17281,0.30339 11.28165,11.44915 11.14579,29.89118 -0.30338,41.17286 -11.44922,11.28163 -29.89121,11.14573 -41.17286,-0.30343 z"
     id="path4"
     inkscape:connector-curvature="0"
     style="fill:#5599ff;fill-opacity:1" />
  <path
     d="m 663.45878,144.99377 c 2.08203,-3.15858 2.11233,-7.27589 0.0771,-10.46477 C 652.80871,117.67968 642.08049,106.79218 631.39479,95.94782 587.46019,51.360886 537.25905,48.117257 486.13782,59.149469 L 441.77747,14.13047 C 434.0293,6.267266 422.51222,3.4802615 412.06475,6.877426 l -63.71672,20.71846 c -10.31849,3.355215 -13.45928,16.327998 -5.83886,24.061569 l 40.4863,41.087422 c -8.04194,2.900183 -16.08324,5.714623 -23.95108,8.272983 -3.99846,1.30011 -6.6847,4.96893 -6.71567,9.172 l -0.40203,54.554 c -0.031,4.20307 2.60092,7.91105 6.57974,9.26998 7.8293,2.67402 15.78505,5.64922 23.78337,8.66762 l -41.08736,40.48633 c -7.69041,7.57787 -4.69856,20.63866 5.48359,24.14494 l 63.3619,21.61206 c 10.43887,3.59398 21.99634,0.89123 29.81633,-6.81437 l 45.10547,-44.44548 c 50.91116,11.65543 101.32614,9.15323 145.69708,-34.56856 10.93013,-10.68497 21.81765,-21.41321 32.79197,-38.10261 z m -105.61857,14.57654 c -11.28166,-11.44916 -11.14579,-29.89118 0.30343,-41.17282 11.44916,-11.28167 29.89115,-11.14579 41.1728,0.30338 11.28166,11.44916 11.14579,29.89119 -0.30337,41.17286 -11.44922,11.28164 -29.89121,11.14574 -41.17286,-0.30342 z"
     id="path4-7"
     inkscape:connector-curvature="0"
     style="fill:#5599ff;fill-opacity:1" />
  <path
     d="m 990.83282,144.99377 c 2.08205,-3.15858 2.11233,-7.27589 0.0772,-10.46477 -10.7272,-16.84932 -21.45549,-27.73682 -32.1412,-38.58118 C 914.83429,51.360886 864.63309,48.117257 813.51188,59.149469 L 769.15153,14.13047 C 761.40336,6.267266 749.88628,3.4802615 739.43882,6.877426 l -63.71672,20.71846 c -10.31849,3.355215 -13.45928,16.327998 -5.83886,24.061569 l 40.4863,41.087422 c -8.04195,2.900183 -16.08325,5.714623 -23.95108,8.272983 -3.99847,1.30011 -6.68471,4.96893 -6.71567,9.172 l -0.40203,54.554 c -0.0309,4.20307 2.60091,7.91105 6.57974,9.26998 7.82929,2.67402 15.78505,5.64922 23.78337,8.66762 l -41.08737,40.48633 c -7.6904,7.57787 -4.69855,20.63866 5.4836,24.14494 l 63.3619,21.61206 c 10.43886,3.59398 21.99634,0.89123 29.81633,-6.81437 l 45.10546,-44.44548 c 50.91119,11.65543 101.32612,9.15323 145.69709,-34.56856 10.93014,-10.68497 21.81762,-21.41321 32.79194,-38.10261 z m -105.61859,14.57654 c -11.2816,-11.44916 -11.14573,-29.89118 0.30346,-41.17282 11.44919,-11.28167 29.8912,-11.14579 41.1728,0.30338 11.28168,11.44916 11.14582,29.89119 -0.30337,41.17286 -11.44919,11.28164 -29.8912,11.14574 -41.17289,-0.30342 z"
     id="path4-5"
     inkscape:connector-curvature="0"
     style="fill:#5599ff;fill-opacity:1" />
  <path
     d="m 334.38848,412.99948 c 2.08202,-3.15858 2.11232,-7.27589 0.0771,-10.46476 C 323.73842,385.68539 313.0102,374.79789 302.3245,363.95354 258.3899,319.3666 208.18875,316.12297 157.06752,327.15518 L 112.70717,282.13619 C 104.959,274.27298 93.441921,271.48598 82.994456,274.88314 L 19.277721,295.6016 c -10.318488,3.35522 -13.4592787,16.328 -5.838861,24.06157 l 40.4863,41.08742 c -8.041944,2.90019 -16.083236,5.71463 -23.951077,8.27298 -3.998467,1.30012 -6.684703,4.96894 -6.715666,9.172 l -0.402029,54.554 c -0.03096,4.20308 2.600914,7.91105 6.579737,9.26999 7.829293,2.67401 15.785049,5.64922 23.783365,8.66761 L 12.132132,491.1735 c -7.690408,7.57787 -4.698553,20.63866 5.483592,24.14494 l 63.361907,21.61207 c 10.43886,3.59398 21.996339,0.89122 29.816329,-6.81438 l 45.10546,-44.44547 c 50.91116,11.65542 101.32614,9.15322 145.69708,-34.56857 10.93013,-10.68497 21.81765,-21.41321 32.79198,-38.10261 z M 228.7699,427.57602 c -11.28166,-11.44916 -11.14579,-29.89118 0.30343,-41.17281 11.44917,-11.28168 29.89116,-11.14579 41.17281,0.30338 11.28165,11.44915 11.14579,29.89118 -0.30338,41.17286 -11.44922,11.28163 -29.89121,11.14574 -41.17286,-0.30343 z"
     id="path4-3"
     inkscape:connector-curvature="0"
     style="fill:#5599ff;fill-opacity:1" />
  <path
     d="m 663.45878,412.99949 c 2.08203,-3.15858 2.11233,-7.27589 0.0771,-10.46477 -10.72717,-16.84932 -21.45539,-27.73682 -32.14109,-38.58117 -43.9346,-44.58694 -94.13574,-47.83058 -145.25697,-36.79837 l -44.36035,-45.01899 c -7.74817,-7.86321 -19.26525,-10.65021 -29.71272,-7.25305 l -63.71672,20.71847 c -10.31849,3.35521 -13.45928,16.32799 -5.83886,24.06156 l 40.4863,41.08743 c -8.04194,2.90018 -16.08324,5.71463 -23.95108,8.27298 -3.99846,1.30011 -6.6847,4.96893 -6.71567,9.172 l -0.40203,54.554 c -0.031,4.20307 2.60092,7.91105 6.57974,9.26998 7.8293,2.67402 15.78505,5.64923 23.78337,8.66762 l -41.08736,40.48633 c -7.69041,7.57787 -4.69856,20.63866 5.48359,24.14494 l 63.3619,21.61206 c 10.43887,3.59399 21.99634,0.89123 29.81633,-6.81437 l 45.10547,-44.44548 c 50.91116,11.65543 101.32614,9.15323 145.69708,-34.56856 10.93013,-10.68497 21.81765,-21.41321 32.79197,-38.10261 z m -105.61857,14.57654 c -11.28166,-11.44916 -11.14579,-29.89118 0.30343,-41.17282 11.44916,-11.28167 29.89115,-11.14579 41.1728,0.30338 11.28166,11.44916 11.14579,29.89119 -0.30337,41.17287 -11.44922,11.28163 -29.89121,11.14573 -41.17286,-0.30343 z"
     id="path4-7-5"
     inkscape:connector-curvature="0"
     style="fill:#5599ff;fill-opacity:1" />
  <path
     d="m 990.83282,412.99949 c 2.08205,-3.15858 2.11233,-7.27589 0.0772,-10.46477 -10.7272,-16.84932 -21.45549,-27.73682 -32.1412,-38.58117 -43.93453,-44.58694 -94.13573,-47.83058 -145.25694,-36.79837 l -44.36035,-45.01899 c -7.74817,-7.86321 -19.26525,-10.65021 -29.71271,-7.25305 l -63.71672,20.71847 c -10.31849,3.35521 -13.45928,16.32799 -5.83886,24.06156 l 40.4863,41.08743 c -8.04195,2.90018 -16.08325,5.71463 -23.95108,8.27298 -3.99847,1.30011 -6.68471,4.96893 -6.71567,9.172 l -0.40203,54.554 c -0.0309,4.20307 2.60091,7.91105 6.57974,9.26998 7.82929,2.67402 15.78505,5.64923 23.78337,8.66762 l -41.08737,40.48633 c -7.6904,7.57787 -4.69855,20.63866 5.4836,24.14494 l 63.3619,21.61206 c 10.43886,3.59399 21.99634,0.89123 29.81633,-6.81437 l 45.10546,-44.44548 c 50.91119,11.65543 101.32612,9.15323 145.69709,-34.56856 10.93014,-10.68497 21.81762,-21.41321 32.79194,-38.10261 z m -105.61859,14.57654 c -11.2816,-11.44916 -11.14573,-29.89118 0.30346,-41.17282 11.44919,-11.28167 29.8912,-11.14579 41.1728,0.30338 11.28168,11.44916 11.14582,29.89119 -0.30337,41.17287 -11.44919,11.28163 -29.8912,11.14573 -41.17289,-0.30343 z"
     id="path4-5-6"
     inkscape:connector-curvature="0"
     style="fill:#5599ff;fill-opacity:1" />
  <path
     d="m 1318.8328,144.99377 c 2.0821,-3.15858 2.1123,-7.27589 0.077,-10.46477 -10.727,-16.84932 -21.4553,-27.73682 -32.141,-38.581179 -43.9345,-44.586934 -94.1357,-47.830563 -145.2569,-36.798351 l -44.3604,-45.019 c -7.7481,-7.8632035 -19.2652,-10.650208 -29.7127,-7.2530435 l -63.7167,20.7184605 c -10.31849,3.355215 -13.45928,16.327998 -5.83886,24.061569 l 40.48626,41.087422 c -8.0419,2.900183 -16.0832,5.714623 -23.951,8.272982 -3.9985,1.30011 -6.6848,4.96893 -6.7157,9.172 l -0.402,54.554 c -0.031,4.20307 2.6009,7.91105 6.5797,9.26998 7.8293,2.67402 15.785,5.64922 23.7834,8.66762 l -41.0874,40.48633 c -7.6904,7.57787 -4.69855,20.63866 5.4836,24.14494 l 63.3619,21.61206 c 10.4389,3.59398 21.9963,0.89123 29.8163,-6.81437 l 45.1055,-44.44548 c 50.9112,11.65543 101.3261,9.15323 145.6971,-34.56856 10.9301,-10.68497 21.8176,-21.41321 32.7919,-38.10261 z m -105.6186,14.57654 c -11.2816,-11.44916 -11.1457,-29.89118 0.3035,-41.17282 11.4492,-11.28167 29.8912,-11.14579 41.1728,0.30338 11.2817,11.44916 11.1458,29.89119 -0.3034,41.17286 -11.4492,11.28164 -29.8912,11.14574 -41.1729,-0.30342 z"
     id="path4-5-2"
     inkscape:connector-curvature="0"
     style="fill:#5599ff;fill-opacity:1" />
  <path
     d="m 1318.8328,412.99949 c 2.0821,-3.15858 2.1123,-7.27589 0.077,-10.46477 -10.727,-16.84932 -21.4553,-27.73682 -32.141,-38.58117 -43.9345,-44.58694 -94.1357,-47.83058 -145.2569,-36.79837 l -44.3604,-45.01899 c -7.7481,-7.86321 -19.2652,-10.65021 -29.7127,-7.25305 l -63.7167,20.71847 c -10.31849,3.35521 -13.45928,16.32799 -5.83886,24.06156 l 40.48626,41.08743 c -8.0419,2.90018 -16.0832,5.71463 -23.951,8.27298 -3.9985,1.30011 -6.6848,4.96893 -6.7157,9.172 l -0.402,54.554 c -0.031,4.20307 2.6009,7.91105 6.5797,9.26998 7.8293,2.67402 15.785,5.64923 23.7834,8.66762 l -41.0874,40.48633 c -7.6904,7.57787 -4.69855,20.63866 5.4836,24.14494 l 63.3619,21.61206 c 10.4389,3.59399 21.9963,0.89123 29.8163,-6.81437 l 45.1055,-44.44548 c 50.9112,11.65543 101.3261,9.15323 145.6971,-34.56856 10.9301,-10.68497 21.8176,-21.41321 32.7919,-38.10261 z m -105.6186,14.57654 c -11.2816,-11.44916 -11.1457,-29.89118 0.3035,-41.17282 11.4492,-11.28167 29.8912,-11.14579 41.1728,0.30338 11.2817,11.44916 11.1458,29.89119 -0.3034,41.17287 -11.4492,11.28163 -29.8912,11.14573 -41.1729,-0.30343 z"
     id="path4-5-6-9"
     inkscape:connector-curvature="0"
     style="fill:#5599ff;fill-opacity:1" />
</svg>
