<?xml version="1.0" encoding="UTF-8" standalone="no"?>
<svg
   xmlns:dc="http://purl.org/dc/elements/1.1/"
   xmlns:cc="http://creativecommons.org/ns#"
   xmlns:rdf="http://www.w3.org/1999/02/22-rdf-syntax-ns#"
   xmlns:svg="http://www.w3.org/2000/svg"
   xmlns="http://www.w3.org/2000/svg"
   xmlns:sodipodi="http://sodipodi.sourceforge.net/DTD/sodipodi-0.dtd"
   xmlns:inkscape="http://www.inkscape.org/namespaces/inkscape"
   aria-hidden="true"
   data-prefix="fas"
   data-icon="rocket"
   class="svg-inline--fa fa-rocket fa-w-16"
   role="img"
   viewBox="0 0 1336.8814 881.28815"
   id="svg2"
   version="1.1"
   inkscape:version="0.91 r13725"
   sodipodi:docname="ulaziny_img.svg"
   width="1336.8813"
   height="881.28815"
   inkscape:export-filename="/home/jedi/Pictures/doika/rocket-solid.png"
   inkscape:export-xdpi="83.138206"
   inkscape:export-ydpi="83.138206">
  <metadata
     id="metadata10">
    <rdf:RDF>
      <cc:Work
         rdf:about="">
        <dc:format>image/svg+xml</dc:format>
        <dc:type
           rdf:resource="http://purl.org/dc/dcmitype/StillImage" />
        <dc:title></dc:title>
      </cc:Work>
    </rdf:RDF>
  </metadata>
  <defs
     id="defs8" />
  <sodipodi:namedview
     pagecolor="#ffffff"
     bordercolor="#666666"
     borderopacity="1"
     objecttolerance="10"
     gridtolerance="10"
     guidetolerance="10"
     inkscape:pageopacity="0"
     inkscape:pageshadow="2"
     inkscape:window-width="1855"
     inkscape:window-height="1056"
     id="namedview6"
     showgrid="false"
     fit-margin-top="0"
     fit-margin-left="0"
     fit-margin-right="0"
     fit-margin-bottom="0"
     inkscape:zoom="0.4609375"
     inkscape:cx="908.59557"
     inkscape:cy="438.74046"
     inkscape:window-x="65"
     inkscape:window-y="24"
     inkscape:window-maximized="1"
     inkscape:current-layer="svg2" />
  <rect
     style="opacity:1;fill:#333333;fill-opacity:1;fill-rule:nonzero;stroke:#80b3ff;stroke-width:20;stroke-linecap:round;stroke-linejoin:round;stroke-miterlimit:4;stroke-dasharray:none;stroke-opacity:1"
     id="rect4134"
     width="1316.8813"
     height="861.28815"
     x="10"
     y="10" />
  <path
     d="m 654.64834,168.76565 c -0.4393,-5.18753 -3.91293,-9.66412 -8.82881,-11.37802 -25.94547,-9.07836 -46.81481,-11.71116 -67.60133,-14.33351 -85.46487,-10.78195 -142.49431,28.46475 -188.36064,83.92712 l -86.29301,-10.88642 c -15.0723,-1.90147 -29.89566,4.89415 -38.29618,17.46389 l -51.23276,76.65991 c -8.2968,12.41455 -0.64399,29.11285 14.17986,30.98297 l 78.75687,9.93569 c -6.22337,9.98389 -12.51911,19.87451 -18.84541,29.34061 -3.21502,4.81065 -2.99437,11.06431 0.55163,15.63417 l 46.02552,59.3149 c 3.546,4.56986 9.54892,6.33677 15.00732,4.41726 10.74071,-3.7771 21.8746,-7.33633 33.0913,-10.8851 l -9.93568,78.75688 c -1.85968,14.74104 12.49759,26.31171 26.49049,21.4305 l 86.89934,-30.5987 c 14.34507,-5.00504 24.53693,-17.76945 26.42795,-32.75893 l 10.90732,-86.45866 c 64.9608,-30.75828 117.32817,-76.39829 128.05788,-161.44909 2.71564,-20.85888 5.34844,-41.72822 2.99834,-69.11547 z M 552.88927,274.47126 c -21.94592,-2.76862 -37.50487,-22.82004 -34.73625,-44.76597 2.76862,-21.94592 22.82004,-37.50487 44.76597,-34.73625 21.94592,2.76862 37.50486,22.82005 34.73624,44.76597 -2.76862,21.94593 -22.82004,37.50487 -44.76596,34.73625 z"
     id="path4"
     inkscape:connector-curvature="0"
     style="fill:#5599ff;fill-opacity:1" />
  <rect
     style="opacity:1;fill:#808080;fill-opacity:1;fill-rule:nonzero;stroke:none;stroke-width:20;stroke-linecap:round;stroke-linejoin:round;stroke-miterlimit:4;stroke-dasharray:none;stroke-opacity:1"
     id="rect4138"
     width="16.874683"
     height="222.43901"
     x="1090.8185"
     y="116.24579"
     transform="matrix(0.95145629,0.3077839,-0.3077839,0.95145629,0,0)" />
  <path
     style="opacity:1;fill:#c87137;fill-opacity:1;fill-rule:nonzero;stroke:none;stroke-width:20;stroke-linecap:round;stroke-linejoin:round;stroke-miterlimit:4;stroke-dasharray:none;stroke-opacity:1"
     id="path4136"
     sodipodi:type="arc"
     sodipodi:cx="941.26086"
     sodipodi:cy="665.49097"
     sodipodi:rx="81.718803"
     sodipodi:ry="81.718803"
     sodipodi:start="0"
     sodipodi:end="6.2497059"
     d="m 1022.9797,665.49097 a 81.718803,81.718803 0 0 1 -81.03487,81.71594 81.718803,81.718803 0 0 1 -82.39132,-80.34806 81.718803,81.718803 0 0 1 79.65565,-83.06093 81.718803,81.718803 0 0 1 83.72474,78.95766"
     sodipodi:open="true" />
  <path
     style="fill:#f9f9f9;fill-rule:evenodd;stroke:#f9f9f9;stroke-width:1px;stroke-linecap:butt;stroke-linejoin:miter;stroke-opacity:1"
     d="m 803.30174,313.14176 110.45247,-59.82843 322.15309,81.3053 -7.6703,173.34902 -409.59464,-133.4634 z"
     id="path4140"
     inkscape:connector-curvature="0" />
  <text
     xml:space="preserve"
     style="font-style:normal;font-variant:normal;font-weight:normal;font-stretch:normal;font-size:99.36566162px;line-height:125%;font-family:'Ubuntu Mono';-inkscape-font-specification:'Ubuntu Mono';letter-spacing:0px;word-spacing:0px;fill:#333333;fill-opacity:1;stroke:none;stroke-width:1px;stroke-linecap:butt;stroke-linejoin:miter;stroke-opacity:1"
     x="895.01166"
     y="155.06183"
     id="text4142"
     sodipodi:linespacing="125%"
     transform="matrix(0.97456303,0.22411357,-0.22411357,0.97456303,0,0)"><tspan
       sodipodi:role="line"
       id="tspan4144"
       x="895.01166"
       y="155.06183">улазіны!</tspan></text>
  <path
     style="fill:none;fill-rule:evenodd;stroke:#ff2a2a;stroke-width:30;stroke-linecap:round;stroke-linejoin:round;stroke-miterlimit:4;stroke-dasharray:none;stroke-opacity:1"
     d="m 228.02842,443.53704 c 0,0 3.06813,49.08999 33.74937,65.96468 30.68124,16.87468 30.68124,16.87468 30.68124,16.87468"
     id="path4146"
     inkscape:connector-curvature="0" />
  <path
     style="fill:none;fill-rule:evenodd;stroke:#d45500;stroke-width:30;stroke-linecap:round;stroke-linejoin:round;stroke-miterlimit:4;stroke-dasharray:none;stroke-opacity:1"
     d="m 149.79125,415.92392 c 0,0 -16.87468,115.05466 59.82843,142.66778 76.7031,27.61312 75.16904,27.61312 75.16904,27.61312"
     id="path4148"
     inkscape:connector-curvature="0" />
  <path
     style="fill:none;fill-rule:evenodd;stroke:#ffd42a;stroke-width:30;stroke-linecap:round;stroke-linejoin:round;stroke-miterlimit:4;stroke-dasharray:none;stroke-opacity:1"
     d="m 109.90564,530.97859 c 0,0 -12.2725,93.57779 78.23717,127.32716 89.40725,33.33829 127.32716,10.73843 127.32716,10.73843"
     id="path4150"
     inkscape:connector-curvature="0"
     sodipodi:nodetypes="csc" />
  <path
     style="opacity:1;fill:#333333;fill-opacity:1;fill-rule:nonzero;stroke:#333333;stroke-width:18.21547508;stroke-linecap:round;stroke-linejoin:round;stroke-miterlimit:4;stroke-dasharray:none;stroke-opacity:1"
     id="path4155"
     sodipodi:type="arc"
     sodipodi:cx="467.34213"
     sodipodi:cy="303.93738"
     sodipodi:rx="30.039448"
     sodipodi:ry="30.039448"
     sodipodi:start="0"
     sodipodi:end="6.2497099"
     sodipodi:open="true"
     d="m 497.38158,303.93738 a 30.039448,30.039448 0 0 1 -29.78805,30.03839 30.039448,30.039448 0 0 1 -30.28664,-29.53562 30.039448,30.039448 0 0 1 29.28113,-30.53275 30.039448,30.039448 0 0 1 30.77673,29.02458" />
</svg>
