<?xml version="1.0" encoding="UTF-8" standalone="no"?>
<!-- Created with Inkscape (http://www.inkscape.org/) -->

<svg
   xmlns:dc="http://purl.org/dc/elements/1.1/"
   xmlns:cc="http://creativecommons.org/ns#"
   xmlns:rdf="http://www.w3.org/1999/02/22-rdf-syntax-ns#"
   xmlns:svg="http://www.w3.org/2000/svg"
   xmlns="http://www.w3.org/2000/svg"
   xmlns:sodipodi="http://sodipodi.sourceforge.net/DTD/sodipodi-0.dtd"
   xmlns:inkscape="http://www.inkscape.org/namespaces/inkscape"
   width="744.09448819"
   height="1052.3622047"
   id="svg2"
   version="1.1"
   inkscape:version="0.48.4 r9939"
   sodipodi:docname="New document 1">
  <defs
     id="defs4" />
  <sodipodi:namedview
     id="base"
     pagecolor="#ffffff"
     bordercolor="#666666"
     borderopacity="1.0"
     inkscape:pageopacity="0.0"
     inkscape:pageshadow="2"
     inkscape:zoom="0.35"
     inkscape:cx="375"
     inkscape:cy="520"
     inkscape:document-units="px"
     inkscape:current-layer="layer1"
     showgrid="false"
     inkscape:window-width="1301"
     inkscape:window-height="744"
     inkscape:window-x="65"
     inkscape:window-y="24"
     inkscape:window-maximized="1" />
  <metadata
     id="metadata7">
    <rdf:RDF>
      <cc:Work
         rdf:about="">
        <dc:format>image/svg+xml</dc:format>
        <dc:type
           rdf:resource="http://purl.org/dc/dcmitype/StillImage" />
        <dc:title></dc:title>
      </cc:Work>
    </rdf:RDF>
  </metadata>
  <g
     inkscape:label="Layer 1"
     inkscape:groupmode="layer"
     id="layer1">
    <path
       style="font-size:821.89135742px;font-style:normal;font-variant:normal;font-weight:normal;font-stretch:normal;line-height:125%;letter-spacing:0px;word-spacing:0px;fill:#000000;fill-opacity:1;stroke:none;font-family:Ubuntu Mono;-inkscape-font-specification:Ubuntu Mono"
       d="M 507.9375,333.375 369.03125,545.40625 255.6875,374.375 l -91.40625,0 154.625,227.75 c -36.71132,52.6013 -71.49948,103.82629 -104.375,153.6875 -32.3278,49.86151 -60.81205,98.90742 -85.46875,147.125 l 87.9375,0 c 8.2188,-16.43781 18.08715,-34.52457 29.59375,-54.25 12.05426,-20.27325 24.63083,-41.09948 37.78125,-62.46875 13.698,-21.91696 27.95575,-43.56816 42.75,-64.9375 14.79381,-21.9169 29.05156,-42.44731 42.75,-61.625 13.69792,19.17769 27.92442,39.7081 42.71875,61.625 14.79373,21.36934 29.05148,43.02054 42.75,64.9375 13.69783,21.36927 26.30565,42.1955 37.8125,62.46875 11.50608,19.72543 21.37443,37.81219 29.59375,54.25 l 89.5625,0 C 587.10735,854.17199 558.06271,804.56568 525.1875,754.15625 492.31146,703.74711 457.25873,651.99298 420,598.84375 L 599.1875,333.375 l -91.25,0 z"
       id="text2985"
       inkscape:connector-curvature="0" />
    <g
       style="font-size:300.45562744px;font-style:normal;font-variant:normal;font-weight:normal;font-stretch:normal;line-height:125%;letter-spacing:0px;word-spacing:0px;fill:#000000;fill-opacity:1;stroke:none;font-family:Ubuntu Mono;-inkscape-font-specification:Ubuntu Mono"
       id="text2989">
      <path
         d="m 139.7539,312.56604 c 2.20333,1.00149 5.00758,1.90285 8.41276,2.7041 3.60545,1.00149 7.11076,1.50225 10.51594,1.50228 11.01667,-3e-5 19.62973,-2.50383 25.83919,-7.51139 6.20936,-4.80731 11.81786,-12.7193 16.82551,-23.736 -12.61919,-24.03642 -24.4371,-49.47498 -35.45376,-76.31573 -10.81642,-27.0409 -19.83008,-54.38234 -27.04101,-82.02438 l 30.04557,0 c 2.2033,9.01381 4.80725,18.72854 7.81184,29.14419 3.20482,10.41592 6.71013,21.13216 10.51595,32.14876 3.80571,11.01679 7.91194,22.03348 12.31868,33.05012 4.40661,11.01675 9.01359,21.63284 13.82096,31.84829 7.61145,-21.03184 14.22147,-41.86341 19.83007,-62.49477 5.6084,-20.63117 10.91644,-41.86335 15.92415,-63.69659 l 28.84374,0 c -7.21107,29.44478 -15.22322,57.78773 -24.03645,85.02894 -8.81348,27.04105 -18.3279,52.37945 -28.54329,76.01527 -4.00616,9.01366 -8.21253,16.72535 -12.61913,23.13509 -4.20646,6.60999 -8.91359,12.01818 -14.12142,16.2246 -5.20795,4.20633 -11.11691,7.31104 -17.72688,9.31413 -6.40976,2.00298 -13.72084,3.0045 -21.93326,3.00455 -2.20336,-5e-5 -4.50686,-0.20036 -6.91048,-0.60091 -2.40366,-0.20036 -4.8073,-0.60097 -7.21094,-1.20182 -2.20334,-0.40066 -4.30653,-0.90142 -6.30956,-1.50228 -1.80274,-0.60096 -3.10471,-1.10172 -3.90593,-1.50228 l 5.10775,-22.53417"
         style="font-family:Ubuntu;-inkscape-font-specification:Ubuntu"
         id="path2997" />
      <path
         d="m 445.04498,205.30338 c -1.6e-4,12.4189 -1.80289,23.6359 -5.4082,33.65103 -3.60562,10.01522 -8.71336,18.62828 -15.32324,25.83919 -6.40985,7.21094 -14.12154,12.81944 -23.13508,16.82551 -9.01378,3.80577 -18.82865,5.70865 -29.44465,5.70866 -10.61618,-10e-6 -20.43106,-1.90289 -29.44466,-5.70866 -9.01371,-4.00607 -16.82555,-9.61457 -23.43553,-16.82551 -6.40975,-7.21091 -11.41734,-15.82397 -15.02279,-25.83919 -3.60548,-10.01513 -5.40821,-21.23213 -5.4082,-33.65103 -1e-5,-12.21844 1.80272,-23.33528 5.4082,-33.35057 3.60545,-10.21537 8.61304,-18.92858 15.02279,-26.13964 6.60998,-7.21079 14.42182,-12.71914 23.43553,-16.52506 9.0136,-4.00592 18.82848,-6.00895 29.44466,-6.00911 10.616,1.6e-4 20.43087,2.00319 29.44465,6.00911 9.01354,3.80592 16.72523,9.31427 23.13508,16.52506 6.60988,7.21106 11.71762,15.92427 15.32324,26.13964 3.60531,10.01529 5.40804,21.13213 5.4082,33.35057 m -29.1442,0 c -1.3e-4,-17.62663 -4.0062,-31.54773 -12.01822,-41.76333 -7.81196,-10.41567 -18.5282,-15.62356 -32.14875,-15.62369 -13.62073,1.3e-4 -24.43713,5.20802 -32.44921,15.62369 -7.8119,10.2156 -11.71782,24.1367 -11.71777,41.76333 -5e-5,17.62679 3.90587,31.64804 11.71777,42.06379 8.01208,10.21552 18.82848,15.32326 32.44921,15.32324 13.62055,2e-5 24.33679,-5.10772 32.14875,-15.32324 8.01202,-10.41575 12.01809,-24.437 12.01822,-42.06379"
         style="font-family:Ubuntu;-inkscape-font-specification:Ubuntu"
         id="path2999" />
      <path
         d="m 608.74635,278.91501 c -6.40986,1.60243 -14.92276,3.30501 -25.53872,5.10775 -10.41591,1.80273 -22.53428,2.70409 -36.35514,2.7041 -12.0183,-10e-6 -22.13362,-1.70259 -30.34601,-5.10775 -8.21251,-3.60546 -14.82252,-8.61305 -19.83008,-15.02278 -5.00762,-6.4097 -8.61308,-13.92108 -10.8164,-22.53417 -2.20336,-8.81332 -3.30503,-18.52804 -3.30501,-29.1442 l 0,-87.73304 27.94237,0 0,81.72393 c -5e-5,19.02891 3.00451,32.64955 9.01367,40.86196 6.00905,8.21248 16.12438,12.31871 30.34602,12.31868 3.00446,3e-5 6.10917,-0.10013 9.31413,-0.30045 3.20475,-0.20028 6.20931,-0.40059 9.01366,-0.60091 2.80415,-0.40059 5.30794,-0.70104 7.51139,-0.90137 2.40353,-0.40058 4.10611,-0.80119 5.10775,-1.20182 l 0,-131.90002 27.94237,0 0,151.73009"
         style="font-family:Ubuntu;-inkscape-font-specification:Ubuntu"
         id="path3001" />
    </g>
  </g>
</svg>
