<?xml version="1.0" encoding="UTF-8" standalone="no"?>
<!-- Created with Inkscape (http://www.inkscape.org/) -->

<svg
   xmlns:dc="http://purl.org/dc/elements/1.1/"
   xmlns:cc="http://creativecommons.org/ns#"
   xmlns:rdf="http://www.w3.org/1999/02/22-rdf-syntax-ns#"
   xmlns:svg="http://www.w3.org/2000/svg"
   xmlns="http://www.w3.org/2000/svg"
   xmlns:sodipodi="http://sodipodi.sourceforge.net/DTD/sodipodi-0.dtd"
   xmlns:inkscape="http://www.inkscape.org/namespaces/inkscape"
   width="297mm"
   height="210mm"
   viewBox="0 0 1052.3622 744.09448"
   id="svg6188"
   version="1.1"
   inkscape:version="0.91 r13725"
   sodipodi:docname="piratbyran_logo_2.svg">
  <defs
     id="defs6190" />
  <sodipodi:namedview
     id="base"
     pagecolor="#ffffff"
     bordercolor="#666666"
     borderopacity="1.0"
     inkscape:pageopacity="0.0"
     inkscape:pageshadow="2"
     inkscape:zoom="0.35"
     inkscape:cx="321.32481"
     inkscape:cy="520"
     inkscape:document-units="px"
     inkscape:current-layer="layer1"
     showgrid="false"
     inkscape:window-width="1301"
     inkscape:window-height="744"
     inkscape:window-x="65"
     inkscape:window-y="24"
     inkscape:window-maximized="1" />
  <metadata
     id="metadata6193">
    <rdf:RDF>
      <cc:Work
         rdf:about="">
        <dc:format>image/svg+xml</dc:format>
        <dc:type
           rdf:resource="http://purl.org/dc/dcmitype/StillImage" />
        <dc:title></dc:title>
      </cc:Work>
    </rdf:RDF>
  </metadata>
  <g
     inkscape:label="Layer 1"
     inkscape:groupmode="layer"
     id="layer1"
     transform="translate(0,-308.26772)">
    <g
       transform="matrix(1.5078146,0,0,1.5078147,81.918241,288.15608)"
       id="g3">
      <path
         inkscape:connector-curvature="0"
         id="path5"
         d="m 512.475,315.628 -0.02,-0.008 0.02,0 -2.857,-3.2 c -1.779,-1.867 -2.317,-2.442 -2.987,-6.276 -0.081,-0.245 -0.081,-0.474 -0.081,-0.714 0,-1.982 1.358,-4.176 2.884,-6.689 2.168,-3.541 4.825,-7.902 4.825,-13.533 0,-0.361 0,-0.691 -0.037,-1.054 -0.484,-8.489 -6.533,-18.211 -15.397,-19.195 -10.408,-1.144 -19.09,4.857 -23.094,11.351 -1.235,2.007 -1.901,5.044 -2.609,8.262 -1.521,6.905 -3.247,14.726 -10.834,15.81 L 300.394,323.12 c -0.03,-0.151 -5.308,0.607 -6.087,0.713 -0.493,-0.113 -12.305,-3.01 -12.305,-3.01 -0.069,0.172 -159.092,-37.691 -159.092,-37.691 -7.464,-1.786 -8.462,-9.744 -9.324,-16.741 -0.391,-3.255 -0.772,-6.35 -1.814,-8.481 -3.389,-6.804 -11.466,-13.633 -21.917,-13.474 -8.942,0.147 -15.875,9.298 -17.145,17.673 -0.94,6.08 1.481,11.016 3.397,14.975 1.465,2.972 2.689,5.538 2.118,7.644 -1.052,3.739 -1.643,4.252 -3.596,5.958 l -3.146,2.915 c -5.25,5.367 -9.625,15.215 -7.786,23.654 0.77,3.418 3.884,6.512 8.802,8.695 6.022,2.647 15.344,3.935 21.589,0.374 3.459,-1.978 6.175,-5.83 8.768,-9.563 4.11,-5.839 7.994,-11.368 14.329,-9.821 0,0 86.085,20.568 111.019,26.526 -11.581,1.674 -70.631,10.258 -70.631,10.258 -7.585,1.08 -11.43,-5.945 -14.833,-12.155 -1.555,-2.876 -3.052,-5.604 -4.803,-7.175 -5.657,-5.104 -15.673,-8.479 -25.349,-4.48 -8.243,3.438 -11.307,14.467 -9.438,22.738 1.384,6.007 5.452,9.71 8.705,12.665 2.413,2.238 4.532,4.149 4.756,6.314 0.408,3.871 0.069,4.587 -1.127,6.884 l -1.842,3.88 c -2.925,6.917 -3.362,17.686 1.451,24.836 1.958,2.891 5.982,4.613 11.365,4.844 6.621,0.271 15.726,-1.99 20.225,-7.593 2.497,-3.115 3.597,-7.689 4.652,-12.13 1.661,-6.934 3.22,-13.495 9.666,-14.417 l 100.558,-14.471 c 0,0 31.123,-4.406 31.61,-4.473 0.493,0.118 24.925,5.955 24.925,5.955 0.243,0.058 98.391,23.777 98.391,23.777 6.326,1.513 7.282,8.19 8.282,15.261 0.624,4.521 1.298,9.164 3.485,12.521 3.938,5.978 12.845,9.093 19.404,9.435 5.392,0.307 9.57,-1.024 11.784,-3.74 5.476,-6.665 6.035,-17.412 3.784,-24.592 l -1.466,-4.045 c -0.973,-2.371 -1.257,-3.116 -0.487,-6.933 0.442,-2.144 2.696,-3.854 5.36,-5.837 3.517,-2.656 7.883,-5.954 9.813,-11.801 2.678,-8.053 0.665,-19.315 -7.255,-23.529 -9.237,-4.889 -19.529,-2.495 -25.625,2.049 -1.9,1.423 -3.628,3.99 -5.472,6.704 -3.96,5.877 -8.447,12.524 -15.922,10.729 0,0 -45.347,-11.032 -62.912,-15.313 12.316,-1.736 106.476,-15.031 106.476,-15.031 6.466,-0.948 9.787,4.932 13.318,11.127 2.25,3.971 4.604,8.051 7.852,10.352 5.885,4.131 15.278,3.747 21.532,1.639 5.1,-1.715 8.496,-4.5 9.563,-7.813 0.628,-1.973 0.914,-4.04 0.914,-6.161 -10e-4,-6.709 -2.832,-13.684 -6.438,-18.117 z" />
      <path
         inkscape:connector-curvature="0"
         style="fill:#ffffff;stroke:#ffffff;stroke-width:8"
         id="path7"
         d="m 163.948,276.604 c 2.102,0.688 4.336,1.067 6.659,1.067 l 255.469,0 c 2.325,0 4.559,-0.379 6.667,-1.067 10.268,-1.499 18.215,-11.256 18.215,-23.012 l 0,-43.844 c 0,-4.818 -1.332,-9.309 -3.601,-13.036 l 0,-95.169 c 0,-11.712 -9.561,-21.257 -21.281,-21.257 l -255.469,0 c -11.724,0 -21.274,9.545 -21.274,21.257 l 0,95.169 c -2.268,3.722 -3.606,8.218 -3.606,13.036 l 0,43.844 c 0,11.756 7.96,21.513 18.221,23.012 z" />
      <path
         inkscape:connector-curvature="0"
         style="stroke:#000000;stroke-width:3"
         id="path9"
         d="m 163.948,276.604 c 2.102,0.688 4.336,1.067 6.662,1.067 l 255.466,0 c 2.325,0 4.559,-0.379 6.672,-1.067 10.268,-1.499 18.21,-11.256 18.21,-23.012 l 0,-43.844 c 0,-4.818 -1.326,-9.309 -3.601,-13.036 l 0,-95.173 c 0,-11.711 -9.556,-21.253 -21.281,-21.253 l -255.466,0 c -11.724,0 -21.273,9.542 -21.273,21.253 l 0,95.173 c -2.271,3.722 -3.609,8.218 -3.609,13.036 l 0,43.844 c -0.001,11.756 7.961,21.513 18.22,23.012 z" />
      <path
         inkscape:connector-curvature="0"
         style="fill:#ffffff"
         id="path11"
         d="m 267.422,148.339 61.867,0 0,25.827 -61.867,0 0,-25.827 z m -42.145,118.25 c -4.878,0 -8.815,-3.935 -8.815,-8.816 0,-4.88 3.937,-8.849 8.815,-8.849 4.884,0 8.85,3.969 8.85,8.849 -0.001,4.882 -3.966,8.816 -8.85,8.816 z m 2.047,-69.331 c -13.524,0 -24.464,-10.934 -24.464,-24.469 0,-13.513 10.94,-24.449 24.464,-24.449 13.506,0 24.475,10.937 24.475,24.449 0,13.535 -10.968,24.469 -24.475,24.469 z m 32.607,67.326 c -6.368,0 -11.537,-5.203 -11.537,-11.577 0,-6.386 5.168,-11.549 11.537,-11.549 6.392,0 11.58,5.163 11.58,11.549 0,6.374 -5.189,11.577 -11.58,11.577 z m 76.835,0 c -6.374,0 -11.565,-5.203 -11.565,-11.577 0,-6.386 5.191,-11.549 11.565,-11.549 6.386,0 11.543,5.163 11.543,11.549 0,6.374 -5.158,11.577 -11.543,11.577 z m 34.651,2.005 c -4.887,0 -8.838,-3.935 -8.838,-8.816 0,-4.88 3.951,-8.849 8.838,-8.849 4.887,0 8.832,3.969 8.832,8.849 0,4.882 -3.945,8.816 -8.832,8.816 z m -2.045,-69.331 c -13.506,0 -24.469,-10.934 -24.469,-24.469 0,-13.513 10.963,-24.449 24.469,-24.449 13.53,0 24.47,10.937 24.47,24.449 0,13.535 -10.94,24.469 -24.47,24.469 z" />
    </g>
  </g>
</svg>
