<?xml version="1.0" encoding="UTF-8" standalone="no"?>
<!-- Created with Inkscape (http://www.inkscape.org/) -->

<svg
   xmlns:dc="http://purl.org/dc/elements/1.1/"
   xmlns:cc="http://creativecommons.org/ns#"
   xmlns:rdf="http://www.w3.org/1999/02/22-rdf-syntax-ns#"
   xmlns:svg="http://www.w3.org/2000/svg"
   xmlns="http://www.w3.org/2000/svg"
   xmlns:sodipodi="http://sodipodi.sourceforge.net/DTD/sodipodi-0.dtd"
   xmlns:inkscape="http://www.inkscape.org/namespaces/inkscape"
   width="297mm"
   height="210mm"
   viewBox="0 0 1052.3622 744.09448"
   id="svg4218"
   version="1.1"
   inkscape:version="0.91 r13725"
   sodipodi:docname="dzilisia-darohaj.svg">
  <defs
     id="defs4220" />
  <sodipodi:namedview
     id="base"
     pagecolor="#ffffff"
     bordercolor="#666666"
     borderopacity="1.0"
     inkscape:pageopacity="0.0"
     inkscape:pageshadow="2"
     inkscape:zoom="0.35"
     inkscape:cx="743.45587"
     inkscape:cy="149.74209"
     inkscape:document-units="px"
     inkscape:current-layer="layer1"
     showgrid="false"
     showguides="true"
     inkscape:guide-bbox="true"
     inkscape:window-width="1301"
     inkscape:window-height="744"
     inkscape:window-x="65"
     inkscape:window-y="24"
     inkscape:window-maximized="1">
    <sodipodi:guide
       position="832.36571,341.43156"
       orientation="1,0"
       id="guide4808" />
    <sodipodi:guide
       position="175.76655,402.04071"
       orientation="1,0"
       id="guide4810" />
    <sodipodi:guide
       position="175.76655,434.36559"
       orientation="1,0"
       id="guide4812" />
    <sodipodi:guide
       position="200.71429,518.92857"
       orientation="1,0"
       id="guide4814" />
  </sodipodi:namedview>
  <metadata
     id="metadata4223">
    <rdf:RDF>
      <cc:Work
         rdf:about="">
        <dc:format>image/svg+xml</dc:format>
        <dc:type
           rdf:resource="http://purl.org/dc/dcmitype/StillImage" />
        <dc:title></dc:title>
      </cc:Work>
    </rdf:RDF>
  </metadata>
  <g
     inkscape:label="Layer 1"
     inkscape:groupmode="layer"
     id="layer1"
     transform="translate(0,-308.26772)">
    <g
       id="g4203"
       transform="matrix(0.46740487,0,0,0.46740487,641.23971,464.02002)">
      <path
         style="fill:#000000;fill-rule:evenodd;stroke:#000000;stroke-width:1.07396913px;stroke-linecap:butt;stroke-linejoin:miter;stroke-opacity:1"
         d="m -941.42899,-52.098441 c -8.71222,12.258683 4.82645,29.814768 19.05904,40.894431 26.98551,21.0074303 67.61002,52.820458 67.61002,52.820458 -31.79243,-6.936751 -55.15365,-18.42797 -88.25425,-28.800289 0,0 -38.01929,-13.07432991 -43.3678,0.356291 -4.92049,12.355854 28.74965,27.665199 28.74965,27.665199 0,0 13.01987,7.594132 48.27827,13.560954 24.90613,4.214888 47.69247,1.975942 56.67363,6.153918 3.733,1.736565 1.90803,12.831418 1.90803,12.831418 1.19198,24.672885 8.98736,50.493501 26.31584,69.300061 7.3422,7.59411 17.81908,11.98777 17.81908,11.98777 0,0 1.34476,13.57878 -1.72402,17.89484 -2.1222,2.98478 -10.60768,3.80755 -16.37345,7.13397 -14.10333,8.1366 -27.66524,16.27319 -43.93834,27.12192 -16.2731,10.84872 -55.87,40.1409 -65.63377,50.44719 -9.76389,10.30629 -16.27269,16.27191 -17.35761,22.23871 -1.08482,5.9668 4.88154,21.6984 11.93323,30.37738 7.05168,8.67898 26.80419,26.76608 36.02561,33.81775 9.22142,7.05167 25.81196,16.08578 30.15144,25.30719 3.20306,6.80651 15.99466,11.04742 17.01613,21.15401 -11.75141,35.94289 -16.16625,49.11155 -28.03421,62.71176 -10.8487,11.9336 -30.74925,25.70593 -30.74926,29.50299 0,3.79705 -2.16975,12.47734 5.4244,13.01978 7.59414,0.54243 56.41274,9.76431 56.41274,9.76431 0,0 -0.54163,130.72644 -4.88111,149.71171 -4.33948,18.98528 -17.35887,44.47869 -22.24081,46.64844 -4.88194,2.16974 -5.96592,26.57949 -4.88111,29.8341 1.08493,3.25462 9.22067,1.62775 13.01769,4.33993 3.79713,2.71219 9.22102,32.00512 9.22102,32.00512 0,0 5.96735,3.79539 23.32527,4.33783 17.35803,0.54243 35.80185,2.17141 43.93834,-4.33783 8.1365,-6.50923 11.39077,-12.47738 11.93323,-23.86854 0.54246,-11.39117 1.08446,-29.29084 1.08446,-29.29084 0,0 -2.71224,-4.33908 10.84876,-3.79664 13.5609,0.54243 20.61353,-2.71301 22.24081,4.88111 1.62728,7.59411 4.33865,93.29942 4.88111,103.06327 0.54235,9.76386 2.17064,41.76653 5.96766,52.07282 3.79702,10.30629 4.33951,14.10423 18.98534,14.10423 14.64571,0 19.52733,-4.5e-4 20.0698,-9.7643 0.54246,-9.76386 2.17019,-23.86579 1.62774,-74.85481 -0.54236,-50.98901 1.08445,-88.41787 1.08445,-88.41787 0,0 3.79579,-0.001 14.10213,-2.171 10.30624,-2.16974 19.52779,-8.13661 24.40973,-13.56097 10.96097,-17.64566 15.71425,-33.84069 27.12191,-37.15575 13.5609,-3.79705 19.52863,-5.69604 19.52863,-5.69604 l 1.08445,9.22104 c 0,0 41.22494,-3.2542 52.6161,-3.79665 11.39116,-0.54243 10.30548,-7.05211 10.30548,-7.05211 l 0.54328,-30.37529 c 0,0 -7.05262,-7.05295 -24.953,-4.88321 -17.90038,2.16975 -43.39297,5.42439 -43.39297,5.42439 0,0 2.7105,8.68069 0.54076,11.9353 -21.45719,7.37435 -33.66563,8.56404 -42.85136,26.57781 -5.4244,10.84872 -7.05218,19.52821 -17.90088,22.78283 -10.84881,3.25461 -21.69754,1.62774 -21.69754,1.62774 0,0 -1.08353,-36.88548 -3.25338,-63.46486 -2.16974,-26.57938 -10.84921,-57.49932 -12.47649,-62.92369 -1.62728,-5.42436 -11.93487,-56.41362 -10.30759,-67.80478 1.62739,-11.39116 11.15381,-6.48228 35.7745,-22.64955 37.95191,-28.5406 40.8257,-52.9106 70.00098,-59.25738 9.76388,-1.62731 22.24077,3.25464 30.37737,8.13657 8.1365,4.88192 20.61186,14.64544 24.95133,23.32442 4.33948,8.67898 37.97149,54.7859 50.99004,68.34683 13.01844,13.56089 28.74926,35.25934 37.97068,41.22614 1.3034,0.84337 6.67476,-8.21827 8.43573,-7.17455 1.76754,1.04763 4.97558,10.84781 6.861,12.43408 2.42867,2.04334 6.3499,5.32038 7.93971,8.21055 1.00573,1.82836 -0.38566,3.66457 0.97558,4.41859 4.92664,2.72893 11.57626,-0.70765 14.29984,-1.61552 6.50922,-2.16975 57.49879,-40.95409 64.00812,-46.92089 6.50922,-5.9668 5.96732,-10.5789 1.62776,-17.63053 -0.58176,-0.94534 -3.14005,1.76989 -3.86866,0.60518 -4.70641,-7.52341 -10.38695,-22.30271 -18.37216,-22.30271 -3.72636,0 -13.78003,14.01566 -22.17612,19.08298 -12.38121,7.47248 -23.38786,6.95447 -23.38786,6.95447 0,0 10.84878,-20.34192 10.30632,-33.36039 -0.54246,-13.01847 -14.64545,-25.22172 -35.80049,-37.69776 -21.15494,-12.47603 -61.83923,-39.59841 -61.83923,-39.59841 0,0 -21.15468,-15.73159 -30.91856,-22.24082 -9.76389,-6.50924 -27.12192,-15.18659 -27.12192,-15.18659 0,0 -15.18756,1.62732 -32.00303,5.42438 -16.81556,3.79705 -32.54756,16.27271 -34.7173,9.22104 -2.16974,-7.05167 -6.50802,-21.15517 -5.96556,-43.39507 0.54236,-22.23989 1.08401,-40.14008 -5.96767,-58.04048 -7.05168,-17.9004 -23.69121,-38.13002 -34.53991,-47.35143 -10.8487,-9.22143 -36.52919,-33.83945 -44.12322,-38.17894 -7.59415,-4.33949 -20.06031,-3.42869 -22.7724,-8.85305 -2.7122,-5.42437 -3.25338,-11.39205 -3.25338,-11.39205 0,0 -1.62764,-8.67986 1.08446,-14.10423 2.7122,-5.42437 9.76348,-11.932 11.93322,-20.61098 2.16974,-8.67898 5.96603,-12.47741 4.8811,-29.29292 -1.0848,-16.81554 -8.13536,-37.969456 -19.52652,-49.360628 -20.70506,-23.566651 -37.43911,-22.945319 -47.79342,-21.051176 -10.62814,1.944237 -21.05005,3.52041 -24.69424,1.979494 -17.07364,-14.089961 -67.49575,-105.923838 -101.1624,-84.713171 z m 105.71522,290.366011 c 10e-6,0 6.50802,5.96643 8.67776,14.6454 2.16975,8.67899 -3.25379,67.80526 -4.8811,77.56911 -1.6273,9.76386 -9.22148,14.64499 -18.98534,15.72986 -9.76385,1.08488 -11.80335,-0.27884 -26.99156,-12.75488 -15.18822,-12.47603 -30.35971,-41.64701 -30.35971,-48.69868 0,-7.05167 35.11176,-27.50425 48.13024,-36.18323 13.01847,-8.67898 24.40971,-10.30758 24.40971,-10.30758 z m 105.16928,12.70933 c 4.54846,0.0896 9.20473,-0.49843 24.63026,10.96053 18.98528,14.10334 23.70927,50.10305 25.33657,65.29127 1.62731,15.18821 1.62646,37.96902 -0.54328,42.30851 -2.16975,4.33949 -19.52781,5.42565 -27.12192,4.88321 -7.5941,-0.54244 -17.3572,-20.07108 -21.15425,-24.95301 -3.79705,-4.88192 -13.56182,-29.83415 -16.81643,-43.39506 -3.25462,-13.56091 -2.71135,-29.29211 -2.16891,-36.88622 0.54244,-7.5941 6.50884,-15.1866 6.50884,-15.1866 0,0 2.16977,-1.62732 8.13657,-2.71219 1.11878,-0.20341 2.14289,-0.33111 3.19255,-0.31044 z"
         id="path4149"
         inkscape:connector-curvature="0"
         sodipodi:nodetypes="csccacsscccsssscsssccsscsscscssscsscssssccccccsccscccscsssccsssssssssssssscsscscsssssscccsscscccsssssscsssssssscss" />
      <path
         style="fill:#000000;fill-rule:evenodd;stroke:#000000;stroke-width:1.07396913px;stroke-linecap:butt;stroke-linejoin:miter;stroke-opacity:1"
         d="m -864.52634,87.098063 c 0,0 -65.00585,-0.816722 -76.71208,0 -16.4931,1.150682 -57.53406,8.438321 -62.90388,22.630057 -5.3699,14.19174 4.21914,19.56159 12.65747,20.3287 8.43833,0.76713 39.89028,-0.76712 65.20527,-11.89036 15.586,-6.84839 61.75322,-31.068397 61.75322,-31.068397 z"
         id="path4156"
         inkscape:connector-curvature="0"
         sodipodi:nodetypes="cssssc" />
      <path
         style="fill:#000000;fill-rule:evenodd;stroke:#000000;stroke-width:1.07396913px;stroke-linecap:butt;stroke-linejoin:miter;stroke-opacity:1"
         d="m -294.36331,496.73906 c 0,0 9.49264,-54.78607 7.59411,-65.09236 -1.89853,-10.30629 -7.05167,-23.05354 -7.05167,-23.05354 0,0 16.27309,7.86532 21.96867,13.5609 5.69558,5.69558 11.93359,10.84873 11.11994,16.27309 -0.81365,5.42436 -19.79892,38.7842 -22.23989,42.85248 -2.44096,4.06827 -11.39116,15.45943 -11.39116,15.45943 z"
         id="path4158"
         inkscape:connector-curvature="0" />
      <path
         style="fill:#000000;fill-rule:evenodd;stroke:#000000;stroke-width:1.07396913px;stroke-linecap:butt;stroke-linejoin:miter;stroke-opacity:1"
         d="m -245.54404,489.95861 c 0,0 13.28968,-27.12183 13.01847,-53.7012 -0.27122,-26.57938 -4.33949,-37.97054 -4.33949,-37.97054 0,0 17.62917,2.44096 22.78232,11.93359 5.15314,9.49264 11.11994,24.13842 10.03507,32.8174 -1.08487,8.67898 -12.20482,34.17349 -28.74912,42.03882 -16.54431,7.86533 -12.74725,4.88193 -12.74725,4.88193 z"
         id="path4160"
         inkscape:connector-curvature="0" />
      <path
         style="fill:#000000;fill-rule:evenodd;stroke:#000000;stroke-width:1.07396913px;stroke-linecap:butt;stroke-linejoin:miter;stroke-opacity:1"
         d="m 149.45782,307.33301 c -0.46882,-0.0116 -0.8747,0.006 -1.21031,0.0546 -10.73969,1.53425 -22.24501,13.80638 -22.24501,13.80638 L 66.166476,369.5226 c 0,0 -51.398289,44.49361 -60.6037403,49.09633 -9.205451,4.60273 -19.1762207,-1.53334 -19.1762207,-1.53334 0,0 -30.685428,-0.76742 -38.356639,2.30106 -7.671211,3.06848 -46.026951,70.57421 -50.629676,76.71118 -4.60273,6.13697 -29.15149,9.97317 -36.05557,11.50742 -6.90409,1.53424 -10.73969,9.97196 -10.73969,9.97196 0,0 -48.3292,56.00012 -59.83602,72.87677 -11.50681,16.87667 -6.13547,26.84923 -6.13547,26.84923 0,0 -0.76712,19.17923 5.36985,28.38467 6.13696,9.20545 31.45166,27.61636 50.62967,37.58892 19.17803,9.97258 31.45225,8.43653 40.6577,3.06669 9.20544,-5.36985 19.943937,-23.78045 19.943937,-23.78045 L 231.86397,794.50807 c 0,0 -13.80818,51.398 -10.73969,62.9048 3.06848,11.50682 19.17892,19.17802 36.05558,26.84923 16.87669,7.67121 46.02603,11.50562 62.9027,9.20425 16.87668,-2.30137 31.45346,-28.38257 31.45346,-28.38257 0,0 42.19104,-82.84874 47.56089,-98.95828 5.36984,-16.10954 -9.20601,-23.01513 -16.87726,-31.45345 -7.67115,-8.43834 -4.60212,-20.71167 -4.60212,-20.71167 0,0 23.01237,-46.02784 25.31378,-54.46617 2.3013,-8.43834 -1.53334,-22.245 -1.53334,-22.245 -10e-6,0 -29.14971,-29.1515 -33.75242,-36.05558 -4.60271,-6.90409 0,-22.2471 0,-22.2471 0,0 18.41001,-156.49145 17.64289,-170.29962 C 384.5213,394.83874 369.1789,391.00193 369.1789,391.00193 L 240.30261,335.77014 c 0,0 -76.31131,-28.07715 -90.84479,-28.43711 z m 5.29014,34.79281 c 0.32802,0.002 0.66074,0.0159 0.99636,0.0399 10.73969,0.76712 144.98583,48.32861 144.98583,48.32861 0,0 48.32891,23.01422 51.39739,32.9868 3.06849,9.97256 -15.34181,159.55992 -15.34181,159.55992 0,0 1.53424,3.06999 -21.47939,-6.13547 C 292.29272,567.70009 39.908772,443.42503 39.908772,443.42503 l 98.192668,-91.28738 c 0,0 6.47758,-10.0793 16.64652,-10.01183 z M -2.6661323,467.30825 a 37.870681,37.870681 0 0 1 37.8699973,37.87 37.870681,37.870681 0 0 1 -37.8699973,37.87209 37.870681,37.870681 0 0 1 -37.8699967,-37.87209 37.870681,37.870681 0 0 1 37.8699967,-37.87 z m -72.4362847,86.47969 c 0,0 390.109627,178.05271 394.530537,183.57321 4.42091,5.52049 -9.68921,37.28568 -17.68903,46.99663 -7.99983,9.71094 -17.17511,8.6379 -17.17511,8.6379 0,0 -385.48211,-178.66564 -385.20043,-187.09926 0.28168,-8.43362 25.534033,-52.10848 25.534033,-52.10848 z m 385.420667,64.64372 a 37.870681,37.870681 0 0 1 37.8721,37.86998 37.870681,37.870681 0 0 1 -37.8721,37.87 37.870681,37.870681 0 0 1 -37.86999,-37.87 37.870681,37.870681 0 0 1 37.86999,-37.86998 z"
         id="path4162"
         inkscape:connector-curvature="0" />
    </g>
    <text
       xml:space="preserve"
       style="font-style:normal;font-variant:normal;font-weight:normal;font-stretch:normal;font-size:138.66213989px;line-height:125%;font-family:Arial;-inkscape-font-specification:Arial;letter-spacing:0px;word-spacing:0px;fill:#000000;fill-opacity:1;stroke:none;stroke-width:1px;stroke-linecap:butt;stroke-linejoin:miter;stroke-opacity:1"
       x="192.06453"
       y="641.86237"
       id="text4210"
       sodipodi:linespacing="125%"
       transform="matrix(0.95673919,-0.29094693,0.29094693,0.95673919,0,0)"><tspan
         sodipodi:role="line"
         id="tspan4212"
         x="192.06453"
         y="641.86237"
         style="font-style:normal;font-variant:normal;font-weight:normal;font-stretch:normal;font-family:'Ubuntu Mono';-inkscape-font-specification:'Ubuntu Mono'">дзяліся </tspan></text>
    <text
       xml:space="preserve"
       style="font-style:normal;font-variant:normal;font-weight:normal;font-stretch:normal;font-size:130.94438171px;line-height:125%;font-family:Arial;-inkscape-font-specification:Arial;letter-spacing:0px;word-spacing:0px;fill:#000000;fill-opacity:1;stroke:none;stroke-width:1px;stroke-linecap:butt;stroke-linejoin:miter;stroke-opacity:1"
       x="638.80054"
       y="643.68567"
       id="text4214"
       sodipodi:linespacing="125%"
       transform="matrix(0.92148002,0.38842576,-0.38842576,0.92148002,0,0)"><tspan
         sodipodi:role="line"
         id="tspan4216"
         x="638.80054"
         y="643.68567"
         style="font-style:normal;font-variant:normal;font-weight:normal;font-stretch:normal;font-family:'Ubuntu Mono';-inkscape-font-specification:'Ubuntu Mono'">дарогай!</tspan></text>
  </g>
</svg>
